<mxfile host="app.diagrams.net" agent="Mozilla/5.0 (Windows NT 10.0; Win64; x64) AppleWebKit/537.36 (KHTML, like Gecko) Chrome/139.0.0.0 Safari/537.36 Edg/139.0.0.0" version="28.1.2">
  <diagram name="Page-1" id="FCbsaO2QRiK9Xi4oPLj8">
    <mxGraphModel dx="519" dy="349" grid="1" gridSize="10" guides="1" tooltips="1" connect="1" arrows="1" fold="1" page="1" pageScale="1" pageWidth="850" pageHeight="1100" math="0" shadow="0">
      <root>
        <mxCell id="0" />
        <mxCell id="1" parent="0" />
        <mxCell id="3lv9teBUK3wyE5GDYHUk-1" value="SmartLight" style="rounded=0;whiteSpace=wrap;html=1;" parent="1" vertex="1">
          <mxGeometry x="490" y="600" width="120" height="40" as="geometry" />
        </mxCell>
        <mxCell id="3lv9teBUK3wyE5GDYHUk-2" value="PhotoResistor" style="rounded=0;whiteSpace=wrap;html=1;" parent="1" vertex="1">
          <mxGeometry x="20" y="560" width="120" height="60" as="geometry" />
        </mxCell>
        <mxCell id="3lv9teBUK3wyE5GDYHUk-3" value="MotionSensor" style="rounded=0;whiteSpace=wrap;html=1;" parent="1" vertex="1">
          <mxGeometry x="210.45" y="570" width="120" height="60" as="geometry" />
        </mxCell>
        <mxCell id="3lv9teBUK3wyE5GDYHUk-4" value="setup&lt;div&gt;&lt;br&gt;&lt;/div&gt;" style="rounded=0;whiteSpace=wrap;html=1;" parent="1" vertex="1">
          <mxGeometry x="290" y="130" width="120" height="60" as="geometry" />
        </mxCell>
        <mxCell id="3lv9teBUK3wyE5GDYHUk-5" value="loop" style="rounded=0;whiteSpace=wrap;html=1;" parent="1" vertex="1">
          <mxGeometry x="201.5" y="285.52" width="120" height="60" as="geometry" />
        </mxCell>
        <mxCell id="3lv9teBUK3wyE5GDYHUk-7" value="" style="endArrow=none;html=1;rounded=0;entryX=0.5;entryY=1;entryDx=0;entryDy=0;exitX=0.5;exitY=0;exitDx=0;exitDy=0;" parent="1" source="3lv9teBUK3wyE5GDYHUk-5" target="3lv9teBUK3wyE5GDYHUk-4" edge="1">
          <mxGeometry width="50" height="50" relative="1" as="geometry">
            <mxPoint x="250" y="300" as="sourcePoint" />
            <mxPoint x="205" y="220" as="targetPoint" />
          </mxGeometry>
        </mxCell>
        <mxCell id="3lv9teBUK3wyE5GDYHUk-8" value="" style="endArrow=none;html=1;rounded=0;entryX=0.5;entryY=1;entryDx=0;entryDy=0;exitX=0.5;exitY=0;exitDx=0;exitDy=0;" parent="1" source="3lv9teBUK3wyE5GDYHUk-2" target="3lv9teBUK3wyE5GDYHUk-5" edge="1">
          <mxGeometry width="50" height="50" relative="1" as="geometry">
            <mxPoint x="170" y="470" as="sourcePoint" />
            <mxPoint x="220" y="420" as="targetPoint" />
          </mxGeometry>
        </mxCell>
        <mxCell id="3lv9teBUK3wyE5GDYHUk-9" value="" style="endArrow=none;html=1;rounded=0;exitX=0.5;exitY=1;exitDx=0;exitDy=0;entryX=0.5;entryY=0;entryDx=0;entryDy=0;" parent="1" source="3lv9teBUK3wyE5GDYHUk-23" target="3lv9teBUK3wyE5GDYHUk-3" edge="1">
          <mxGeometry width="50" height="50" relative="1" as="geometry">
            <mxPoint x="360" y="470" as="sourcePoint" />
            <mxPoint x="410" y="420" as="targetPoint" />
          </mxGeometry>
        </mxCell>
        <mxCell id="3lv9teBUK3wyE5GDYHUk-10" value="" style="endArrow=none;html=1;rounded=0;entryX=0.5;entryY=0;entryDx=0;entryDy=0;" parent="1" target="3lv9teBUK3wyE5GDYHUk-1" edge="1">
          <mxGeometry width="50" height="50" relative="1" as="geometry">
            <mxPoint x="260" y="350" as="sourcePoint" />
            <mxPoint x="480" y="280" as="targetPoint" />
          </mxGeometry>
        </mxCell>
        <mxCell id="3lv9teBUK3wyE5GDYHUk-11" value="" style="rhombus;whiteSpace=wrap;html=1;" parent="1" vertex="1">
          <mxGeometry x="233" y="345.52" width="57" height="50" as="geometry" />
        </mxCell>
        <mxCell id="3lv9teBUK3wyE5GDYHUk-12" value="" style="shape=image;verticalLabelPosition=bottom;labelBackgroundColor=default;verticalAlign=top;aspect=fixed;imageAspect=0;image=data:image/png,iVBORw0KGgoAAAANSUhEUgAAAHQAAABbCAYAAACiYKHEAAAAAXNSR0IArs4c6QAADX5JREFUeF7tnQtMVGcWgIdaHwhMsTiFGHdtfQ4q0q2tOJIAQZRh5SEjlqAgPip2tbs8jLJ0C7VL0BIDpFC6SMUwDLAtWJWAK+K0wBAE6kYeDopIQSsEISCPsUCrlc2hHvf3doA7c6fpcP0nMczce865/3++e87/vFcTAf3wygMmvKoNrYyAAuXZTUCBUqA88wDPqkMjlALlmQd4Vh0aoRQozzzAs+rQCKVAeeYBnlWHRigFyjMP8Kw6NEIpUJ55gGfVoRH6vAJdv359VVVV1VozM7OHVlZW/RYWFn2mpqZ9IpGof/bs2f1CoXDAwsJCY25uPmhubq4RCoUaU1NTjaWlpUYkEvUuWLDgukgk0vDMf0ZXHdYR6uLicrmsrEwCNTAx+UXthRdeEPz8889j3/HY6Ojo03Nw/tGjR2O/p0+fLrCxsRlevHhx7apVq+rt7OzUixYtum5ra3vdxsam2+g8M0ULpBPQ8vJyCQLD+k6bNk0Axx4/fqzVBTNmzBA8fPhwTAZvAqastbW1YOnSpQ3Lly9vEIvF18RisXrZsmWNCxcuvDNF/fq7FVsXoFUVFRVrAQxABCgQlRChJGSISjgOx/DfeLUDO2SEk3ZmzZolMDc3F3h6eubKZLI8Ly+viyYmJiO/m6emyIVZA3V2dq4qLy9fq0+9ADCAhg/cCCQ4hI8y5Hky+k1NTQVOTk5fBwQE5Eml0ks2NjZt+pSF7zqsgTo5OVVXVFQ4AAyAgxEKvwEGsw3FY9oAkhFMOhihkikcrwVyGNEgJ5FI6j08PM66u7tfWrNmzWW+g2JbP9ZAXVxcxiIUATLbUoTEvDCmZ6Y8yo2nR9ph2njxxRefRjrYFYvF7c7Ozv+RSqUlLi4uX8+ZM6efrQP4JscaKESoSqVywB7tRIBIJ5GdIbJNxWiENhTbXbI91RbFZNSTEUtG8fz58wd8fX0VQUFBWWvWrLnCN2CT1Yc10Ojo6GPDw8MvdXV1CeFvX1+fcGRk5KX+/n7hgwcPLAcGBiwfPHhggsOU8S7MTM14g8BfhI/g8AYggZE3Al4DIhauC0Mj+At68N3Dw6No165dmb6+vl9N5gi+nGcNlG2Fe3t7hUNDQxYAemRkxKKjo2NuZ2en7bVr12wbGhpsm5ubV/b09AjJNphpm0zDCAtkyI4V/Iae8MjIyNM2He3gDTBz5kzBjz/+KHBwcKjz9/fP2r59e661tXUX27pMRTmDA2XjhHv37pm1trauaGlpWdbc3Gzb0tKyvL6+fmVbW9siAARtJnwwBU+U5mGc+9NPP43JY6cJbgIcTiFUOG9tbX0/MDAwRyaTKRwdHXmZjn8XoBNBb2tre7WmpuaNCxcu/Lmqqsrn1q1bcyFiyckIgAi/yfTOjF4yyiGSATBMcEAqhu/e3t5Fu3fvzvT29uZVOjY6oEzYdXV1K5RK5cbCwkLPq1evumo0v0wHY1plzkSRkxVMyNoi3cHB4VpYWNjHAQEBuWyyi7HLGD1Q0oH3799/SaVSuSqVSreysrJNarV6AZwn21myQ0V2tAA0ROoPP/wwNmYGHYhY/Pj7+587dOhQ7JtvvnnV2KFNVL4pBZRZEbVa/ZZSqXS9cOHChosXL65ngsKZJuYUJHPsi+3snDlzBKGhoXEhISFH582bNzQVwU5poKTDv/nmG2e5XB6ck5OzC9pW7AGjDJmKcWIC2mFy9gmHTRKJpGX//v1HgoKCcqYaVN4ARcffuHFjqVwu36lQKHZ3dHRYYzRCe0ou5zFBMdtbAL158+bCqKioI1MpDfMOKIKC9jY7OztYLpfvqaurW4UzUthbxuEO9HqxLUX4eA6iHI4dPnz46L59++KmQhrmLVAyArOzs/3Pnj2768yZM+6QVhEYmYbhO6RimIhgtrFmZmawXns7IiLiA2NPw88FUIRbWlrqolAogjMzM3dCpOIEBHSKYHICo5ecMybhzp49W+Dq6qrMyMgINNYZp+cKKIKFYc8nn3zyj8LCQhdmW8ocApFDH/gOadjOzq41OTl5m0QiqTG2TtNzCRQhpKen74+Lizty7949EaRaWEQfHh4eO02ChXRM7tKANlckEj0+ceLEdplM9gUXqJmZmTt27tyZxcUGqftcAwVHfP/99/NiY2P/npGR8VdMuTgLRc4NM1eR8NyxY8fej4qKOqYLkL6+PsuMjIz9KSkp4fB9cHBwui76vJ1YMJQTwA6MYxMTE6OLiorWM8esABMjlly7BTn4vWfPnpNpaWl7JytPY2PjiqSkpPe+/PLLd2EKE2+c0dHR6SYmJr9sj+T4ee4jlOm/kydP7jt69Ghsa2uriOwckZBRh1yb9fX1LUtNTd2kbWhTUlKy8cSJE2EFBQUecHOAHtjD752dndaG2spKgWqJiM7OTtHnn3/+fkxMTBicxkgSCoWCwcHBZ9pXcvF99erV7VlZWe4rVqy4DnqZmZl7UlJSIm7cuLF8aOjZmURSr6mpSSwWi29yDM4xdQp0Ai8qlUrPvXv35ra1tVkwI5TsQAEcSMkw9LGysoKdEvmlpaVeHR0ds8hhD8jBRAZ0wMac/2S7a3V1tWTt2rXVFKghPDCJDVh4P3jwoFypVL4BojApAbNOuPhORhq2swAKgGNUwjgXesbMThdeuri42FMqlZ43RHVohLLwIvREw8PDTyoUii3kFlMyasl1WYw8HO7gjgpydwXeCPA3KysrKDAwMJtFUSYVoUAnddH/BSIjI+Pj4+MPAxiAhqmTNAETDzh9SK7mgAwzbWO0JyQkhIaFhSXrUJRxRSlQHbyo0WhEgYGB/y4oKBhbe8XeKk7uQ7Th2iu5r4lcymNuRYXfMTEx//zoo48+1KEoFCgXZ3377bevZ2dn/y05OXkXcw8xRh6Zipk7FbHtxOMQqQASN7IdPHgwNSEh4T0uZXw6lDKEEb7aKC4u3vTpp5+GFRUVuTHrONlTd7r4JDg4+Au5XB6gi854sjTlavGMQqEISUxMDKutrbXFzguum8JfOKat/dQXiEwmu3TmzJmN+uqTehQow4ujo6PTnJycKqurqx1wFz5z3RRSJbnflysIJyenOpVK9SeudkCfAtXiRdj9L5VKy69cufI6tpHY4WE+D2sICPCwVVNT0x8MYYsCHceLXV1d1p6enmW1tbViXGnBqMSlNFAd76EtXeC88sorI93d3aa66NA2VA9vfffdd3+ESL1z586rAI7cx6uHuXFVYCfE0NCQQYLLIEYMWTljs3X37t0l69atK7t79+48bctqhigvpPP29nYzQ2xCo0BZEIF1THd39/L29nar8caYLMxMKNLT0zN/7ty5HVztUKAsPVhVVfUGpF+NRmMOKuREO3NnPjlny8Y8TDLU1dXZ2dvbq9nITyRDgergwZqaGombmxtA/dWWEYhcAMPc48vWfGVlpbOjo6OKrTztFHH11BP9S5cuuWzevLkUHnqCOVroATN7wbpcCldmCgsLfb28vM7poqtNlkaoHh48d+6cu0wmK8a0C2ufMHOEe30BMNu0i0Bhh39wcPApPYrzjAoFqqcHCwoKvH18fArIHQm4/kkugLM1n5iYeDgiIuI4W3macrl6Sot+fn7+1q1bt+bhGijzHU64EYzNpaOjoz+OjY2NYiNLO0VcvTSBfm5ubuC2bdsU5BPlukQoRviBAwfSU1NT93EtKk25XD0oEMAWkj07duw4qW0SfzLzeCMEBwd/JZfL/SaTn+w8BTqZh1ieT0lJ2R8aGprKfNMouXcXTOECObkgDjIwcVFcXPyrZ21YXv6pGAWqq8cmkE9KSooIDw9PwEidrKdLRvS6devUly9ftuNaHAqUqwcZ+jExMVFxcXFHYSEcX4oFIviiLYhQ5ivw4NySJUs6b926NY9rcShQrh7Uoh8TE3MkLi7uQ/LFWaQY85FFSL9WVlaPent7OT+0RIH+BkDBZGho6MdpaWmRuFWF3LdLbs7Gyz/ZGciZB2cDv5E/eGH2wIEDSadOnQqDZ06Zj0EwKwjne3p6LF9++eUBLpWnQLl4j4XuO++886/8/Px3BwZ+zYlMvWCqqalpoVgs5vSmbgqUBRSuIjBHi+9PYm7/JDdn19fXr7a3t+f0JjMKlCstlvrw9pScnJxtABSW2MghDW4RVSqVG9zc3JQsTWoVo0C5eE9HXT8/v69Onz4tI1/YTO5TOn36tL+fn1+ejmafEadAuXhPD10fH5+i8+fPbyL/gyKACpA/++yzv4SEhKTpYfapCgXKxXt66m7cuPHrkpISV+bTaMePH//g0KFDcXqaHVOjQLl4T09deEnGhg0bSpVKpSOYeLKNUxAZGZkUHx8foadZCpSL47jqdnd3m2/ZsqWsoqJiNS6hhYSEKNLT03dwsU0jlIv3OOoODg5aeXh4qCorK5eDqbfffrs4Ly/Pg4tZCpSL9wygCy++8vb2rmxsbHxVIpH8V6VSvcXFLAXKxXsG0r19+/ZrUqm0esaMGSMNDQ1jr13X90OB6us5A+vdvHlT7OXlVdHc3CziYpoC5eI9A+uq1Wr7lStX1nMxS4Fy8Z4R6lKgRgiFS5EoUC7eM0JdCtQIoXApEgXKxXtGqEuBGiEULkWiQLl4zwh1KVAjhMKlSP8DxejItk8E5rAAAAAASUVORK5CYII=;rotation=-210;" parent="1" vertex="1">
          <mxGeometry x="207.16" y="322.52" width="93.06" height="73" as="geometry" />
        </mxCell>
        <mxCell id="3lv9teBUK3wyE5GDYHUk-13" value="Computer&lt;div&gt;&lt;br&gt;&lt;/div&gt;" style="rounded=0;whiteSpace=wrap;html=1;" parent="1" vertex="1">
          <mxGeometry x="520" y="285.52" width="120" height="60" as="geometry" />
        </mxCell>
        <mxCell id="3lv9teBUK3wyE5GDYHUk-14" value="" style="endArrow=none;html=1;rounded=0;exitX=0.5;exitY=1;exitDx=0;exitDy=0;entryX=0.5;entryY=0;entryDx=0;entryDy=0;" parent="1" source="3lv9teBUK3wyE5GDYHUk-4" target="3lv9teBUK3wyE5GDYHUk-13" edge="1">
          <mxGeometry width="50" height="50" relative="1" as="geometry">
            <mxPoint x="420" y="280" as="sourcePoint" />
            <mxPoint x="470" y="230" as="targetPoint" />
          </mxGeometry>
        </mxCell>
        <mxCell id="3lv9teBUK3wyE5GDYHUk-15" value="" style="endArrow=none;html=1;rounded=0;exitX=1;exitY=0.5;exitDx=0;exitDy=0;entryX=0;entryY=0.25;entryDx=0;entryDy=0;" parent="1" source="3lv9teBUK3wyE5GDYHUk-5" target="3lv9teBUK3wyE5GDYHUk-13" edge="1">
          <mxGeometry width="50" height="50" relative="1" as="geometry">
            <mxPoint x="370" y="390" as="sourcePoint" />
            <mxPoint x="420" y="340" as="targetPoint" />
          </mxGeometry>
        </mxCell>
        <mxCell id="3lv9teBUK3wyE5GDYHUk-16" value="SmartLight&amp;nbsp; true" style="text;strokeColor=none;align=center;fillColor=none;html=1;verticalAlign=middle;whiteSpace=wrap;rounded=0;" parent="1" vertex="1">
          <mxGeometry x="326.79999999999995" y="239.44" width="60" height="30" as="geometry" />
        </mxCell>
        <mxCell id="3lv9teBUK3wyE5GDYHUk-17" value="" style="shape=image;verticalLabelPosition=bottom;labelBackgroundColor=default;verticalAlign=top;aspect=fixed;imageAspect=0;image=data:image/png,iVBORw0KGgoAAAANSUhEUgAAAQIAAABkCAYAAABtlT6jAAAAAXNSR0IArs4c6QAAFGZJREFUeF7tXXtQVEe6nycIEpPadUXqaiIJEaLrGhOJdcX1FQy4oTZms0p4hGcgavZq1GvVdVO38sfNFhVjNFmjUWSQx8AAo4AgAWQk6LKzRrgqItZFhEFNCcRXiTyd161vlnY7JwfmzHBmOMx8UzU1j9P9dffv+/rXX3/dp49YhC9EABFwewTEbo8AAoAIIAIiJAI0AkQAEUAiQBtABBABERIBGgEigAggEaANIAKIgAiJAI0AEUAEkAjQBhABRAAQwFUDtANEABFAIkAbQAQQAfQI0AYQAUQApwZoA4gAIoAxArQBRAARsCCAwUI0BEQAEUAiQBtABBAB9AjQBhABRACnBmgDiAAigDECtAFEABHAYCHaACKACPwTAVw1QEtABBABJAK0AUQAEUCPAG0AEUAEcGqANoAIIAIYI0AbQAQQAQwWog0gAogArhqgDSACiMAIArh8iKaACCACuHyINoAIIAK4fIg2gAggArh8iDaACCACuHyINoAIIAK4fIg2gAggArh8iDaACCACuHyINoAIIAIEAdxHgLaACCACuI8AbQARQARwHwHaACKACOA+AmHYwO3bt73VanXy8ePH3zl79uxKYdQKa+FOCGCMYAK1XVFREZ6ZmZlQXV29oa+vT7x06dIGrVb72gRWya2K7unp8a2vr1/S0dExp7Oz84Xu7u7nr1+/7n/jxo3nZDKZyM/P70ZAQED7s88+2+7v798RFBSkCwwMPO3v7z/kakAhEThZoy0tLQFZWVnJxcXFCe3t7TPB4AwGg2jKlCmil156qenixYsvO7lKblfc+fPngzMyMhILCwvfe/jwoY9IJDKDdywWi0VmM3z950sqlYqMRiNcsPyGa97e3qLw8PCCDz74IDMsLKzGVcBDInCCJs1ms0SpVMbv378/6cKFCyEGg8GCu0QiEZlMpic1WLhwYUtTU9OvnVAltywiPz9/Q0FBQUJZWVk4W8dnA4UmB0IMkA4IYcaMGTcSEhJyIyIi8hYvXvx/kxlUJAIHaq+mpmaZSqVKKioqerevr8/rqaeeEj169MhSIngAQ0M/9TAXLFhwrbm5OdCBVXJL0V1dXb9KSUnJrKioeNNsNlts3sfHR9TX12cVD7rzMxPL5XKRXq8XPf300w8///zznampqUesChRoAiQCnhXT0dHhW1hYmJSenh5/+/btucPDwz9zOUmRTI9g3rx5HVevXn2B5yq5tbhz5869un79+mPd3d1zoNMy3X8u4DDz0HqDqR14dfCOiYnJzcvLi+MiU2hpkAh40khhYeEGpVKZUFVVFQ4GJ5VKxTC/ZL48PDxEjx8/tvxNf4ffgYGBN1tbW5/jqUpuL6akpGTd22+/XQzTABjZoUNDPAZe8B06NJuOmMAx08JvQg4kpkA8vICAgA6tVrtwxowZ1t0NAWkIiWAcytBqtYtUKlVydnZ2TG9v79Nk3kkMjcz/weCg0w8PD1sCTmBE4FYSQiBG5e/vf1un0/3bOKqEWUcQiI2NzVUqlTEymcxi44QA4Ds9inMBjHR8Op4D+UCv8CL/k3QSicR85syZV0JCQi5xkS+ENEgENmrhxx9/9CkoKEgqKSlJ/O67714mowV0cDAMYnAwAoGBMEcdMjIRd5IYFPyeNWvWjz/88IOvjVXC5AwEtm/f/tf9+/f/B+iCXgWgvTDQC62v0UCkpwGjEQJZ+aF1CWRw//79Xz7zzDMPJoOCkAg4aqmsrGxtZmZmYmVl5R9hZIfR39PT0+Ja0u4mGB4diCLBJviEN/EC2IzHz8/vfldX1y85VgmTsSCg0WjWhIaGnqIvQWcGvYC+IEDLnJKNBSSTCIgspndAiJ8mixdffPHatWvXJkXwF4lgDCu4evXqi3l5eUkKhSLuzp07fhBxBgNgCziRjk0bDiEB2oWk16SJHJLH19f3UU9PzzTs4fYjMH369Nv37t3zA31ArIYZkKUxB3JgegxsJdM6Y14nxEDLIWWA/uPi4o4ePXo0yf4WOScnEgEDZ7PZLFepVLEHDx6Mr6+vX+6sbdhgUD4+PkO9vb1ezlG965Wybt26vIqKimgyJRhr6c9ZrQdC2rJly2d79+79L2eVaU85SAQjqNXV1f0WmLu0tDTq4cOHnvA37b7bA64teWAUmTp16uO+vj5L2fiyDQHw2lJTU7NBZyNTN9sEOCg18Q5qa2uXrV69+u8OKmbcYt2aCHQ63UylUplYUlISf+HChbkw+hNXDxTInAeOG20rAry9vQ0DAwNyR5fjivKXL19ed/bs2RXQNtAd7Pzr7+8XRFPBM0lOTk5PT0//QBAVYqmEWxIBrPlnZGTE19bWrjUajU8woD0AWwJK41EuHW/w9PQ0DQ8PS8cjzx3zgjf3+uuvnyExHIKBPZuH+MYP6gBBSk9Pz6GWlpZZs2bNusd3GXzIcxsiaGxsfOXgwYOw7Pdeb2/vNBjtIcDjTPefTWG0scrlcpNer0cisNGyo6Ojs/Pz8y07+giBA64wEtP7B2wUy2tysLPPPvts644dO/7Kq2CehLk0EZA1f9jxd/78+UXM4BEd6ScRZEgD30dbHeAJ9ydi6Ij0SP1cWid84wdbugMDA7v0er1lWkemc2z3cvBdNhd54A3AkjHYVHBw8IWGhoZXueRzdhqXNLra2trfHTp0KFGtVr8D7iLdudnIgN7cM9rdZo5UDClzJC4hEYvF/7oX1pEFu4DsXbt2/SUtLe3PhFDpdX7m0uFENZdeRtZoNCtXr159ZqLqMlq5LkMETU1NgXl5edD543Q6nR8JGpFNJEwArMUAnDm/JAYLBGAymTzFYrFeaIbCd33g1mxYmOns7JRMnTpVJpPJpAMDA7LHjx/LTCaTh8lkkhuNRtnw8LDcZDKR/6V6vV5mMBgsb5PJJP7oo48Ot7a2/uRGLVvuI+C7XUx5tNcJ1w4fPpyUkpJy1NHl2ip/UhOB2WyWwbJRTk5OQn19/W9pd14oo4E1hdD19PDwMJ86dWqJl5cX3JUEHUEyODgoE4vFcjB86BjQUeATOofRaJQODw/LYO8DxBbgf0g30lmk0JlGOpYlrV6vt/w2GAzQuaSA3+DgoBw+RzqW5brRaLSUB/+DfJAL+YlsuA6/4frQ0JAlncFggOtP6gm/TSaTZGhoSAJlwRkMkIcOzo6TbInXJGgbZrZx165dn6alpf23Nbtw9nVBgzgaGKdPn16uUCiSjx07FgdzL7KDDEAnd5NZG/GdDfRY5TGnIyRGQbwa+BxtB9xYu94gH5kW0TKYu+DGkm8tvzUcSX6uu/isyZuM12n9xsXFqXJycqKF1o5JQwSw5p+bm5uUm5ub2NbWFsAEkrmNdyL2AdirXGIoMI2BzTB0zICWSTo9+YRrbLfR0te5bKEdqwyueynY6kYTMymDrttYBGQvlkLMR3t9ixcv/t/GxsbFQqun4IkgKytrg0qlggM+1wJ45FQYMtqRZUDa0IjxT/TSIFdl0/X08vKyeDiw7MWl/iQ4RpdFd35CkOQ6GzGMRRZ8dVymHHchAWgnTQTTp09/ePfu3We42oaz0gmSCBoaGhbBnX4qlSq+v79/GlkLJgbLDAbBNABeZIow2kjpLFBtLQfcZ3hBu+h1b7ZOTtKRMpgjtr0dl5mP/GbzCNg8Dlvy24rPZE9PEwHseBwYGBBcvxNMhdra2qadOHEiHs74a2lpeZl5np8th0lAWiANLqfPCMnI6CkBH1Ob0YJxXKcObPltIZpxBgOFpBre6jJz5sy73d3dv+JNIE+CJpwI4Gz/I0eOJFRWVkYybxaBkRJG+8HBwSfNJaMn/EGfDEMfRUWfDMR1jssTnjaLgdGCBNTAG6CnPvToby1YOJrrb63jWgs2WuvM1vKzAcKViGwGU8AZCI6LFi26evHixflCq+qEEgHc75+bmxt18uTJDc3NzfNpo2IeCEHuLycAUmvvP4uogxw+RlRnKYv2BCZy27Oj5/HWSMVZeDuzHNJmYq+hoaF1Go1mlTPrwKWsCSUCuoLwYA+lUhlbXFwcqdPpZrGNhvQ+ctJhyK5AZtxgrMbTOw25gOToNDRxsR2kAeXbGv0ndbbmETijbcwybGkLl/qzeSVCIR0myUdFRalUKhUuH3IxvHPnzi3LysqKLikpiezp6fkF5GFG0JlMSxs+vWpApgZs69hCOLiCxoPsj7fXo7FnRCdTLYIZ85NedWBeg7pb22dgbRpA56cJj5RFB0zZCIRMpcggwXZiEBebc2Qaerq3devWfV999dV2R5Znj2zBeASjVb68vPyNoqKiGCAFcmgHGTUJwLD+Dh0eVg2IcY61vk4b2UTHEOh96CN1MY+QnBjax3YApz2KHi0PlA94AtFCeXAHpFwu18tkMr1EIjFIpVKjVCrVw9vDw8Mgl8uNcF0ulxvEYrFBIpEYYUs0/Ofh4QH5LNdJHkgP16n8BplMBm+SBs58J3lBvuUN10E+lAmfJI+Hh4cR/oO6yeXyxwcOHNh08uTJd6B9bMfE8YmVPbJobwUwVigUKfHx8Rn2yHJkHsETAd14tVr9B7VaHQ1PDR5tRYD2HEgno91EcsikLe6pIxXAkG3+5JNP/jJ79uxr0AGhY4Hhjxg9dBzoEEboFNCxoMNAR4SOAZ3Jy8vLch3SwTWDwWCcMmWKEf6H73q93ujn5wfPWLN0Lie2y2FF1dTUvBkWFnaS7ajxiSZ52ksFkjUajUaDweAhFov/9Zw7hyFjm+BJRQSkabC3PScn510ghW+//day0YjN9SduLXwCcbAdMGkbXPynZkwDzN9///1rS5YsaeS/JNeVOH/+/PM3b94MhsfJkd2Z0FouG7KcicrGjRszDh06lOLMMrmWNSmJgG7cnTt3nlKr1VH5+fnRjY2NK2D/Ab2USNLSW5DHmj5wBY7PdDQZ1NXVLV25cuU/+JTv6rIOHDjwpw8//HA/tFMoQUIac/AGwDvRaDTBq1atEiTJT3oioAHv7Oz0y8/PjyooKIhpbW19BfYl0CMEfSOSUAKFzFFLo9EsDw0N/Zurd14+2wcH0CxcuLC9u7t7Bnh9tqwg8VkPNlkkbrFy5crTdXV1oY4uz175LkUENAjNzc0vwNShqKgo+vr160HMvftCIQIygpH61NTUrFqzZk2dvQp113w7duzY88UXX+ygSYC5OWuisAHdZmRkxCUmJuZOVB2sleuyREA3XKvVLiguLo4pLS2NIXsUIGZAOh8ZlZlBRToNLQ/SkbzjDTrSZcL38vLyNRERERprisPrP0Xg8uXLQStWrKh/8OCB5UlRxBNkI/zRlp7twZSM+GxBaiIvJSXlyJEjR1Ltke+sPG5BBDSYGo3m32H6oNFoom/evPnk8WJk/RmmD7AMSW9fJjEF+kgzvhTEJILS0tK1b731VhVf8t1JDmzUiY6OzmMeWgoY0ztT+T6rgiYWKJvc/AY2NWfOnI62trZ5YrHY8pw8ob7cjghoRVRWVr5eWFgYBTc7PXjwQEZfIwEeepmSBBzJ2jAfNzUxiaCkpOT369atKxeqwQi9Xtu2bdu7b9++bSPLdT97NsXI3X+WPRN87dEgG8HY9jE0NDQsCA4OviJ03NyaCGjllJWVvaVUKqNPnDixATonrD7QIwnbbj8+jkNjEkFBQcHbkZGRpUI3HCHXb+nSpWe0Wu1yQtjE22OeTM23Z8A8WOabb77ZuGnTpsNCxorUDYmAoSWz2SzNzs6GPQpRVVVVb7KN+jCaQGyAjzPzmUSQm5u7PjY29thkMB4h19Hb2/vR0NCQD1lFABIgT6nm814T+vZ4Ok6wdu3a6srKynAhY0TXDYlgDE3du3dvWnFx8buwHAnnJNJBKPjOx4YVJhFkZ2dHxcXFFUwWAxJyPcPCwr4lJ1uxHWPP55kVxBbAy0hNTd3z9ddf7xQyNsy6IRFw1BY8SKOkpCQqJycn9vLly6+CEfG9BAkubEZGxntJSUlKjtXCZFYQyMzMjEpOTs4n0wS+tx1DxwdbgACht7e3ac+ePfGbN2+edPpDIrCjK7W1tb0AQUbwFK5cuRJkhwjWLEAE6enpCe+//342XzJRjkik1WoXbd68+XBzc3Mwmerx4c3R2IaEhJzbvXv3ppCQkEuTEXMkgnFq7dKlS/Nh2Qo2Lul0ujkgjnb3SUCRGVikA1X0NYVC8X5ycrJinNXC7AwEdDrdlN27d+/Oz89P7O3ttcQOngTKxOKf3IdC38pMdMm2WxHSBQUFXUlOTs7evn37l5P5Ri4kAh67TENDw2vZ2dlwd+S7XV1dvmRnG/kkxgRGCC4quSeCfIfRau/evRvh6T08VgtFUQh0d3dPVSgUG4uKihKampp+TZ+XAMlogqCfW0iDCPoMDw+viIyMzHKVwC4SgYO6SVVV1arCwsLosrKyqPv3708FA6MPz4Bi6U1LxAD37dv3p23bth1wULVQLIVAdXX1UoVCsbm9vf03HR0dM/v7+y2HisJqEB1LmD17dk9AQECbr6+vbu7cuTffeOON0mXLlgny5iF7FYxEYC9yNuRTq9URx48fh41L6+FxYfB0XCAFMDb6HghwNb/88sutW7ZsEeSjs21o8qRN2tbW5mkymaYPDQ35ymSyu/PmzftBiOcH8A0wEgHfiFqRl5mZGQleQnl5+e/hOYDk6HVwUYEU0tLS/nPXrl1fOLlaWJybI4BEMEEGcOvWLa/q6uqooqKiqFOnTlluT4U56c6dO//86aefpk1QtbBYN0UAiUAAir9169Yvjh07BqQQExERUfnxxx//jwCqhVVwIwSQCASm7I6Ojueef/75GwKrFlbHxRFAInBxBWPzEAEuCCARcEEJ0yACLo4AEoGLKxibhwhwQQCJgAtKmAYRcHEEkAhcXMHYPESACwJIBFxQwjSIgIsjgETg4grG5iECXBBAIuCCEqZBBFwcASQCF1cwNg8R4IIAEgEXlDANIuDiCCARuLiCsXmIABcEkAi4oIRpEAEXR+D/Aba+sfvzItDUAAAAAElFTkSuQmCC;rotation=-155;" parent="1" vertex="1">
          <mxGeometry x="438.4044227664784" y="210.0044227664784" width="51.6" height="20" as="geometry" />
        </mxCell>
        <mxCell id="3lv9teBUK3wyE5GDYHUk-18" value="Sensor not found flag" style="text;strokeColor=none;align=center;fillColor=none;html=1;verticalAlign=middle;whiteSpace=wrap;rounded=0;" parent="1" vertex="1">
          <mxGeometry x="460" y="190" width="140" height="30" as="geometry" />
        </mxCell>
        <mxCell id="3lv9teBUK3wyE5GDYHUk-19" value="" style="rhombus;whiteSpace=wrap;html=1;" parent="1" vertex="1">
          <mxGeometry x="324" y="184.5" width="52" height="41" as="geometry" />
        </mxCell>
        <mxCell id="3lv9teBUK3wyE5GDYHUk-20" value="" style="endArrow=none;html=1;rounded=0;entryX=0.5;entryY=1;entryDx=0;entryDy=0;exitX=0.5;exitY=0;exitDx=0;exitDy=0;" parent="1" source="3lv9teBUK3wyE5GDYHUk-1" target="3lv9teBUK3wyE5GDYHUk-13" edge="1">
          <mxGeometry width="50" height="50" relative="1" as="geometry">
            <mxPoint x="550" y="590" as="sourcePoint" />
            <mxPoint x="610" y="420" as="targetPoint" />
          </mxGeometry>
        </mxCell>
        <mxCell id="3lv9teBUK3wyE5GDYHUk-21" value="" style="shape=image;verticalLabelPosition=bottom;labelBackgroundColor=default;verticalAlign=top;aspect=fixed;imageAspect=0;image=data:image/png,iVBORw0KGgoAAAANSUhEUgAAAQIAAABkCAYAAABtlT6jAAAAAXNSR0IArs4c6QAAFGZJREFUeF7tXXtQVEe6nycIEpPadUXqaiIJEaLrGhOJdcX1FQy4oTZms0p4hGcgavZq1GvVdVO38sfNFhVjNFmjUWSQx8AAo4AgAWQk6LKzRrgqItZFhEFNCcRXiTyd161vlnY7JwfmzHBmOMx8UzU1j9P9dffv+/rXX3/dp49YhC9EABFwewTEbo8AAoAIIAIiJAI0AkQAEUAiQBtABBABERIBGgEigAggEaANIAKIgAiJAI0AEUAEkAjQBhABRAAQwFUDtANEABFAIkAbQAQQAfQI0AYQAUQApwZoA4gAIoAxArQBRAARsCCAwUI0BEQAEUAiQBtABBAB9AjQBhABRACnBmgDiAAigDECtAFEABHAYCHaACKACPwTAVw1QEtABBABJAK0AUQAEUCPAG0AEUAEcGqANoAIIAIYI0AbQAQQAQwWog0gAogArhqgDSACiMAIArh8iKaACCACuHyINoAIIAK4fIg2gAggArh8iDaACCACuHyINoAIIAK4fIg2gAggArh8iDaACCACuHyINoAIIAIEAdxHgLaACCACuI8AbQARQARwHwHaACKACOA+AmHYwO3bt73VanXy8ePH3zl79uxKYdQKa+FOCGCMYAK1XVFREZ6ZmZlQXV29oa+vT7x06dIGrVb72gRWya2K7unp8a2vr1/S0dExp7Oz84Xu7u7nr1+/7n/jxo3nZDKZyM/P70ZAQED7s88+2+7v798RFBSkCwwMPO3v7z/kakAhEThZoy0tLQFZWVnJxcXFCe3t7TPB4AwGg2jKlCmil156qenixYsvO7lKblfc+fPngzMyMhILCwvfe/jwoY9IJDKDdywWi0VmM3z950sqlYqMRiNcsPyGa97e3qLw8PCCDz74IDMsLKzGVcBDInCCJs1ms0SpVMbv378/6cKFCyEGg8GCu0QiEZlMpic1WLhwYUtTU9OvnVAltywiPz9/Q0FBQUJZWVk4W8dnA4UmB0IMkA4IYcaMGTcSEhJyIyIi8hYvXvx/kxlUJAIHaq+mpmaZSqVKKioqerevr8/rqaeeEj169MhSIngAQ0M/9TAXLFhwrbm5OdCBVXJL0V1dXb9KSUnJrKioeNNsNlts3sfHR9TX12cVD7rzMxPL5XKRXq8XPf300w8///zznampqUesChRoAiQCnhXT0dHhW1hYmJSenh5/+/btucPDwz9zOUmRTI9g3rx5HVevXn2B5yq5tbhz5869un79+mPd3d1zoNMy3X8u4DDz0HqDqR14dfCOiYnJzcvLi+MiU2hpkAh40khhYeEGpVKZUFVVFQ4GJ5VKxTC/ZL48PDxEjx8/tvxNf4ffgYGBN1tbW5/jqUpuL6akpGTd22+/XQzTABjZoUNDPAZe8B06NJuOmMAx08JvQg4kpkA8vICAgA6tVrtwxowZ1t0NAWkIiWAcytBqtYtUKlVydnZ2TG9v79Nk3kkMjcz/weCg0w8PD1sCTmBE4FYSQiBG5e/vf1un0/3bOKqEWUcQiI2NzVUqlTEymcxi44QA4Ds9inMBjHR8Op4D+UCv8CL/k3QSicR85syZV0JCQi5xkS+ENEgENmrhxx9/9CkoKEgqKSlJ/O67714mowV0cDAMYnAwAoGBMEcdMjIRd5IYFPyeNWvWjz/88IOvjVXC5AwEtm/f/tf9+/f/B+iCXgWgvTDQC62v0UCkpwGjEQJZ+aF1CWRw//79Xz7zzDMPJoOCkAg4aqmsrGxtZmZmYmVl5R9hZIfR39PT0+Ja0u4mGB4diCLBJviEN/EC2IzHz8/vfldX1y85VgmTsSCg0WjWhIaGnqIvQWcGvYC+IEDLnJKNBSSTCIgspndAiJ8mixdffPHatWvXJkXwF4lgDCu4evXqi3l5eUkKhSLuzp07fhBxBgNgCziRjk0bDiEB2oWk16SJHJLH19f3UU9PzzTs4fYjMH369Nv37t3zA31ArIYZkKUxB3JgegxsJdM6Y14nxEDLIWWA/uPi4o4ePXo0yf4WOScnEgEDZ7PZLFepVLEHDx6Mr6+vX+6sbdhgUD4+PkO9vb1ezlG965Wybt26vIqKimgyJRhr6c9ZrQdC2rJly2d79+79L2eVaU85SAQjqNXV1f0WmLu0tDTq4cOHnvA37b7bA64teWAUmTp16uO+vj5L2fiyDQHw2lJTU7NBZyNTN9sEOCg18Q5qa2uXrV69+u8OKmbcYt2aCHQ63UylUplYUlISf+HChbkw+hNXDxTInAeOG20rAry9vQ0DAwNyR5fjivKXL19ed/bs2RXQNtAd7Pzr7+8XRFPBM0lOTk5PT0//QBAVYqmEWxIBrPlnZGTE19bWrjUajU8woD0AWwJK41EuHW/w9PQ0DQ8PS8cjzx3zgjf3+uuvnyExHIKBPZuH+MYP6gBBSk9Pz6GWlpZZs2bNusd3GXzIcxsiaGxsfOXgwYOw7Pdeb2/vNBjtIcDjTPefTWG0scrlcpNer0cisNGyo6Ojs/Pz8y07+giBA64wEtP7B2wUy2tysLPPPvts644dO/7Kq2CehLk0EZA1f9jxd/78+UXM4BEd6ScRZEgD30dbHeAJ9ydi6Ij0SP1cWid84wdbugMDA7v0er1lWkemc2z3cvBdNhd54A3AkjHYVHBw8IWGhoZXueRzdhqXNLra2trfHTp0KFGtVr8D7iLdudnIgN7cM9rdZo5UDClzJC4hEYvF/7oX1pEFu4DsXbt2/SUtLe3PhFDpdX7m0uFENZdeRtZoNCtXr159ZqLqMlq5LkMETU1NgXl5edD543Q6nR8JGpFNJEwArMUAnDm/JAYLBGAymTzFYrFeaIbCd33g1mxYmOns7JRMnTpVJpPJpAMDA7LHjx/LTCaTh8lkkhuNRtnw8LDcZDKR/6V6vV5mMBgsb5PJJP7oo48Ot7a2/uRGLVvuI+C7XUx5tNcJ1w4fPpyUkpJy1NHl2ip/UhOB2WyWwbJRTk5OQn19/W9pd14oo4E1hdD19PDwMJ86dWqJl5cX3JUEHUEyODgoE4vFcjB86BjQUeATOofRaJQODw/LYO8DxBbgf0g30lmk0JlGOpYlrV6vt/w2GAzQuaSA3+DgoBw+RzqW5brRaLSUB/+DfJAL+YlsuA6/4frQ0JAlncFggOtP6gm/TSaTZGhoSAJlwRkMkIcOzo6TbInXJGgbZrZx165dn6alpf23Nbtw9nVBgzgaGKdPn16uUCiSjx07FgdzL7KDDEAnd5NZG/GdDfRY5TGnIyRGQbwa+BxtB9xYu94gH5kW0TKYu+DGkm8tvzUcSX6uu/isyZuM12n9xsXFqXJycqKF1o5JQwSw5p+bm5uUm5ub2NbWFsAEkrmNdyL2AdirXGIoMI2BzTB0zICWSTo9+YRrbLfR0te5bKEdqwyueynY6kYTMymDrttYBGQvlkLMR3t9ixcv/t/GxsbFQqun4IkgKytrg0qlggM+1wJ45FQYMtqRZUDa0IjxT/TSIFdl0/X08vKyeDiw7MWl/iQ4RpdFd35CkOQ6GzGMRRZ8dVymHHchAWgnTQTTp09/ePfu3We42oaz0gmSCBoaGhbBnX4qlSq+v79/GlkLJgbLDAbBNABeZIow2kjpLFBtLQfcZ3hBu+h1b7ZOTtKRMpgjtr0dl5mP/GbzCNg8Dlvy24rPZE9PEwHseBwYGBBcvxNMhdra2qadOHEiHs74a2lpeZl5np8th0lAWiANLqfPCMnI6CkBH1Ob0YJxXKcObPltIZpxBgOFpBre6jJz5sy73d3dv+JNIE+CJpwI4Gz/I0eOJFRWVkYybxaBkRJG+8HBwSfNJaMn/EGfDEMfRUWfDMR1jssTnjaLgdGCBNTAG6CnPvToby1YOJrrb63jWgs2WuvM1vKzAcKViGwGU8AZCI6LFi26evHixflCq+qEEgHc75+bmxt18uTJDc3NzfNpo2IeCEHuLycAUmvvP4uogxw+RlRnKYv2BCZy27Oj5/HWSMVZeDuzHNJmYq+hoaF1Go1mlTPrwKWsCSUCuoLwYA+lUhlbXFwcqdPpZrGNhvQ+ctJhyK5AZtxgrMbTOw25gOToNDRxsR2kAeXbGv0ndbbmETijbcwybGkLl/qzeSVCIR0myUdFRalUKhUuH3IxvHPnzi3LysqKLikpiezp6fkF5GFG0JlMSxs+vWpApgZs69hCOLiCxoPsj7fXo7FnRCdTLYIZ85NedWBeg7pb22dgbRpA56cJj5RFB0zZCIRMpcggwXZiEBebc2Qaerq3devWfV999dV2R5Znj2zBeASjVb68vPyNoqKiGCAFcmgHGTUJwLD+Dh0eVg2IcY61vk4b2UTHEOh96CN1MY+QnBjax3YApz2KHi0PlA94AtFCeXAHpFwu18tkMr1EIjFIpVKjVCrVw9vDw8Mgl8uNcF0ulxvEYrFBIpEYYUs0/Ofh4QH5LNdJHkgP16n8BplMBm+SBs58J3lBvuUN10E+lAmfJI+Hh4cR/oO6yeXyxwcOHNh08uTJd6B9bMfE8YmVPbJobwUwVigUKfHx8Rn2yHJkHsETAd14tVr9B7VaHQ1PDR5tRYD2HEgno91EcsikLe6pIxXAkG3+5JNP/jJ79uxr0AGhY4Hhjxg9dBzoEEboFNCxoMNAR4SOAZ3Jy8vLch3SwTWDwWCcMmWKEf6H73q93ujn5wfPWLN0Lie2y2FF1dTUvBkWFnaS7ajxiSZ52ksFkjUajUaDweAhFov/9Zw7hyFjm+BJRQSkabC3PScn510ghW+//day0YjN9SduLXwCcbAdMGkbXPynZkwDzN9///1rS5YsaeS/JNeVOH/+/PM3b94MhsfJkd2Z0FouG7KcicrGjRszDh06lOLMMrmWNSmJgG7cnTt3nlKr1VH5+fnRjY2NK2D/Ab2USNLSW5DHmj5wBY7PdDQZ1NXVLV25cuU/+JTv6rIOHDjwpw8//HA/tFMoQUIac/AGwDvRaDTBq1atEiTJT3oioAHv7Oz0y8/PjyooKIhpbW19BfYl0CMEfSOSUAKFzFFLo9EsDw0N/Zurd14+2wcH0CxcuLC9u7t7Bnh9tqwg8VkPNlkkbrFy5crTdXV1oY4uz175LkUENAjNzc0vwNShqKgo+vr160HMvftCIQIygpH61NTUrFqzZk2dvQp113w7duzY88UXX+ygSYC5OWuisAHdZmRkxCUmJuZOVB2sleuyREA3XKvVLiguLo4pLS2NIXsUIGZAOh8ZlZlBRToNLQ/SkbzjDTrSZcL38vLyNRERERprisPrP0Xg8uXLQStWrKh/8OCB5UlRxBNkI/zRlp7twZSM+GxBaiIvJSXlyJEjR1Ltke+sPG5BBDSYGo3m32H6oNFoom/evPnk8WJk/RmmD7AMSW9fJjEF+kgzvhTEJILS0tK1b731VhVf8t1JDmzUiY6OzmMeWgoY0ztT+T6rgiYWKJvc/AY2NWfOnI62trZ5YrHY8pw8ob7cjghoRVRWVr5eWFgYBTc7PXjwQEZfIwEeepmSBBzJ2jAfNzUxiaCkpOT369atKxeqwQi9Xtu2bdu7b9++bSPLdT97NsXI3X+WPRN87dEgG8HY9jE0NDQsCA4OviJ03NyaCGjllJWVvaVUKqNPnDixATonrD7QIwnbbj8+jkNjEkFBQcHbkZGRpUI3HCHXb+nSpWe0Wu1yQtjE22OeTM23Z8A8WOabb77ZuGnTpsNCxorUDYmAoSWz2SzNzs6GPQpRVVVVb7KN+jCaQGyAjzPzmUSQm5u7PjY29thkMB4h19Hb2/vR0NCQD1lFABIgT6nm814T+vZ4Ok6wdu3a6srKynAhY0TXDYlgDE3du3dvWnFx8buwHAnnJNJBKPjOx4YVJhFkZ2dHxcXFFUwWAxJyPcPCwr4lJ1uxHWPP55kVxBbAy0hNTd3z9ddf7xQyNsy6IRFw1BY8SKOkpCQqJycn9vLly6+CEfG9BAkubEZGxntJSUlKjtXCZFYQyMzMjEpOTs4n0wS+tx1DxwdbgACht7e3ac+ePfGbN2+edPpDIrCjK7W1tb0AQUbwFK5cuRJkhwjWLEAE6enpCe+//342XzJRjkik1WoXbd68+XBzc3Mwmerx4c3R2IaEhJzbvXv3ppCQkEuTEXMkgnFq7dKlS/Nh2Qo2Lul0ujkgjnb3SUCRGVikA1X0NYVC8X5ycrJinNXC7AwEdDrdlN27d+/Oz89P7O3ttcQOngTKxOKf3IdC38pMdMm2WxHSBQUFXUlOTs7evn37l5P5Ri4kAh67TENDw2vZ2dlwd+S7XV1dvmRnG/kkxgRGCC4quSeCfIfRau/evRvh6T08VgtFUQh0d3dPVSgUG4uKihKampp+TZ+XAMlogqCfW0iDCPoMDw+viIyMzHKVwC4SgYO6SVVV1arCwsLosrKyqPv3708FA6MPz4Bi6U1LxAD37dv3p23bth1wULVQLIVAdXX1UoVCsbm9vf03HR0dM/v7+y2HisJqEB1LmD17dk9AQECbr6+vbu7cuTffeOON0mXLlgny5iF7FYxEYC9yNuRTq9URx48fh41L6+FxYfB0XCAFMDb6HghwNb/88sutW7ZsEeSjs21o8qRN2tbW5mkymaYPDQ35ymSyu/PmzftBiOcH8A0wEgHfiFqRl5mZGQleQnl5+e/hOYDk6HVwUYEU0tLS/nPXrl1fOLlaWJybI4BEMEEGcOvWLa/q6uqooqKiqFOnTlluT4U56c6dO//86aefpk1QtbBYN0UAiUAAir9169Yvjh07BqQQExERUfnxxx//jwCqhVVwIwSQCASm7I6Ojueef/75GwKrFlbHxRFAInBxBWPzEAEuCCARcEEJ0yACLo4AEoGLKxibhwhwQQCJgAtKmAYRcHEEkAhcXMHYPESACwJIBFxQwjSIgIsjgETg4grG5iECXBBAIuCCEqZBBFwcASQCF1cwNg8R4IIAEgEXlDANIuDiCCARuLiCsXmIABcEkAi4oIRpEAEXR+D/Aba+sfvzItDUAAAAAElFTkSuQmCC;rotation=-84;" parent="1" vertex="1">
          <mxGeometry x="558.4044227664784" y="480.0044227664784" width="51.6" height="20" as="geometry" />
        </mxCell>
        <mxCell id="3lv9teBUK3wyE5GDYHUk-22" value="SmartLight State" style="text;strokeColor=none;align=center;fillColor=none;html=1;verticalAlign=middle;whiteSpace=wrap;rounded=0;" parent="1" vertex="1">
          <mxGeometry x="600" y="475" width="90" height="30" as="geometry" />
        </mxCell>
        <mxCell id="3lv9teBUK3wyE5GDYHUk-24" value="" style="shape=image;verticalLabelPosition=bottom;labelBackgroundColor=default;verticalAlign=top;aspect=fixed;imageAspect=0;image=data:image/png,iVBORw0KGgoAAAANSUhEUgAAANsAAABtCAYAAAAoEBQoAAAAAXNSR0IArs4c6QAAFdJJREFUeF7tXQtUk1e2BrRaBbW2tVJRUQLLSqUKVpFBRaWCz4DIIyHUoEGQIL5GW23xQa1tZ3TJzMWEhyLgI1pzZ6pznWHEt6iMLq7Lq4s714ojl9Fa9c5SL+ID1Ny7I7vr9J9EAvyPhOx/LVZC/vOfvc+3z3ce++xzflcXuggBQkAUBFxFkUJCCAFCwIXIRpWAEBAJASKbSECTGEKAyEZ1gBAQCQEim0hAkxhCgMhGdYAQEAkBIptIQJMYQoDIRnWAEBAJASKbSECTGEKAyEZ1gBAQCQEim0hAkxhCgMhGdYAQEAkBIptIQJMYQoDIRnWAEBAJASKbSECTGEKAyEZ1gBAQCQEim0hAkxhCgMhGdYAQEAkBIptIQJMYQoDIRnWAEBAJASKbSECTGEKAyEZ1gBAQCQEim0hAkxhCgMhGdYAQEAkBIptIQJMYQoDIRnWAEBAJASKbSECTGEKAyEZ1gBAQCQEim0hACyEmLy9v3ogRIy6GhIRcECJ/ypNfBIhs/OIpam5bt26dO3/+/O0BAQGXExISdiUkJBj8/PxuiKoECbMZAYcgW3V1dZfHjx8Peeutt+4OHjz4R5tL18ET5ubmzl22bNn2pqYmc0nd3NxcQkNDTyiVyt3p6eklrq6uzzo4BA5VPLsj25YtW1IuXbo0oq6ubvAPP/zg9/333/s9f/7cBStU586dXby8vOpkMtnV/v37X/f29v67QqEwvP/++zUOhTwPyur1+rmZmZnbAR9XV1cXk8nk0qVLF5fGxkaX1157zUUul3+rVqv3yOXyAzyIoyzaiYBdkK2iomL4gQMH5uzatWvO7du334ZKw72g1Ybf8R5ULiAeVDT4LTExcQ8Mo+Ry+cF2YuIwj8OcTavVFoHCgAXbw7148cJMOPjN09PzcVxcXJFKpdo9ZsyYvzhMATuYopKSrbS0NMFoNM45ePDgNC6ur7/+usuTJ0/MQyP2YgmHQyeoWJAOPkNDQ6umTZu297PPPvuNq6vr8w5mr58VR6fTaTIyMrbBj506dTKXH/ABkj179sz8HXs8xGfYsGE1SqWyZMaMGYbhw4df78j42FvZJCNbZmZmrl6vXwg9E7TKUCmwZUaiWQML0sJlqQfEYVRISEhlTk5O5pgxY/7d3kDnSx+9Xp+SmZm5FTCEC3syJB8QDDAFfAErHG7CfcBw/PjxlSqVqmTChAmlfn5+T/nSi/KxjIAkZPvoo4+OHDlyJByNjqTx8PBwefjwoVlTdpjITQctOHthJevevbvLo0ePzLfge1NTU6NOp0tLTU0t6YgVQKfTzc/IyCgEMkFP1tLFkhEJiUSNj483JiUl7ab5XUsotv2+qGSrqqoaGBISUtvU1OSKwxoc5kAR2DmYLRUIhk5AVC75sHdDWFauXJnzzTffLGs7TPb5pF6vT9VqtQUsiXCUACQCXLp27ery9Ok/d1pswwbPwwW9YO/evR9pNJrt0dHRu8eOHUvzOx5NLxrZsrKyPt2wYcPXJpPJLJMlBBAPSAcVhOsIwV4N08D/UImQYOyQEtIAAaHSIJkRq7CwsPKTJ09G8oid5Fnl5eWlabXafHZuxioFWOAwHb4D6bBxw3tsepwfI7YBAQH/mZCQsHv69OmGwMDAWskL7OAKiEK2kydPBoSFhf2Hm5ubK9fBgT0YtK7YGiNRuMa3hrW14RESF54DuevXr1+zevXq9Q5us5/UB7JlZGTko4MIGyLAlG2Q8AHEGokGxAOMcCjJDi1ZMsKQPDAw8HhycvLulJQUWL/r0I4noeqHKGR744036u/fv+/BNS77P7cnYgvMDi/hd5aMUKm4HjccOrF54vfDhw9PmTx58iGhABUzXyBbenp6vtAyWeLBiEQul+9RKpV7Z8+e/QehZXek/AUn29SpU/9YVlY2jZ2bsb0YgokGBWOi1wwm/ezcjtsKs8NR7jwNW2kgI+QNeaEOV65cGTpkyJD/cnRDikU2dgiPw1LArlevXg1KpXL77NmzDRMnTqT5XQsVSlCyrV+/fsXq1at/DcZConDd9UA8uGdpEu/l5VUfEBBwbuTIkeeHDh16+unTp/3Pnz8fUlFRMb6mpkYGkRJsT4ceTFxCQHLh8Al70pCQkLP79u2b3K9fv5euSwe9xCAb20giTOyIARoyuIYOHfrXpKQkAzhW3nvvPVq/s1CnBCNbVVXV26NHj76LhoEehu19wIjY46BeSIbFixdvSk5OLvrggw+s9j5Xr17t/9133ylWrly5EWRAz8XO3SAv+MNIClzkBVnwu0ajyd+2bVu6g/LMrDa6/sUoA3e+x8pkyQdrpMHBwadgGSElJaXY1dX1ZeAmXS6CkW358uVfbNq0aTWLMRvlgMZDJwbc8/DwaNi/f//UCRMmVNhqm9OnT4+ByPeampqh2KPBnA16PW4vyhLQ19f34dWrV99w5Mk+LGprtdqttmLVlnRc5xMSi/V04hof6w0GWUC8WbNm7YuLizPExMQ4fXymYGQbNGhQ3a1btwbA8BCMAEaD71xnB1aA+Pj43fv27UtqS4WAZ5YvX/5Vbm7uKnY4Cj0pEA5ICPLhO7v4W1BQkJaWllbYVplSPycG2bhlRPKxvRnYFP7HYb2lXs/Ly6shOjq6CDyao0aNOi81dlLIF4RsRUVFGo1G81PMHuta5vZ0cC86OvrE/v37J7YXAIPBEK1Sqb6DHgx6t8ePH5uzhO9AOFw/Qm/lpEmTKo4dOza+vXKleh4XtYWUb2l5AOThsgw0YFzHFXfJBed1uI7q7+9/OTExEeZ3pf7+/reE1N+e8haEbCEhIScrKyvHc4eNuLCKxoLK7+7u7tLQ0MCbHitWrNi4cePG5WyFYCNM2MgUqEg3btwY6OXl9Xd7Moqtuuj1+gVarTbP1vRtTccuteD8mF2rg3xxyM72eBhwYO0+pA0PDz8MC+cpKSmlbdXPUZ7jrZJjgU+ePPmLsLCwMywA7Lif68natGnToqVLl+byCVhwcPC58+fPj7YUqMyVk52dvW7t2rXZfMoXK6+CgoL0tLQ0vVjyhJCDdaNTp04m6O1gGSE6OvpPQsiSOk/eyVZSUqJKTk7eBQVj3cbsOhrMm6C3mTNnzs4dO3bM4RuEo0eP/iI8PPzMqxbKUWa3bt1cYKvJo0ePILrZrXPnzoCJW1NTU6dOnTq5NYeXwT4fiH5xc33ZXFvDzQSXq6sr5PXTn8lket78G2zUg/vmDXuQtlkP+PxZns1yzLfd3EAN83YZ0/Pnz02AX/fu3U21tbX979696843flLnN3DgwP+JiYnZFRsbC/GZVVLrw5d83sm2Zs2aVV988cVXqCAuiHLnbdCibdu2TaFWq7/lqzBsPoMHD667fv36gJbyflXAs6U1ppbyE/M+11Mopmy+ZCHGuAePO//z9/e/qFaroccr9fX1vcOXXCny4Z1sCxYsyM/Pz09DENkJNjcOEo488PX1FeQ4A7lc/ueDBw9GcncEcEHG3g8jVzB6BR0A1pw7YhkL9WPXuWCUYMnzJ5ZOQshh54WQP+u9xuifCRMmHJo3b57h448/3iGEDkLnyTvZIiIiysvLyydzh3Dsuhrc69at2536+vq+QhUwJSXlt0VFRYtamrdZi4K3FBUvlK625MvubmgeWv7T1iJb8rHXNNgowye7PGPJDh4eHs+io6MNSqVyz/Tp0/9sr2Xi6sU72by8vK7dvHnTBysERvlzh2RxcXEHjUbjTKGAys/P1yxYsMC8/NDSZWkfHTYWrEetpXyEuI9RMJA3uzfNUiyoEPKFztPankTuArmFdOb57jvvvHMzPj5+p1qt3jZq1Ki/Ca1ve/LnnWzu7u6mhoYGs07caHwMQIZ74AVcvXq1YF7AsrKyUTNmzDhv6zAQo0vQtQ2f+L09ALf3WbZlx8gYxLWlXru9ssV8nm2M2S1C3CAIdnMsOIxw8zB8Dw0N3R8bG7t3yZIlRjF1t1UW72Tr169fze3bt2Xs8WqoDC52AkBTp049VFZWNsVWRVubzta4QUsOEmutbWt14Cs9u16JIwZ2axFfcqTIBxsTNmwPh5HsPSAjp+E092wymeyviYmJO2fNmlUUFBR0V4oy2CqTd7JNnDjx0PHjxyPYSsyt0OBu79q16//ev3+/l62KtjbdwoULc7ds2bIQnmMdM+xxbzjEtbaZ0palg9bq1dr0lhxNrc1D6vTc+Sb3f+5mV7ZRZgmHzq4333zzXlxc3B6FQrHTkbb28E42jUaj2759u5Yd4lhzQly+fHl4QEDAJSEqw7hx445UVlaGQyvJkh29jGg49uQpHPrCfIgN7xJCP1vz5FZMbi9naz72kI6LPTvVwB4bvZBsD97cYJpmzpxpVKlUsP72b/ZQntbqwDvZsrOzV6xdu/bXlhSBig0XbofR6XSpqampgkStv/vuu7du3brlCfLYYSFbebnRLEAyjKdE/aV2kLCnHLOVk9tItNbwYqVn55xsj8WS6VUNSGho6ClwgCxevNgmZ5dY5WqLHN7JVlhYGJ+amvotes7YbS1cBceNG3e6oqJiXFsUf9UzxcXFMampqb/DIaOltOhq7tu3L2x8vNjY2AhhGi8aGxtNPXr0cHv27Jk5auTFixfmTwjkaP5EzNhIEvyOnxBpYo4+aZ7Ew/wCIkrg7A78xO/mSBMrUSUQLWLq2rWrOTIFvkPgSXMUyrPa2lrZjRs3+vGNH5/5WQsMgN+RZOxaKDR4Pj4+NbGxsSUxMTHFQUFBP/Cpj5R58U62U6dOjQ4LCzvHDiO5Dge2R8nKytrw5ZdfZvEJQu/evR88ePCgp6XTk1EvGK7AwvC6deuy1/3/xad8sfIqKSmZm5ycvF0see2R01I0Tp8+fZ5PmzatUK1Wl06aNOlce2TZ67O8kw0KOnbs2GOnT5+eyB5HgMet4fABFy+b15G68LWjNz4+vsRoNKq5ZGe9o6xD5Nq1a4N8fHz+214N9Cq9cnJykpcuXVrsSLoD9kg86NFmzZq1PzExsTQ2Nna/I5WjLboKQjadTjcnMzOzFA/bsXSQKtvSwZkglZWVoW0pAPvM1q1bY+bPn/876DmB6BjSxI1CQNnh4eHHjx49Oqm9cqV6vqCgQJ2WlmbXpz1znSJgi5EjR15UqVTbFi1alNccoC0VhKLKFYRsUAJvb++/wWuf2B6GDdnCdROs+ImJiTsMBoO6raX/9NNP1+fk5GQBwVjvJ+SH6zNsVAgYPTc3NzU9PV0QB01by9Ga5xyBbGgLPz+/+wqFYotCoSh1xtd7gV0FI9vnn3++ZsOGDdkINvfMEQxDYudzPXv2/IfRaJRHRkaetbXSweumli1bVlJVVTWCzROHjehNxEk4Rsr37dv33u3bt9+0VY49ptPr9WqtVtvuno27vIBl5QZBw+84SuB+wj022gNwhjNIEhMTi2JiYnZERkaeskcMxdRJMLJduHDBOzg4+Dqc688aj91Gzz1tCxa74cUYn3zyya9iY2N3jh49utoaGNXV1Z7l5eVxS5cu/Rc2DXoZ8XxDjEbgvhlHq9Vu0ev1mWKCzbcsPsjGXYMEErFeXNaZxWKIa5FgT25IWVhY2J9SU1NhHraP7zI7cn6CkQ1Ayc7O/uXatWs3cSME0O3Lnspk6egCMPSgQYOuBAYGXvX19b107969t6uqqobV1tYOq6+v74ln+uMZI3ioK8Y0cltfJHdYWNjZEydOjEV3u6MaUKfTJWdkZLTbQQI4scNttA8Ov4FQuJRjaQ8d2DcoKKgmKSkpNz4+vsjT0/NlcCxdP0NAULKBpMjIyIOHDh2ajkMQ1qjwHQmAUd7s+Y7QkrKv+OXajhtOxa7psWFOOLxEedXV1b5+fn7XHL0u8EU2tA3Oo3GebWmoCGkxINrHx8dFpVL9Si6X7/7www8vOzqeQusvONmgAO7u7g8bGhrckRxs9Dr0aNzYSUuvOQLDW9s0iS0xfLIvVIRj7VgHDRDbaDRGREVFHRYaWDHyh3dqa7Xadq2zWdpJz0ansLGJkLZHjx4uUVFRpRD8GxERcVSMcnYUGaKQraysLCQqKuos6ylE4llrPS0FoLKg41YLbpQIDHOAwDgEwsk/yIPF81WrVm3oKMbjs2eztOjMjg5mzJhRHhMTUzp37lxDR8FP7HKIQjYoFJxN8vXXX3+F5ABnCDcOEXo0IIm1nbrcuR/ky31JB1tpWAfMpEmTDh87dixCbICFlMcH2dhRBAzboUGExgpeliiTyWo1Gs1vp0+fXiyTyR4IWRZnyFs0sgGYZ86cGTZ+/PhLEDOIZ/BjD8S+3BCGftyhJTs/s7Sxkw1m5Qa/LlmyZPPmzZt/2dEMygfZABMWa5lM9kyhUGxSKBR7hNqR0dHsYGt5RCUbKPXjjz+6JyQk/P7UqVMR6LjA3oj7YgwM8bK2IxnTc93X+BzcLywsTIZ4O1sBcaR0SDZuQ4QNF4ZG4S4LPH6dO2SEYOyIiAg4GtwQHh5+zJEwcCRdRScbgpOenp6Tl5e3BP/nvhcaT1Rit2XgGh08gxXK0gQf7gcHB1du3rxZGxoaetGRDNIaXcFBsnDhwu3YGMEnHglnrYFivb/wsnqlUmlISEig9bDWAN/GtJKRDfTdu3evori4WFVeXj4DF0cxQBnuW9spzV0XgrT4Eo0RI0ZciIqK2p2VlbW5jZg4zGM6nU6TkZFh3ufFvoSedQrBMB0JBmn8/f3/olard8bFxRUPGDDg5csQ6BIFAUnJhiU8c+bMCKPRqDIYDKo7d+68y6043JArS8ioVCpDVFSUIT4+/o+iIGcHQuAtNsuWLdv65MkTszY4V0Vy4XDR29v7ulKp3BUXF7dj5MiRgpzTaQdw2L0KdkE2RMlkMr1WWFioPnfu3Ii6urpBdXV1PnV1dX5NTU2d0ZEC3jNPT8+bQ4YMuQKVaMCAAXWwk9cZ33aJr4zCnh4PAYLPPn36PJ45c+ZOpVK5c/LkyaftviY6gYJ2RTZreF+7dq1XfX29T48ePf4hk8nqnMAuNhURXhm1ZMmSAvZ05ClTphxISkralZSU9K82ZUKJREPAIcgmGhoOJgiP6wsKCjqr0Wh2y+VymofZsQ2JbHZsnJZUy8vLmzdmzJhjgYGBtS2lpfvSI0Bkk94GpIGTIEBkcxJDUzGlR4DIJr0NSAMnQYDI5iSGpmJKjwCRTXobkAZOggCRzUkMTcWUHgEim/Q2IA2cBAEim5MYmoopPQJENultQBo4CQJENicxNBVTegSIbNLbgDRwEgSIbE5iaCqm9AgQ2aS3AWngJAgQ2ZzE0FRM6REgsklvA9LASRAgsjmJoamY0iNAZJPeBqSBkyBAZHMSQ1MxpUeAyCa9DUgDJ0GAyOYkhqZiSo8AkU16G5AGToIAkc1JDE3FlB4BIpv0NiANnAQBIpuTGJqKKT0CRDbpbUAaOAkCRDYnMTQVU3oEiGzS24A0cBIEiGxOYmgqpvQIENmktwFp4CQI/B8z3f4EmFO1ZAAAAABJRU5ErkJggg==;rotation=-55;" parent="1" vertex="1">
          <mxGeometry x="109.99502477528651" y="499.99748292690464" width="60.45" height="30.08" as="geometry" />
        </mxCell>
        <mxCell id="3lv9teBUK3wyE5GDYHUk-25" value="Light amount" style="text;strokeColor=none;align=center;fillColor=none;html=1;verticalAlign=middle;whiteSpace=wrap;rounded=0;" parent="1" vertex="1">
          <mxGeometry x="140" y="510" width="90" height="30" as="geometry" />
        </mxCell>
        <mxCell id="3lv9teBUK3wyE5GDYHUk-27" value="Light state" style="text;strokeColor=none;align=center;fillColor=none;html=1;verticalAlign=middle;whiteSpace=wrap;rounded=0;" parent="1" vertex="1">
          <mxGeometry x="190" y="450" width="60" height="30" as="geometry" />
        </mxCell>
        <mxCell id="3lv9teBUK3wyE5GDYHUk-29" value="Motion state" style="text;strokeColor=none;align=center;fillColor=none;html=1;verticalAlign=middle;whiteSpace=wrap;rounded=0;" parent="1" vertex="1">
          <mxGeometry x="287.25" y="505" width="99.55" height="30" as="geometry" />
        </mxCell>
        <mxCell id="3lv9teBUK3wyE5GDYHUk-30" value="" style="shape=image;verticalLabelPosition=bottom;labelBackgroundColor=default;verticalAlign=top;aspect=fixed;imageAspect=0;image=data:image/png,iVBORw0KGgoAAAANSUhEUgAAAQIAAABkCAYAAABtlT6jAAAAAXNSR0IArs4c6QAAFGZJREFUeF7tXXtQVEe6nycIEpPadUXqaiIJEaLrGhOJdcX1FQy4oTZms0p4hGcgavZq1GvVdVO38sfNFhVjNFmjUWSQx8AAo4AgAWQk6LKzRrgqItZFhEFNCcRXiTyd161vlnY7JwfmzHBmOMx8UzU1j9P9dffv+/rXX3/dp49YhC9EABFwewTEbo8AAoAIIAIiJAI0AkQAEUAiQBtABBABERIBGgEigAggEaANIAKIgAiJAI0AEUAEkAjQBhABRAAQwFUDtANEABFAIkAbQAQQAfQI0AYQAUQApwZoA4gAIoAxArQBRAARsCCAwUI0BEQAEUAiQBtABBAB9AjQBhABRACnBmgDiAAigDECtAFEABHAYCHaACKACPwTAVw1QEtABBABJAK0AUQAEUCPAG0AEUAEcGqANoAIIAIYI0AbQAQQAQwWog0gAogArhqgDSACiMAIArh8iKaACCACuHyINoAIIAK4fIg2gAggArh8iDaACCACuHyINoAIIAK4fIg2gAggArh8iDaACCACuHyINoAIIAIEAdxHgLaACCACuI8AbQARQARwHwHaACKACOA+AmHYwO3bt73VanXy8ePH3zl79uxKYdQKa+FOCGCMYAK1XVFREZ6ZmZlQXV29oa+vT7x06dIGrVb72gRWya2K7unp8a2vr1/S0dExp7Oz84Xu7u7nr1+/7n/jxo3nZDKZyM/P70ZAQED7s88+2+7v798RFBSkCwwMPO3v7z/kakAhEThZoy0tLQFZWVnJxcXFCe3t7TPB4AwGg2jKlCmil156qenixYsvO7lKblfc+fPngzMyMhILCwvfe/jwoY9IJDKDdywWi0VmM3z950sqlYqMRiNcsPyGa97e3qLw8PCCDz74IDMsLKzGVcBDInCCJs1ms0SpVMbv378/6cKFCyEGg8GCu0QiEZlMpic1WLhwYUtTU9OvnVAltywiPz9/Q0FBQUJZWVk4W8dnA4UmB0IMkA4IYcaMGTcSEhJyIyIi8hYvXvx/kxlUJAIHaq+mpmaZSqVKKioqerevr8/rqaeeEj169MhSIngAQ0M/9TAXLFhwrbm5OdCBVXJL0V1dXb9KSUnJrKioeNNsNlts3sfHR9TX12cVD7rzMxPL5XKRXq8XPf300w8///zznampqUesChRoAiQCnhXT0dHhW1hYmJSenh5/+/btucPDwz9zOUmRTI9g3rx5HVevXn2B5yq5tbhz5869un79+mPd3d1zoNMy3X8u4DDz0HqDqR14dfCOiYnJzcvLi+MiU2hpkAh40khhYeEGpVKZUFVVFQ4GJ5VKxTC/ZL48PDxEjx8/tvxNf4ffgYGBN1tbW5/jqUpuL6akpGTd22+/XQzTABjZoUNDPAZe8B06NJuOmMAx08JvQg4kpkA8vICAgA6tVrtwxowZ1t0NAWkIiWAcytBqtYtUKlVydnZ2TG9v79Nk3kkMjcz/weCg0w8PD1sCTmBE4FYSQiBG5e/vf1un0/3bOKqEWUcQiI2NzVUqlTEymcxi44QA4Ds9inMBjHR8Op4D+UCv8CL/k3QSicR85syZV0JCQi5xkS+ENEgENmrhxx9/9CkoKEgqKSlJ/O67714mowV0cDAMYnAwAoGBMEcdMjIRd5IYFPyeNWvWjz/88IOvjVXC5AwEtm/f/tf9+/f/B+iCXgWgvTDQC62v0UCkpwGjEQJZ+aF1CWRw//79Xz7zzDMPJoOCkAg4aqmsrGxtZmZmYmVl5R9hZIfR39PT0+Ja0u4mGB4diCLBJviEN/EC2IzHz8/vfldX1y85VgmTsSCg0WjWhIaGnqIvQWcGvYC+IEDLnJKNBSSTCIgspndAiJ8mixdffPHatWvXJkXwF4lgDCu4evXqi3l5eUkKhSLuzp07fhBxBgNgCziRjk0bDiEB2oWk16SJHJLH19f3UU9PzzTs4fYjMH369Nv37t3zA31ArIYZkKUxB3JgegxsJdM6Y14nxEDLIWWA/uPi4o4ePXo0yf4WOScnEgEDZ7PZLFepVLEHDx6Mr6+vX+6sbdhgUD4+PkO9vb1ezlG965Wybt26vIqKimgyJRhr6c9ZrQdC2rJly2d79+79L2eVaU85SAQjqNXV1f0WmLu0tDTq4cOHnvA37b7bA64teWAUmTp16uO+vj5L2fiyDQHw2lJTU7NBZyNTN9sEOCg18Q5qa2uXrV69+u8OKmbcYt2aCHQ63UylUplYUlISf+HChbkw+hNXDxTInAeOG20rAry9vQ0DAwNyR5fjivKXL19ed/bs2RXQNtAd7Pzr7+8XRFPBM0lOTk5PT0//QBAVYqmEWxIBrPlnZGTE19bWrjUajU8woD0AWwJK41EuHW/w9PQ0DQ8PS8cjzx3zgjf3+uuvnyExHIKBPZuH+MYP6gBBSk9Pz6GWlpZZs2bNusd3GXzIcxsiaGxsfOXgwYOw7Pdeb2/vNBjtIcDjTPefTWG0scrlcpNer0cisNGyo6Ojs/Pz8y07+giBA64wEtP7B2wUy2tysLPPPvts644dO/7Kq2CehLk0EZA1f9jxd/78+UXM4BEd6ScRZEgD30dbHeAJ9ydi6Ij0SP1cWid84wdbugMDA7v0er1lWkemc2z3cvBdNhd54A3AkjHYVHBw8IWGhoZXueRzdhqXNLra2trfHTp0KFGtVr8D7iLdudnIgN7cM9rdZo5UDClzJC4hEYvF/7oX1pEFu4DsXbt2/SUtLe3PhFDpdX7m0uFENZdeRtZoNCtXr159ZqLqMlq5LkMETU1NgXl5edD543Q6nR8JGpFNJEwArMUAnDm/JAYLBGAymTzFYrFeaIbCd33g1mxYmOns7JRMnTpVJpPJpAMDA7LHjx/LTCaTh8lkkhuNRtnw8LDcZDKR/6V6vV5mMBgsb5PJJP7oo48Ot7a2/uRGLVvuI+C7XUx5tNcJ1w4fPpyUkpJy1NHl2ip/UhOB2WyWwbJRTk5OQn19/W9pd14oo4E1hdD19PDwMJ86dWqJl5cX3JUEHUEyODgoE4vFcjB86BjQUeATOofRaJQODw/LYO8DxBbgf0g30lmk0JlGOpYlrV6vt/w2GAzQuaSA3+DgoBw+RzqW5brRaLSUB/+DfJAL+YlsuA6/4frQ0JAlncFggOtP6gm/TSaTZGhoSAJlwRkMkIcOzo6TbInXJGgbZrZx165dn6alpf23Nbtw9nVBgzgaGKdPn16uUCiSjx07FgdzL7KDDEAnd5NZG/GdDfRY5TGnIyRGQbwa+BxtB9xYu94gH5kW0TKYu+DGkm8tvzUcSX6uu/isyZuM12n9xsXFqXJycqKF1o5JQwSw5p+bm5uUm5ub2NbWFsAEkrmNdyL2AdirXGIoMI2BzTB0zICWSTo9+YRrbLfR0te5bKEdqwyueynY6kYTMymDrttYBGQvlkLMR3t9ixcv/t/GxsbFQqun4IkgKytrg0qlggM+1wJ45FQYMtqRZUDa0IjxT/TSIFdl0/X08vKyeDiw7MWl/iQ4RpdFd35CkOQ6GzGMRRZ8dVymHHchAWgnTQTTp09/ePfu3We42oaz0gmSCBoaGhbBnX4qlSq+v79/GlkLJgbLDAbBNABeZIow2kjpLFBtLQfcZ3hBu+h1b7ZOTtKRMpgjtr0dl5mP/GbzCNg8Dlvy24rPZE9PEwHseBwYGBBcvxNMhdra2qadOHEiHs74a2lpeZl5np8th0lAWiANLqfPCMnI6CkBH1Ob0YJxXKcObPltIZpxBgOFpBre6jJz5sy73d3dv+JNIE+CJpwI4Gz/I0eOJFRWVkYybxaBkRJG+8HBwSfNJaMn/EGfDEMfRUWfDMR1jssTnjaLgdGCBNTAG6CnPvToby1YOJrrb63jWgs2WuvM1vKzAcKViGwGU8AZCI6LFi26evHixflCq+qEEgHc75+bmxt18uTJDc3NzfNpo2IeCEHuLycAUmvvP4uogxw+RlRnKYv2BCZy27Oj5/HWSMVZeDuzHNJmYq+hoaF1Go1mlTPrwKWsCSUCuoLwYA+lUhlbXFwcqdPpZrGNhvQ+ctJhyK5AZtxgrMbTOw25gOToNDRxsR2kAeXbGv0ndbbmETijbcwybGkLl/qzeSVCIR0myUdFRalUKhUuH3IxvHPnzi3LysqKLikpiezp6fkF5GFG0JlMSxs+vWpApgZs69hCOLiCxoPsj7fXo7FnRCdTLYIZ85NedWBeg7pb22dgbRpA56cJj5RFB0zZCIRMpcggwXZiEBebc2Qaerq3devWfV999dV2R5Znj2zBeASjVb68vPyNoqKiGCAFcmgHGTUJwLD+Dh0eVg2IcY61vk4b2UTHEOh96CN1MY+QnBjax3YApz2KHi0PlA94AtFCeXAHpFwu18tkMr1EIjFIpVKjVCrVw9vDw8Mgl8uNcF0ulxvEYrFBIpEYYUs0/Ofh4QH5LNdJHkgP16n8BplMBm+SBs58J3lBvuUN10E+lAmfJI+Hh4cR/oO6yeXyxwcOHNh08uTJd6B9bMfE8YmVPbJobwUwVigUKfHx8Rn2yHJkHsETAd14tVr9B7VaHQ1PDR5tRYD2HEgno91EcsikLe6pIxXAkG3+5JNP/jJ79uxr0AGhY4Hhjxg9dBzoEEboFNCxoMNAR4SOAZ3Jy8vLch3SwTWDwWCcMmWKEf6H73q93ujn5wfPWLN0Lie2y2FF1dTUvBkWFnaS7ajxiSZ52ksFkjUajUaDweAhFov/9Zw7hyFjm+BJRQSkabC3PScn510ghW+//day0YjN9SduLXwCcbAdMGkbXPynZkwDzN9///1rS5YsaeS/JNeVOH/+/PM3b94MhsfJkd2Z0FouG7KcicrGjRszDh06lOLMMrmWNSmJgG7cnTt3nlKr1VH5+fnRjY2NK2D/Ab2USNLSW5DHmj5wBY7PdDQZ1NXVLV25cuU/+JTv6rIOHDjwpw8//HA/tFMoQUIac/AGwDvRaDTBq1atEiTJT3oioAHv7Oz0y8/PjyooKIhpbW19BfYl0CMEfSOSUAKFzFFLo9EsDw0N/Zurd14+2wcH0CxcuLC9u7t7Bnh9tqwg8VkPNlkkbrFy5crTdXV1oY4uz175LkUENAjNzc0vwNShqKgo+vr160HMvftCIQIygpH61NTUrFqzZk2dvQp113w7duzY88UXX+ygSYC5OWuisAHdZmRkxCUmJuZOVB2sleuyREA3XKvVLiguLo4pLS2NIXsUIGZAOh8ZlZlBRToNLQ/SkbzjDTrSZcL38vLyNRERERprisPrP0Xg8uXLQStWrKh/8OCB5UlRxBNkI/zRlp7twZSM+GxBaiIvJSXlyJEjR1Ltke+sPG5BBDSYGo3m32H6oNFoom/evPnk8WJk/RmmD7AMSW9fJjEF+kgzvhTEJILS0tK1b731VhVf8t1JDmzUiY6OzmMeWgoY0ztT+T6rgiYWKJvc/AY2NWfOnI62trZ5YrHY8pw8ob7cjghoRVRWVr5eWFgYBTc7PXjwQEZfIwEeepmSBBzJ2jAfNzUxiaCkpOT369atKxeqwQi9Xtu2bdu7b9++bSPLdT97NsXI3X+WPRN87dEgG8HY9jE0NDQsCA4OviJ03NyaCGjllJWVvaVUKqNPnDixATonrD7QIwnbbj8+jkNjEkFBQcHbkZGRpUI3HCHXb+nSpWe0Wu1yQtjE22OeTM23Z8A8WOabb77ZuGnTpsNCxorUDYmAoSWz2SzNzs6GPQpRVVVVb7KN+jCaQGyAjzPzmUSQm5u7PjY29thkMB4h19Hb2/vR0NCQD1lFABIgT6nm814T+vZ4Ok6wdu3a6srKynAhY0TXDYlgDE3du3dvWnFx8buwHAnnJNJBKPjOx4YVJhFkZ2dHxcXFFUwWAxJyPcPCwr4lJ1uxHWPP55kVxBbAy0hNTd3z9ddf7xQyNsy6IRFw1BY8SKOkpCQqJycn9vLly6+CEfG9BAkubEZGxntJSUlKjtXCZFYQyMzMjEpOTs4n0wS+tx1DxwdbgACht7e3ac+ePfGbN2+edPpDIrCjK7W1tb0AQUbwFK5cuRJkhwjWLEAE6enpCe+//342XzJRjkik1WoXbd68+XBzc3Mwmerx4c3R2IaEhJzbvXv3ppCQkEuTEXMkgnFq7dKlS/Nh2Qo2Lul0ujkgjnb3SUCRGVikA1X0NYVC8X5ycrJinNXC7AwEdDrdlN27d+/Oz89P7O3ttcQOngTKxOKf3IdC38pMdMm2WxHSBQUFXUlOTs7evn37l5P5Ri4kAh67TENDw2vZ2dlwd+S7XV1dvmRnG/kkxgRGCC4quSeCfIfRau/evRvh6T08VgtFUQh0d3dPVSgUG4uKihKampp+TZ+XAMlogqCfW0iDCPoMDw+viIyMzHKVwC4SgYO6SVVV1arCwsLosrKyqPv3708FA6MPz4Bi6U1LxAD37dv3p23bth1wULVQLIVAdXX1UoVCsbm9vf03HR0dM/v7+y2HisJqEB1LmD17dk9AQECbr6+vbu7cuTffeOON0mXLlgny5iF7FYxEYC9yNuRTq9URx48fh41L6+FxYfB0XCAFMDb6HghwNb/88sutW7ZsEeSjs21o8qRN2tbW5mkymaYPDQ35ymSyu/PmzftBiOcH8A0wEgHfiFqRl5mZGQleQnl5+e/hOYDk6HVwUYEU0tLS/nPXrl1fOLlaWJybI4BEMEEGcOvWLa/q6uqooqKiqFOnTlluT4U56c6dO//86aefpk1QtbBYN0UAiUAAir9169Yvjh07BqQQExERUfnxxx//jwCqhVVwIwSQCASm7I6Ojueef/75GwKrFlbHxRFAInBxBWPzEAEuCCARcEEJ0yACLo4AEoGLKxibhwhwQQCJgAtKmAYRcHEEkAhcXMHYPESACwJIBFxQwjSIgIsjgETg4grG5iECXBBAIuCCEqZBBFwcASQCF1cwNg8R4IIAEgEXlDANIuDiCCARuLiCsXmIABcEkAi4oIRpEAEXR+D/Aba+sfvzItDUAAAAAElFTkSuQmCC;rotation=-135;" parent="1" vertex="1">
          <mxGeometry x="300.22442276647837" y="375.5244227664784" width="51.6" height="20" as="geometry" />
        </mxCell>
        <mxCell id="3lv9teBUK3wyE5GDYHUk-31" value="" style="shape=image;verticalLabelPosition=bottom;labelBackgroundColor=default;verticalAlign=top;aspect=fixed;imageAspect=0;image=data:image/png,iVBORw0KGgoAAAANSUhEUgAAAQIAAABkCAYAAABtlT6jAAAAAXNSR0IArs4c6QAAFGZJREFUeF7tXXtQVEe6nycIEpPadUXqaiIJEaLrGhOJdcX1FQy4oTZms0p4hGcgavZq1GvVdVO38sfNFhVjNFmjUWSQx8AAo4AgAWQk6LKzRrgqItZFhEFNCcRXiTyd161vlnY7JwfmzHBmOMx8UzU1j9P9dffv+/rXX3/dp49YhC9EABFwewTEbo8AAoAIIAIiJAI0AkQAEUAiQBtABBABERIBGgEigAggEaANIAKIgAiJAI0AEUAEkAjQBhABRAAQwFUDtANEABFAIkAbQAQQAfQI0AYQAUQApwZoA4gAIoAxArQBRAARsCCAwUI0BEQAEUAiQBtABBAB9AjQBhABRACnBmgDiAAigDECtAFEABHAYCHaACKACPwTAVw1QEtABBABJAK0AUQAEUCPAG0AEUAEcGqANoAIIAIYI0AbQAQQAQwWog0gAogArhqgDSACiMAIArh8iKaACCACuHyINoAIIAK4fIg2gAggArh8iDaACCACuHyINoAIIAK4fIg2gAggArh8iDaACCACuHyINoAIIAIEAdxHgLaACCACuI8AbQARQARwHwHaACKACOA+AmHYwO3bt73VanXy8ePH3zl79uxKYdQKa+FOCGCMYAK1XVFREZ6ZmZlQXV29oa+vT7x06dIGrVb72gRWya2K7unp8a2vr1/S0dExp7Oz84Xu7u7nr1+/7n/jxo3nZDKZyM/P70ZAQED7s88+2+7v798RFBSkCwwMPO3v7z/kakAhEThZoy0tLQFZWVnJxcXFCe3t7TPB4AwGg2jKlCmil156qenixYsvO7lKblfc+fPngzMyMhILCwvfe/jwoY9IJDKDdywWi0VmM3z950sqlYqMRiNcsPyGa97e3qLw8PCCDz74IDMsLKzGVcBDInCCJs1ms0SpVMbv378/6cKFCyEGg8GCu0QiEZlMpic1WLhwYUtTU9OvnVAltywiPz9/Q0FBQUJZWVk4W8dnA4UmB0IMkA4IYcaMGTcSEhJyIyIi8hYvXvx/kxlUJAIHaq+mpmaZSqVKKioqerevr8/rqaeeEj169MhSIngAQ0M/9TAXLFhwrbm5OdCBVXJL0V1dXb9KSUnJrKioeNNsNlts3sfHR9TX12cVD7rzMxPL5XKRXq8XPf300w8///zznampqUesChRoAiQCnhXT0dHhW1hYmJSenh5/+/btucPDwz9zOUmRTI9g3rx5HVevXn2B5yq5tbhz5869un79+mPd3d1zoNMy3X8u4DDz0HqDqR14dfCOiYnJzcvLi+MiU2hpkAh40khhYeEGpVKZUFVVFQ4GJ5VKxTC/ZL48PDxEjx8/tvxNf4ffgYGBN1tbW5/jqUpuL6akpGTd22+/XQzTABjZoUNDPAZe8B06NJuOmMAx08JvQg4kpkA8vICAgA6tVrtwxowZ1t0NAWkIiWAcytBqtYtUKlVydnZ2TG9v79Nk3kkMjcz/weCg0w8PD1sCTmBE4FYSQiBG5e/vf1un0/3bOKqEWUcQiI2NzVUqlTEymcxi44QA4Ds9inMBjHR8Op4D+UCv8CL/k3QSicR85syZV0JCQi5xkS+ENEgENmrhxx9/9CkoKEgqKSlJ/O67714mowV0cDAMYnAwAoGBMEcdMjIRd5IYFPyeNWvWjz/88IOvjVXC5AwEtm/f/tf9+/f/B+iCXgWgvTDQC62v0UCkpwGjEQJZ+aF1CWRw//79Xz7zzDMPJoOCkAg4aqmsrGxtZmZmYmVl5R9hZIfR39PT0+Ja0u4mGB4diCLBJviEN/EC2IzHz8/vfldX1y85VgmTsSCg0WjWhIaGnqIvQWcGvYC+IEDLnJKNBSSTCIgspndAiJ8mixdffPHatWvXJkXwF4lgDCu4evXqi3l5eUkKhSLuzp07fhBxBgNgCziRjk0bDiEB2oWk16SJHJLH19f3UU9PzzTs4fYjMH369Nv37t3zA31ArIYZkKUxB3JgegxsJdM6Y14nxEDLIWWA/uPi4o4ePXo0yf4WOScnEgEDZ7PZLFepVLEHDx6Mr6+vX+6sbdhgUD4+PkO9vb1ezlG965Wybt26vIqKimgyJRhr6c9ZrQdC2rJly2d79+79L2eVaU85SAQjqNXV1f0WmLu0tDTq4cOHnvA37b7bA64teWAUmTp16uO+vj5L2fiyDQHw2lJTU7NBZyNTN9sEOCg18Q5qa2uXrV69+u8OKmbcYt2aCHQ63UylUplYUlISf+HChbkw+hNXDxTInAeOG20rAry9vQ0DAwNyR5fjivKXL19ed/bs2RXQNtAd7Pzr7+8XRFPBM0lOTk5PT0//QBAVYqmEWxIBrPlnZGTE19bWrjUajU8woD0AWwJK41EuHW/w9PQ0DQ8PS8cjzx3zgjf3+uuvnyExHIKBPZuH+MYP6gBBSk9Pz6GWlpZZs2bNusd3GXzIcxsiaGxsfOXgwYOw7Pdeb2/vNBjtIcDjTPefTWG0scrlcpNer0cisNGyo6Ojs/Pz8y07+giBA64wEtP7B2wUy2tysLPPPvts644dO/7Kq2CehLk0EZA1f9jxd/78+UXM4BEd6ScRZEgD30dbHeAJ9ydi6Ij0SP1cWid84wdbugMDA7v0er1lWkemc2z3cvBdNhd54A3AkjHYVHBw8IWGhoZXueRzdhqXNLra2trfHTp0KFGtVr8D7iLdudnIgN7cM9rdZo5UDClzJC4hEYvF/7oX1pEFu4DsXbt2/SUtLe3PhFDpdX7m0uFENZdeRtZoNCtXr159ZqLqMlq5LkMETU1NgXl5edD543Q6nR8JGpFNJEwArMUAnDm/JAYLBGAymTzFYrFeaIbCd33g1mxYmOns7JRMnTpVJpPJpAMDA7LHjx/LTCaTh8lkkhuNRtnw8LDcZDKR/6V6vV5mMBgsb5PJJP7oo48Ot7a2/uRGLVvuI+C7XUx5tNcJ1w4fPpyUkpJy1NHl2ip/UhOB2WyWwbJRTk5OQn19/W9pd14oo4E1hdD19PDwMJ86dWqJl5cX3JUEHUEyODgoE4vFcjB86BjQUeATOofRaJQODw/LYO8DxBbgf0g30lmk0JlGOpYlrV6vt/w2GAzQuaSA3+DgoBw+RzqW5brRaLSUB/+DfJAL+YlsuA6/4frQ0JAlncFggOtP6gm/TSaTZGhoSAJlwRkMkIcOzo6TbInXJGgbZrZx165dn6alpf23Nbtw9nVBgzgaGKdPn16uUCiSjx07FgdzL7KDDEAnd5NZG/GdDfRY5TGnIyRGQbwa+BxtB9xYu94gH5kW0TKYu+DGkm8tvzUcSX6uu/isyZuM12n9xsXFqXJycqKF1o5JQwSw5p+bm5uUm5ub2NbWFsAEkrmNdyL2AdirXGIoMI2BzTB0zICWSTo9+YRrbLfR0te5bKEdqwyueynY6kYTMymDrttYBGQvlkLMR3t9ixcv/t/GxsbFQqun4IkgKytrg0qlggM+1wJ45FQYMtqRZUDa0IjxT/TSIFdl0/X08vKyeDiw7MWl/iQ4RpdFd35CkOQ6GzGMRRZ8dVymHHchAWgnTQTTp09/ePfu3We42oaz0gmSCBoaGhbBnX4qlSq+v79/GlkLJgbLDAbBNABeZIow2kjpLFBtLQfcZ3hBu+h1b7ZOTtKRMpgjtr0dl5mP/GbzCNg8Dlvy24rPZE9PEwHseBwYGBBcvxNMhdra2qadOHEiHs74a2lpeZl5np8th0lAWiANLqfPCMnI6CkBH1Ob0YJxXKcObPltIZpxBgOFpBre6jJz5sy73d3dv+JNIE+CJpwI4Gz/I0eOJFRWVkYybxaBkRJG+8HBwSfNJaMn/EGfDEMfRUWfDMR1jssTnjaLgdGCBNTAG6CnPvToby1YOJrrb63jWgs2WuvM1vKzAcKViGwGU8AZCI6LFi26evHixflCq+qEEgHc75+bmxt18uTJDc3NzfNpo2IeCEHuLycAUmvvP4uogxw+RlRnKYv2BCZy27Oj5/HWSMVZeDuzHNJmYq+hoaF1Go1mlTPrwKWsCSUCuoLwYA+lUhlbXFwcqdPpZrGNhvQ+ctJhyK5AZtxgrMbTOw25gOToNDRxsR2kAeXbGv0ndbbmETijbcwybGkLl/qzeSVCIR0myUdFRalUKhUuH3IxvHPnzi3LysqKLikpiezp6fkF5GFG0JlMSxs+vWpApgZs69hCOLiCxoPsj7fXo7FnRCdTLYIZ85NedWBeg7pb22dgbRpA56cJj5RFB0zZCIRMpcggwXZiEBebc2Qaerq3devWfV999dV2R5Znj2zBeASjVb68vPyNoqKiGCAFcmgHGTUJwLD+Dh0eVg2IcY61vk4b2UTHEOh96CN1MY+QnBjax3YApz2KHi0PlA94AtFCeXAHpFwu18tkMr1EIjFIpVKjVCrVw9vDw8Mgl8uNcF0ulxvEYrFBIpEYYUs0/Ofh4QH5LNdJHkgP16n8BplMBm+SBs58J3lBvuUN10E+lAmfJI+Hh4cR/oO6yeXyxwcOHNh08uTJd6B9bMfE8YmVPbJobwUwVigUKfHx8Rn2yHJkHsETAd14tVr9B7VaHQ1PDR5tRYD2HEgno91EcsikLe6pIxXAkG3+5JNP/jJ79uxr0AGhY4Hhjxg9dBzoEEboFNCxoMNAR4SOAZ3Jy8vLch3SwTWDwWCcMmWKEf6H73q93ujn5wfPWLN0Lie2y2FF1dTUvBkWFnaS7ajxiSZ52ksFkjUajUaDweAhFov/9Zw7hyFjm+BJRQSkabC3PScn510ghW+//day0YjN9SduLXwCcbAdMGkbXPynZkwDzN9///1rS5YsaeS/JNeVOH/+/PM3b94MhsfJkd2Z0FouG7KcicrGjRszDh06lOLMMrmWNSmJgG7cnTt3nlKr1VH5+fnRjY2NK2D/Ab2USNLSW5DHmj5wBY7PdDQZ1NXVLV25cuU/+JTv6rIOHDjwpw8//HA/tFMoQUIac/AGwDvRaDTBq1atEiTJT3oioAHv7Oz0y8/PjyooKIhpbW19BfYl0CMEfSOSUAKFzFFLo9EsDw0N/Zurd14+2wcH0CxcuLC9u7t7Bnh9tqwg8VkPNlkkbrFy5crTdXV1oY4uz175LkUENAjNzc0vwNShqKgo+vr160HMvftCIQIygpH61NTUrFqzZk2dvQp113w7duzY88UXX+ygSYC5OWuisAHdZmRkxCUmJuZOVB2sleuyREA3XKvVLiguLo4pLS2NIXsUIGZAOh8ZlZlBRToNLQ/SkbzjDTrSZcL38vLyNRERERprisPrP0Xg8uXLQStWrKh/8OCB5UlRxBNkI/zRlp7twZSM+GxBaiIvJSXlyJEjR1Ltke+sPG5BBDSYGo3m32H6oNFoom/evPnk8WJk/RmmD7AMSW9fJjEF+kgzvhTEJILS0tK1b731VhVf8t1JDmzUiY6OzmMeWgoY0ztT+T6rgiYWKJvc/AY2NWfOnI62trZ5YrHY8pw8ob7cjghoRVRWVr5eWFgYBTc7PXjwQEZfIwEeepmSBBzJ2jAfNzUxiaCkpOT369atKxeqwQi9Xtu2bdu7b9++bSPLdT97NsXI3X+WPRN87dEgG8HY9jE0NDQsCA4OviJ03NyaCGjllJWVvaVUKqNPnDixATonrD7QIwnbbj8+jkNjEkFBQcHbkZGRpUI3HCHXb+nSpWe0Wu1yQtjE22OeTM23Z8A8WOabb77ZuGnTpsNCxorUDYmAoSWz2SzNzs6GPQpRVVVVb7KN+jCaQGyAjzPzmUSQm5u7PjY29thkMB4h19Hb2/vR0NCQD1lFABIgT6nm814T+vZ4Ok6wdu3a6srKynAhY0TXDYlgDE3du3dvWnFx8buwHAnnJNJBKPjOx4YVJhFkZ2dHxcXFFUwWAxJyPcPCwr4lJ1uxHWPP55kVxBbAy0hNTd3z9ddf7xQyNsy6IRFw1BY8SKOkpCQqJycn9vLly6+CEfG9BAkubEZGxntJSUlKjtXCZFYQyMzMjEpOTs4n0wS+tx1DxwdbgACht7e3ac+ePfGbN2+edPpDIrCjK7W1tb0AQUbwFK5cuRJkhwjWLEAE6enpCe+//342XzJRjkik1WoXbd68+XBzc3Mwmerx4c3R2IaEhJzbvXv3ppCQkEuTEXMkgnFq7dKlS/Nh2Qo2Lul0ujkgjnb3SUCRGVikA1X0NYVC8X5ycrJinNXC7AwEdDrdlN27d+/Oz89P7O3ttcQOngTKxOKf3IdC38pMdMm2WxHSBQUFXUlOTs7evn37l5P5Ri4kAh67TENDw2vZ2dlwd+S7XV1dvmRnG/kkxgRGCC4quSeCfIfRau/evRvh6T08VgtFUQh0d3dPVSgUG4uKihKampp+TZ+XAMlogqCfW0iDCPoMDw+viIyMzHKVwC4SgYO6SVVV1arCwsLosrKyqPv3708FA6MPz4Bi6U1LxAD37dv3p23bth1wULVQLIVAdXX1UoVCsbm9vf03HR0dM/v7+y2HisJqEB1LmD17dk9AQECbr6+vbu7cuTffeOON0mXLlgny5iF7FYxEYC9yNuRTq9URx48fh41L6+FxYfB0XCAFMDb6HghwNb/88sutW7ZsEeSjs21o8qRN2tbW5mkymaYPDQ35ymSyu/PmzftBiOcH8A0wEgHfiFqRl5mZGQleQnl5+e/hOYDk6HVwUYEU0tLS/nPXrl1fOLlaWJybI4BEMEEGcOvWLa/q6uqooqKiqFOnTlluT4U56c6dO//86aefpk1QtbBYN0UAiUAAir9169Yvjh07BqQQExERUfnxxx//jwCqhVVwIwSQCASm7I6Ojueef/75GwKrFlbHxRFAInBxBWPzEAEuCCARcEEJ0yACLo4AEoGLKxibhwhwQQCJgAtKmAYRcHEEkAhcXMHYPESACwJIBFxQwjSIgIsjgETg4grG5iECXBBAIuCCEqZBBFwcASQCF1cwNg8R4IIAEgEXlDANIuDiCCARuLiCsXmIABcEkAi4oIRpEAEXR+D/Aba+sfvzItDUAAAAAElFTkSuQmCC;rotation=-135;" parent="1" vertex="1">
          <mxGeometry x="341.60442276647836" y="410.0044227664784" width="51.6" height="20" as="geometry" />
        </mxCell>
        <mxCell id="3lv9teBUK3wyE5GDYHUk-32" value="Light detected!" style="text;strokeColor=none;align=center;fillColor=none;html=1;verticalAlign=middle;whiteSpace=wrap;rounded=0;" parent="1" vertex="1">
          <mxGeometry x="320.45" y="355.52" width="89.55" height="30" as="geometry" />
        </mxCell>
        <mxCell id="3lv9teBUK3wyE5GDYHUk-33" value="Motion detected!" style="text;strokeColor=none;align=center;fillColor=none;html=1;verticalAlign=middle;whiteSpace=wrap;rounded=0;" parent="1" vertex="1">
          <mxGeometry x="370" y="385.52" width="99.55" height="30" as="geometry" />
        </mxCell>
        <mxCell id="3lv9teBUK3wyE5GDYHUk-34" value="" style="shape=image;verticalLabelPosition=bottom;labelBackgroundColor=default;verticalAlign=top;aspect=fixed;imageAspect=0;image=data:image/png,iVBORw0KGgoAAAANSUhEUgAAAQIAAABkCAYAAABtlT6jAAAAAXNSR0IArs4c6QAAFGZJREFUeF7tXXtQVEe6nycIEpPadUXqaiIJEaLrGhOJdcX1FQy4oTZms0p4hGcgavZq1GvVdVO38sfNFhVjNFmjUWSQx8AAo4AgAWQk6LKzRrgqItZFhEFNCcRXiTyd161vlnY7JwfmzHBmOMx8UzU1j9P9dffv+/rXX3/dp49YhC9EABFwewTEbo8AAoAIIAIiJAI0AkQAEUAiQBtABBABERIBGgEigAggEaANIAKIgAiJAI0AEUAEkAjQBhABRAAQwFUDtANEABFAIkAbQAQQAfQI0AYQAUQApwZoA4gAIoAxArQBRAARsCCAwUI0BEQAEUAiQBtABBAB9AjQBhABRACnBmgDiAAigDECtAFEABHAYCHaACKACPwTAVw1QEtABBABJAK0AUQAEUCPAG0AEUAEcGqANoAIIAIYI0AbQAQQAQwWog0gAogArhqgDSACiMAIArh8iKaACCACuHyINoAIIAK4fIg2gAggArh8iDaACCACuHyINoAIIAK4fIg2gAggArh8iDaACCACuHyINoAIIAIEAdxHgLaACCACuI8AbQARQARwHwHaACKACOA+AmHYwO3bt73VanXy8ePH3zl79uxKYdQKa+FOCGCMYAK1XVFREZ6ZmZlQXV29oa+vT7x06dIGrVb72gRWya2K7unp8a2vr1/S0dExp7Oz84Xu7u7nr1+/7n/jxo3nZDKZyM/P70ZAQED7s88+2+7v798RFBSkCwwMPO3v7z/kakAhEThZoy0tLQFZWVnJxcXFCe3t7TPB4AwGg2jKlCmil156qenixYsvO7lKblfc+fPngzMyMhILCwvfe/jwoY9IJDKDdywWi0VmM3z950sqlYqMRiNcsPyGa97e3qLw8PCCDz74IDMsLKzGVcBDInCCJs1ms0SpVMbv378/6cKFCyEGg8GCu0QiEZlMpic1WLhwYUtTU9OvnVAltywiPz9/Q0FBQUJZWVk4W8dnA4UmB0IMkA4IYcaMGTcSEhJyIyIi8hYvXvx/kxlUJAIHaq+mpmaZSqVKKioqerevr8/rqaeeEj169MhSIngAQ0M/9TAXLFhwrbm5OdCBVXJL0V1dXb9KSUnJrKioeNNsNlts3sfHR9TX12cVD7rzMxPL5XKRXq8XPf300w8///zznampqUesChRoAiQCnhXT0dHhW1hYmJSenh5/+/btucPDwz9zOUmRTI9g3rx5HVevXn2B5yq5tbhz5869un79+mPd3d1zoNMy3X8u4DDz0HqDqR14dfCOiYnJzcvLi+MiU2hpkAh40khhYeEGpVKZUFVVFQ4GJ5VKxTC/ZL48PDxEjx8/tvxNf4ffgYGBN1tbW5/jqUpuL6akpGTd22+/XQzTABjZoUNDPAZe8B06NJuOmMAx08JvQg4kpkA8vICAgA6tVrtwxowZ1t0NAWkIiWAcytBqtYtUKlVydnZ2TG9v79Nk3kkMjcz/weCg0w8PD1sCTmBE4FYSQiBG5e/vf1un0/3bOKqEWUcQiI2NzVUqlTEymcxi44QA4Ds9inMBjHR8Op4D+UCv8CL/k3QSicR85syZV0JCQi5xkS+ENEgENmrhxx9/9CkoKEgqKSlJ/O67714mowV0cDAMYnAwAoGBMEcdMjIRd5IYFPyeNWvWjz/88IOvjVXC5AwEtm/f/tf9+/f/B+iCXgWgvTDQC62v0UCkpwGjEQJZ+aF1CWRw//79Xz7zzDMPJoOCkAg4aqmsrGxtZmZmYmVl5R9hZIfR39PT0+Ja0u4mGB4diCLBJviEN/EC2IzHz8/vfldX1y85VgmTsSCg0WjWhIaGnqIvQWcGvYC+IEDLnJKNBSSTCIgspndAiJ8mixdffPHatWvXJkXwF4lgDCu4evXqi3l5eUkKhSLuzp07fhBxBgNgCziRjk0bDiEB2oWk16SJHJLH19f3UU9PzzTs4fYjMH369Nv37t3zA31ArIYZkKUxB3JgegxsJdM6Y14nxEDLIWWA/uPi4o4ePXo0yf4WOScnEgEDZ7PZLFepVLEHDx6Mr6+vX+6sbdhgUD4+PkO9vb1ezlG965Wybt26vIqKimgyJRhr6c9ZrQdC2rJly2d79+79L2eVaU85SAQjqNXV1f0WmLu0tDTq4cOHnvA37b7bA64teWAUmTp16uO+vj5L2fiyDQHw2lJTU7NBZyNTN9sEOCg18Q5qa2uXrV69+u8OKmbcYt2aCHQ63UylUplYUlISf+HChbkw+hNXDxTInAeOG20rAry9vQ0DAwNyR5fjivKXL19ed/bs2RXQNtAd7Pzr7+8XRFPBM0lOTk5PT0//QBAVYqmEWxIBrPlnZGTE19bWrjUajU8woD0AWwJK41EuHW/w9PQ0DQ8PS8cjzx3zgjf3+uuvnyExHIKBPZuH+MYP6gBBSk9Pz6GWlpZZs2bNusd3GXzIcxsiaGxsfOXgwYOw7Pdeb2/vNBjtIcDjTPefTWG0scrlcpNer0cisNGyo6Ojs/Pz8y07+giBA64wEtP7B2wUy2tysLPPPvts644dO/7Kq2CehLk0EZA1f9jxd/78+UXM4BEd6ScRZEgD30dbHeAJ9ydi6Ij0SP1cWid84wdbugMDA7v0er1lWkemc2z3cvBdNhd54A3AkjHYVHBw8IWGhoZXueRzdhqXNLra2trfHTp0KFGtVr8D7iLdudnIgN7cM9rdZo5UDClzJC4hEYvF/7oX1pEFu4DsXbt2/SUtLe3PhFDpdX7m0uFENZdeRtZoNCtXr159ZqLqMlq5LkMETU1NgXl5edD543Q6nR8JGpFNJEwArMUAnDm/JAYLBGAymTzFYrFeaIbCd33g1mxYmOns7JRMnTpVJpPJpAMDA7LHjx/LTCaTh8lkkhuNRtnw8LDcZDKR/6V6vV5mMBgsb5PJJP7oo48Ot7a2/uRGLVvuI+C7XUx5tNcJ1w4fPpyUkpJy1NHl2ip/UhOB2WyWwbJRTk5OQn19/W9pd14oo4E1hdD19PDwMJ86dWqJl5cX3JUEHUEyODgoE4vFcjB86BjQUeATOofRaJQODw/LYO8DxBbgf0g30lmk0JlGOpYlrV6vt/w2GAzQuaSA3+DgoBw+RzqW5brRaLSUB/+DfJAL+YlsuA6/4frQ0JAlncFggOtP6gm/TSaTZGhoSAJlwRkMkIcOzo6TbInXJGgbZrZx165dn6alpf23Nbtw9nVBgzgaGKdPn16uUCiSjx07FgdzL7KDDEAnd5NZG/GdDfRY5TGnIyRGQbwa+BxtB9xYu94gH5kW0TKYu+DGkm8tvzUcSX6uu/isyZuM12n9xsXFqXJycqKF1o5JQwSw5p+bm5uUm5ub2NbWFsAEkrmNdyL2AdirXGIoMI2BzTB0zICWSTo9+YRrbLfR0te5bKEdqwyueynY6kYTMymDrttYBGQvlkLMR3t9ixcv/t/GxsbFQqun4IkgKytrg0qlggM+1wJ45FQYMtqRZUDa0IjxT/TSIFdl0/X08vKyeDiw7MWl/iQ4RpdFd35CkOQ6GzGMRRZ8dVymHHchAWgnTQTTp09/ePfu3We42oaz0gmSCBoaGhbBnX4qlSq+v79/GlkLJgbLDAbBNABeZIow2kjpLFBtLQfcZ3hBu+h1b7ZOTtKRMpgjtr0dl5mP/GbzCNg8Dlvy24rPZE9PEwHseBwYGBBcvxNMhdra2qadOHEiHs74a2lpeZl5np8th0lAWiANLqfPCMnI6CkBH1Ob0YJxXKcObPltIZpxBgOFpBre6jJz5sy73d3dv+JNIE+CJpwI4Gz/I0eOJFRWVkYybxaBkRJG+8HBwSfNJaMn/EGfDEMfRUWfDMR1jssTnjaLgdGCBNTAG6CnPvToby1YOJrrb63jWgs2WuvM1vKzAcKViGwGU8AZCI6LFi26evHixflCq+qEEgHc75+bmxt18uTJDc3NzfNpo2IeCEHuLycAUmvvP4uogxw+RlRnKYv2BCZy27Oj5/HWSMVZeDuzHNJmYq+hoaF1Go1mlTPrwKWsCSUCuoLwYA+lUhlbXFwcqdPpZrGNhvQ+ctJhyK5AZtxgrMbTOw25gOToNDRxsR2kAeXbGv0ndbbmETijbcwybGkLl/qzeSVCIR0myUdFRalUKhUuH3IxvHPnzi3LysqKLikpiezp6fkF5GFG0JlMSxs+vWpApgZs69hCOLiCxoPsj7fXo7FnRCdTLYIZ85NedWBeg7pb22dgbRpA56cJj5RFB0zZCIRMpcggwXZiEBebc2Qaerq3devWfV999dV2R5Znj2zBeASjVb68vPyNoqKiGCAFcmgHGTUJwLD+Dh0eVg2IcY61vk4b2UTHEOh96CN1MY+QnBjax3YApz2KHi0PlA94AtFCeXAHpFwu18tkMr1EIjFIpVKjVCrVw9vDw8Mgl8uNcF0ulxvEYrFBIpEYYUs0/Ofh4QH5LNdJHkgP16n8BplMBm+SBs58J3lBvuUN10E+lAmfJI+Hh4cR/oO6yeXyxwcOHNh08uTJd6B9bMfE8YmVPbJobwUwVigUKfHx8Rn2yHJkHsETAd14tVr9B7VaHQ1PDR5tRYD2HEgno91EcsikLe6pIxXAkG3+5JNP/jJ79uxr0AGhY4Hhjxg9dBzoEEboFNCxoMNAR4SOAZ3Jy8vLch3SwTWDwWCcMmWKEf6H73q93ujn5wfPWLN0Lie2y2FF1dTUvBkWFnaS7ajxiSZ52ksFkjUajUaDweAhFov/9Zw7hyFjm+BJRQSkabC3PScn510ghW+//day0YjN9SduLXwCcbAdMGkbXPynZkwDzN9///1rS5YsaeS/JNeVOH/+/PM3b94MhsfJkd2Z0FouG7KcicrGjRszDh06lOLMMrmWNSmJgG7cnTt3nlKr1VH5+fnRjY2NK2D/Ab2USNLSW5DHmj5wBY7PdDQZ1NXVLV25cuU/+JTv6rIOHDjwpw8//HA/tFMoQUIac/AGwDvRaDTBq1atEiTJT3oioAHv7Oz0y8/PjyooKIhpbW19BfYl0CMEfSOSUAKFzFFLo9EsDw0N/Zurd14+2wcH0CxcuLC9u7t7Bnh9tqwg8VkPNlkkbrFy5crTdXV1oY4uz175LkUENAjNzc0vwNShqKgo+vr160HMvftCIQIygpH61NTUrFqzZk2dvQp113w7duzY88UXX+ygSYC5OWuisAHdZmRkxCUmJuZOVB2sleuyREA3XKvVLiguLo4pLS2NIXsUIGZAOh8ZlZlBRToNLQ/SkbzjDTrSZcL38vLyNRERERprisPrP0Xg8uXLQStWrKh/8OCB5UlRxBNkI/zRlp7twZSM+GxBaiIvJSXlyJEjR1Ltke+sPG5BBDSYGo3m32H6oNFoom/evPnk8WJk/RmmD7AMSW9fJjEF+kgzvhTEJILS0tK1b731VhVf8t1JDmzUiY6OzmMeWgoY0ztT+T6rgiYWKJvc/AY2NWfOnI62trZ5YrHY8pw8ob7cjghoRVRWVr5eWFgYBTc7PXjwQEZfIwEeepmSBBzJ2jAfNzUxiaCkpOT369atKxeqwQi9Xtu2bdu7b9++bSPLdT97NsXI3X+WPRN87dEgG8HY9jE0NDQsCA4OviJ03NyaCGjllJWVvaVUKqNPnDixATonrD7QIwnbbj8+jkNjEkFBQcHbkZGRpUI3HCHXb+nSpWe0Wu1yQtjE22OeTM23Z8A8WOabb77ZuGnTpsNCxorUDYmAoSWz2SzNzs6GPQpRVVVVb7KN+jCaQGyAjzPzmUSQm5u7PjY29thkMB4h19Hb2/vR0NCQD1lFABIgT6nm814T+vZ4Ok6wdu3a6srKynAhY0TXDYlgDE3du3dvWnFx8buwHAnnJNJBKPjOx4YVJhFkZ2dHxcXFFUwWAxJyPcPCwr4lJ1uxHWPP55kVxBbAy0hNTd3z9ddf7xQyNsy6IRFw1BY8SKOkpCQqJycn9vLly6+CEfG9BAkubEZGxntJSUlKjtXCZFYQyMzMjEpOTs4n0wS+tx1DxwdbgACht7e3ac+ePfGbN2+edPpDIrCjK7W1tb0AQUbwFK5cuRJkhwjWLEAE6enpCe+//342XzJRjkik1WoXbd68+XBzc3Mwmerx4c3R2IaEhJzbvXv3ppCQkEuTEXMkgnFq7dKlS/Nh2Qo2Lul0ujkgjnb3SUCRGVikA1X0NYVC8X5ycrJinNXC7AwEdDrdlN27d+/Oz89P7O3ttcQOngTKxOKf3IdC38pMdMm2WxHSBQUFXUlOTs7evn37l5P5Ri4kAh67TENDw2vZ2dlwd+S7XV1dvmRnG/kkxgRGCC4quSeCfIfRau/evRvh6T08VgtFUQh0d3dPVSgUG4uKihKampp+TZ+XAMlogqCfW0iDCPoMDw+viIyMzHKVwC4SgYO6SVVV1arCwsLosrKyqPv3708FA6MPz4Bi6U1LxAD37dv3p23bth1wULVQLIVAdXX1UoVCsbm9vf03HR0dM/v7+y2HisJqEB1LmD17dk9AQECbr6+vbu7cuTffeOON0mXLlgny5iF7FYxEYC9yNuRTq9URx48fh41L6+FxYfB0XCAFMDb6HghwNb/88sutW7ZsEeSjs21o8qRN2tbW5mkymaYPDQ35ymSyu/PmzftBiOcH8A0wEgHfiFqRl5mZGQleQnl5+e/hOYDk6HVwUYEU0tLS/nPXrl1fOLlaWJybI4BEMEEGcOvWLa/q6uqooqKiqFOnTlluT4U56c6dO//86aefpk1QtbBYN0UAiUAAir9169Yvjh07BqQQExERUfnxxx//jwCqhVVwIwSQCASm7I6Ojueef/75GwKrFlbHxRFAInBxBWPzEAEuCCARcEEJ0yACLo4AEoGLKxibhwhwQQCJgAtKmAYRcHEEkAhcXMHYPESACwJIBFxQwjSIgIsjgETg4grG5iECXBBAIuCCEqZBBFwcASQCF1cwNg8R4IIAEgEXlDANIuDiCCARuLiCsXmIABcEkAi4oIRpEAEXR+D/Aba+sfvzItDUAAAAAElFTkSuQmCC;rotation=-135;" parent="1" vertex="1">
          <mxGeometry x="386.8044227664784" y="455.0044227664784" width="51.6" height="20" as="geometry" />
        </mxCell>
        <mxCell id="3lv9teBUK3wyE5GDYHUk-35" value="Is SmartLight on?" style="text;strokeColor=none;align=center;fillColor=none;html=1;verticalAlign=middle;whiteSpace=wrap;rounded=0;" parent="1" vertex="1">
          <mxGeometry x="419.2" y="440" width="90" height="30" as="geometry" />
        </mxCell>
        <mxCell id="3lv9teBUK3wyE5GDYHUk-36" value="" style="shape=image;verticalLabelPosition=bottom;labelBackgroundColor=default;verticalAlign=top;aspect=fixed;imageAspect=0;image=data:image/png,iVBORw0KGgoAAAANSUhEUgAAAQIAAABkCAYAAABtlT6jAAAAAXNSR0IArs4c6QAAFGZJREFUeF7tXXtQVEe6nycIEpPadUXqaiIJEaLrGhOJdcX1FQy4oTZms0p4hGcgavZq1GvVdVO38sfNFhVjNFmjUWSQx8AAo4AgAWQk6LKzRrgqItZFhEFNCcRXiTyd161vlnY7JwfmzHBmOMx8UzU1j9P9dffv+/rXX3/dp49YhC9EABFwewTEbo8AAoAIIAIiJAI0AkQAEUAiQBtABBABERIBGgEigAggEaANIAKIgAiJAI0AEUAEkAjQBhABRAAQwFUDtANEABFAIkAbQAQQAfQI0AYQAUQApwZoA4gAIoAxArQBRAARsCCAwUI0BEQAEUAiQBtABBAB9AjQBhABRACnBmgDiAAigDECtAFEABHAYCHaACKACPwTAVw1QEtABBABJAK0AUQAEUCPAG0AEUAEcGqANoAIIAIYI0AbQAQQAQwWog0gAogArhqgDSACiMAIArh8iKaACCACuHyINoAIIAK4fIg2gAggArh8iDaACCACuHyINoAIIAK4fIg2gAggArh8iDaACCACuHyINoAIIAIEAdxHgLaACCACuI8AbQARQARwHwHaACKACOA+AmHYwO3bt73VanXy8ePH3zl79uxKYdQKa+FOCGCMYAK1XVFREZ6ZmZlQXV29oa+vT7x06dIGrVb72gRWya2K7unp8a2vr1/S0dExp7Oz84Xu7u7nr1+/7n/jxo3nZDKZyM/P70ZAQED7s88+2+7v798RFBSkCwwMPO3v7z/kakAhEThZoy0tLQFZWVnJxcXFCe3t7TPB4AwGg2jKlCmil156qenixYsvO7lKblfc+fPngzMyMhILCwvfe/jwoY9IJDKDdywWi0VmM3z950sqlYqMRiNcsPyGa97e3qLw8PCCDz74IDMsLKzGVcBDInCCJs1ms0SpVMbv378/6cKFCyEGg8GCu0QiEZlMpic1WLhwYUtTU9OvnVAltywiPz9/Q0FBQUJZWVk4W8dnA4UmB0IMkA4IYcaMGTcSEhJyIyIi8hYvXvx/kxlUJAIHaq+mpmaZSqVKKioqerevr8/rqaeeEj169MhSIngAQ0M/9TAXLFhwrbm5OdCBVXJL0V1dXb9KSUnJrKioeNNsNlts3sfHR9TX12cVD7rzMxPL5XKRXq8XPf300w8///zznampqUesChRoAiQCnhXT0dHhW1hYmJSenh5/+/btucPDwz9zOUmRTI9g3rx5HVevXn2B5yq5tbhz5869un79+mPd3d1zoNMy3X8u4DDz0HqDqR14dfCOiYnJzcvLi+MiU2hpkAh40khhYeEGpVKZUFVVFQ4GJ5VKxTC/ZL48PDxEjx8/tvxNf4ffgYGBN1tbW5/jqUpuL6akpGTd22+/XQzTABjZoUNDPAZe8B06NJuOmMAx08JvQg4kpkA8vICAgA6tVrtwxowZ1t0NAWkIiWAcytBqtYtUKlVydnZ2TG9v79Nk3kkMjcz/weCg0w8PD1sCTmBE4FYSQiBG5e/vf1un0/3bOKqEWUcQiI2NzVUqlTEymcxi44QA4Ds9inMBjHR8Op4D+UCv8CL/k3QSicR85syZV0JCQi5xkS+ENEgENmrhxx9/9CkoKEgqKSlJ/O67714mowV0cDAMYnAwAoGBMEcdMjIRd5IYFPyeNWvWjz/88IOvjVXC5AwEtm/f/tf9+/f/B+iCXgWgvTDQC62v0UCkpwGjEQJZ+aF1CWRw//79Xz7zzDMPJoOCkAg4aqmsrGxtZmZmYmVl5R9hZIfR39PT0+Ja0u4mGB4diCLBJviEN/EC2IzHz8/vfldX1y85VgmTsSCg0WjWhIaGnqIvQWcGvYC+IEDLnJKNBSSTCIgspndAiJ8mixdffPHatWvXJkXwF4lgDCu4evXqi3l5eUkKhSLuzp07fhBxBgNgCziRjk0bDiEB2oWk16SJHJLH19f3UU9PzzTs4fYjMH369Nv37t3zA31ArIYZkKUxB3JgegxsJdM6Y14nxEDLIWWA/uPi4o4ePXo0yf4WOScnEgEDZ7PZLFepVLEHDx6Mr6+vX+6sbdhgUD4+PkO9vb1ezlG965Wybt26vIqKimgyJRhr6c9ZrQdC2rJly2d79+79L2eVaU85SAQjqNXV1f0WmLu0tDTq4cOHnvA37b7bA64teWAUmTp16uO+vj5L2fiyDQHw2lJTU7NBZyNTN9sEOCg18Q5qa2uXrV69+u8OKmbcYt2aCHQ63UylUplYUlISf+HChbkw+hNXDxTInAeOG20rAry9vQ0DAwNyR5fjivKXL19ed/bs2RXQNtAd7Pzr7+8XRFPBM0lOTk5PT0//QBAVYqmEWxIBrPlnZGTE19bWrjUajU8woD0AWwJK41EuHW/w9PQ0DQ8PS8cjzx3zgjf3+uuvnyExHIKBPZuH+MYP6gBBSk9Pz6GWlpZZs2bNusd3GXzIcxsiaGxsfOXgwYOw7Pdeb2/vNBjtIcDjTPefTWG0scrlcpNer0cisNGyo6Ojs/Pz8y07+giBA64wEtP7B2wUy2tysLPPPvts644dO/7Kq2CehLk0EZA1f9jxd/78+UXM4BEd6ScRZEgD30dbHeAJ9ydi6Ij0SP1cWid84wdbugMDA7v0er1lWkemc2z3cvBdNhd54A3AkjHYVHBw8IWGhoZXueRzdhqXNLra2trfHTp0KFGtVr8D7iLdudnIgN7cM9rdZo5UDClzJC4hEYvF/7oX1pEFu4DsXbt2/SUtLe3PhFDpdX7m0uFENZdeRtZoNCtXr159ZqLqMlq5LkMETU1NgXl5edD543Q6nR8JGpFNJEwArMUAnDm/JAYLBGAymTzFYrFeaIbCd33g1mxYmOns7JRMnTpVJpPJpAMDA7LHjx/LTCaTh8lkkhuNRtnw8LDcZDKR/6V6vV5mMBgsb5PJJP7oo48Ot7a2/uRGLVvuI+C7XUx5tNcJ1w4fPpyUkpJy1NHl2ip/UhOB2WyWwbJRTk5OQn19/W9pd14oo4E1hdD19PDwMJ86dWqJl5cX3JUEHUEyODgoE4vFcjB86BjQUeATOofRaJQODw/LYO8DxBbgf0g30lmk0JlGOpYlrV6vt/w2GAzQuaSA3+DgoBw+RzqW5brRaLSUB/+DfJAL+YlsuA6/4frQ0JAlncFggOtP6gm/TSaTZGhoSAJlwRkMkIcOzo6TbInXJGgbZrZx165dn6alpf23Nbtw9nVBgzgaGKdPn16uUCiSjx07FgdzL7KDDEAnd5NZG/GdDfRY5TGnIyRGQbwa+BxtB9xYu94gH5kW0TKYu+DGkm8tvzUcSX6uu/isyZuM12n9xsXFqXJycqKF1o5JQwSw5p+bm5uUm5ub2NbWFsAEkrmNdyL2AdirXGIoMI2BzTB0zICWSTo9+YRrbLfR0te5bKEdqwyueynY6kYTMymDrttYBGQvlkLMR3t9ixcv/t/GxsbFQqun4IkgKytrg0qlggM+1wJ45FQYMtqRZUDa0IjxT/TSIFdl0/X08vKyeDiw7MWl/iQ4RpdFd35CkOQ6GzGMRRZ8dVymHHchAWgnTQTTp09/ePfu3We42oaz0gmSCBoaGhbBnX4qlSq+v79/GlkLJgbLDAbBNABeZIow2kjpLFBtLQfcZ3hBu+h1b7ZOTtKRMpgjtr0dl5mP/GbzCNg8Dlvy24rPZE9PEwHseBwYGBBcvxNMhdra2qadOHEiHs74a2lpeZl5np8th0lAWiANLqfPCMnI6CkBH1Ob0YJxXKcObPltIZpxBgOFpBre6jJz5sy73d3dv+JNIE+CJpwI4Gz/I0eOJFRWVkYybxaBkRJG+8HBwSfNJaMn/EGfDEMfRUWfDMR1jssTnjaLgdGCBNTAG6CnPvToby1YOJrrb63jWgs2WuvM1vKzAcKViGwGU8AZCI6LFi26evHixflCq+qEEgHc75+bmxt18uTJDc3NzfNpo2IeCEHuLycAUmvvP4uogxw+RlRnKYv2BCZy27Oj5/HWSMVZeDuzHNJmYq+hoaF1Go1mlTPrwKWsCSUCuoLwYA+lUhlbXFwcqdPpZrGNhvQ+ctJhyK5AZtxgrMbTOw25gOToNDRxsR2kAeXbGv0ndbbmETijbcwybGkLl/qzeSVCIR0myUdFRalUKhUuH3IxvHPnzi3LysqKLikpiezp6fkF5GFG0JlMSxs+vWpApgZs69hCOLiCxoPsj7fXo7FnRCdTLYIZ85NedWBeg7pb22dgbRpA56cJj5RFB0zZCIRMpcggwXZiEBebc2Qaerq3devWfV999dV2R5Znj2zBeASjVb68vPyNoqKiGCAFcmgHGTUJwLD+Dh0eVg2IcY61vk4b2UTHEOh96CN1MY+QnBjax3YApz2KHi0PlA94AtFCeXAHpFwu18tkMr1EIjFIpVKjVCrVw9vDw8Mgl8uNcF0ulxvEYrFBIpEYYUs0/Ofh4QH5LNdJHkgP16n8BplMBm+SBs58J3lBvuUN10E+lAmfJI+Hh4cR/oO6yeXyxwcOHNh08uTJd6B9bMfE8YmVPbJobwUwVigUKfHx8Rn2yHJkHsETAd14tVr9B7VaHQ1PDR5tRYD2HEgno91EcsikLe6pIxXAkG3+5JNP/jJ79uxr0AGhY4Hhjxg9dBzoEEboFNCxoMNAR4SOAZ3Jy8vLch3SwTWDwWCcMmWKEf6H73q93ujn5wfPWLN0Lie2y2FF1dTUvBkWFnaS7ajxiSZ52ksFkjUajUaDweAhFov/9Zw7hyFjm+BJRQSkabC3PScn510ghW+//day0YjN9SduLXwCcbAdMGkbXPynZkwDzN9///1rS5YsaeS/JNeVOH/+/PM3b94MhsfJkd2Z0FouG7KcicrGjRszDh06lOLMMrmWNSmJgG7cnTt3nlKr1VH5+fnRjY2NK2D/Ab2USNLSW5DHmj5wBY7PdDQZ1NXVLV25cuU/+JTv6rIOHDjwpw8//HA/tFMoQUIac/AGwDvRaDTBq1atEiTJT3oioAHv7Oz0y8/PjyooKIhpbW19BfYl0CMEfSOSUAKFzFFLo9EsDw0N/Zurd14+2wcH0CxcuLC9u7t7Bnh9tqwg8VkPNlkkbrFy5crTdXV1oY4uz175LkUENAjNzc0vwNShqKgo+vr160HMvftCIQIygpH61NTUrFqzZk2dvQp113w7duzY88UXX+ygSYC5OWuisAHdZmRkxCUmJuZOVB2sleuyREA3XKvVLiguLo4pLS2NIXsUIGZAOh8ZlZlBRToNLQ/SkbzjDTrSZcL38vLyNRERERprisPrP0Xg8uXLQStWrKh/8OCB5UlRxBNkI/zRlp7twZSM+GxBaiIvJSXlyJEjR1Ltke+sPG5BBDSYGo3m32H6oNFoom/evPnk8WJk/RmmD7AMSW9fJjEF+kgzvhTEJILS0tK1b731VhVf8t1JDmzUiY6OzmMeWgoY0ztT+T6rgiYWKJvc/AY2NWfOnI62trZ5YrHY8pw8ob7cjghoRVRWVr5eWFgYBTc7PXjwQEZfIwEeepmSBBzJ2jAfNzUxiaCkpOT369atKxeqwQi9Xtu2bdu7b9++bSPLdT97NsXI3X+WPRN87dEgG8HY9jE0NDQsCA4OviJ03NyaCGjllJWVvaVUKqNPnDixATonrD7QIwnbbj8+jkNjEkFBQcHbkZGRpUI3HCHXb+nSpWe0Wu1yQtjE22OeTM23Z8A8WOabb77ZuGnTpsNCxorUDYmAoSWz2SzNzs6GPQpRVVVVb7KN+jCaQGyAjzPzmUSQm5u7PjY29thkMB4h19Hb2/vR0NCQD1lFABIgT6nm814T+vZ4Ok6wdu3a6srKynAhY0TXDYlgDE3du3dvWnFx8buwHAnnJNJBKPjOx4YVJhFkZ2dHxcXFFUwWAxJyPcPCwr4lJ1uxHWPP55kVxBbAy0hNTd3z9ddf7xQyNsy6IRFw1BY8SKOkpCQqJycn9vLly6+CEfG9BAkubEZGxntJSUlKjtXCZFYQyMzMjEpOTs4n0wS+tx1DxwdbgACht7e3ac+ePfGbN2+edPpDIrCjK7W1tb0AQUbwFK5cuRJkhwjWLEAE6enpCe+//342XzJRjkik1WoXbd68+XBzc3Mwmerx4c3R2IaEhJzbvXv3ppCQkEuTEXMkgnFq7dKlS/Nh2Qo2Lul0ujkgjnb3SUCRGVikA1X0NYVC8X5ycrJinNXC7AwEdDrdlN27d+/Oz89P7O3ttcQOngTKxOKf3IdC38pMdMm2WxHSBQUFXUlOTs7evn37l5P5Ri4kAh67TENDw2vZ2dlwd+S7XV1dvmRnG/kkxgRGCC4quSeCfIfRau/evRvh6T08VgtFUQh0d3dPVSgUG4uKihKampp+TZ+XAMlogqCfW0iDCPoMDw+viIyMzHKVwC4SgYO6SVVV1arCwsLosrKyqPv3708FA6MPz4Bi6U1LxAD37dv3p23bth1wULVQLIVAdXX1UoVCsbm9vf03HR0dM/v7+y2HisJqEB1LmD17dk9AQECbr6+vbu7cuTffeOON0mXLlgny5iF7FYxEYC9yNuRTq9URx48fh41L6+FxYfB0XCAFMDb6HghwNb/88sutW7ZsEeSjs21o8qRN2tbW5mkymaYPDQ35ymSyu/PmzftBiOcH8A0wEgHfiFqRl5mZGQleQnl5+e/hOYDk6HVwUYEU0tLS/nPXrl1fOLlaWJybI4BEMEEGcOvWLa/q6uqooqKiqFOnTlluT4U56c6dO//86aefpk1QtbBYN0UAiUAAir9169Yvjh07BqQQExERUfnxxx//jwCqhVVwIwSQCASm7I6Ojueef/75GwKrFlbHxRFAInBxBWPzEAEuCCARcEEJ0yACLo4AEoGLKxibhwhwQQCJgAtKmAYRcHEEkAhcXMHYPESACwJIBFxQwjSIgIsjgETg4grG5iECXBBAIuCCEqZBBFwcASQCF1cwNg8R4IIAEgEXlDANIuDiCCARuLiCsXmIABcEkAi4oIRpEAEXR+D/Aba+sfvzItDUAAAAAElFTkSuQmCC;rotation=105;" parent="1" vertex="1">
          <mxGeometry x="524.2044227664784" y="410.00442276647846" width="51.6" height="20" as="geometry" />
        </mxCell>
        <mxCell id="3lv9teBUK3wyE5GDYHUk-37" value="SmartLight on! flag" style="text;strokeColor=none;align=center;fillColor=none;html=1;verticalAlign=middle;whiteSpace=wrap;rounded=0;" parent="1" vertex="1">
          <mxGeometry x="470" y="400" width="70" height="30" as="geometry" />
        </mxCell>
        <mxCell id="3lv9teBUK3wyE5GDYHUk-38" value="" style="endArrow=none;html=1;rounded=0;exitX=0.5;exitY=1;exitDx=0;exitDy=0;entryX=0.5;entryY=0;entryDx=0;entryDy=0;" parent="1" source="3lv9teBUK3wyE5GDYHUk-5" target="3lv9teBUK3wyE5GDYHUk-23" edge="1">
          <mxGeometry width="50" height="50" relative="1" as="geometry">
            <mxPoint x="262" y="346" as="sourcePoint" />
            <mxPoint x="270" y="570" as="targetPoint" />
          </mxGeometry>
        </mxCell>
        <mxCell id="3lv9teBUK3wyE5GDYHUk-23" value="SmartLight = True?" style="text;strokeColor=none;align=center;fillColor=none;html=1;verticalAlign=middle;whiteSpace=wrap;rounded=0;" parent="1" vertex="1">
          <mxGeometry x="200.45" y="370" width="120" height="30" as="geometry" />
        </mxCell>
        <mxCell id="3lv9teBUK3wyE5GDYHUk-39" value="" style="shape=image;verticalLabelPosition=bottom;labelBackgroundColor=default;verticalAlign=top;aspect=fixed;imageAspect=0;image=data:image/png,iVBORw0KGgoAAAANSUhEUgAAANsAAABtCAYAAAAoEBQoAAAAAXNSR0IArs4c6QAAFdJJREFUeF7tXQtUk1e2BrRaBbW2tVJRUQLLSqUKVpFBRaWCz4DIIyHUoEGQIL5GW23xQa1tZ3TJzMWEhyLgI1pzZ6pznWHEt6iMLq7Lq4s714ojl9Fa9c5SL+ID1Ny7I7vr9J9EAvyPhOx/LVZC/vOfvc+3z3ce++xzflcXuggBQkAUBFxFkUJCCAFCwIXIRpWAEBAJASKbSECTGEKAyEZ1gBAQCQEim0hAkxhCgMhGdYAQEAkBIptIQJMYQoDIRnWAEBAJASKbSECTGEKAyEZ1gBAQCQEim0hAkxhCgMhGdYAQEAkBIptIQJMYQoDIRnWAEBAJASKbSECTGEKAyEZ1gBAQCQEim0hAkxhCgMhGdYAQEAkBIptIQJMYQoDIRnWAEBAJASKbSECTGEKAyEZ1gBAQCQEim0hAkxhCgMhGdYAQEAkBIptIQJMYQoDIRnWAEBAJASKbSECTGEKAyEZ1gBAQCQEim0hACyEmLy9v3ogRIy6GhIRcECJ/ypNfBIhs/OIpam5bt26dO3/+/O0BAQGXExISdiUkJBj8/PxuiKoECbMZAYcgW3V1dZfHjx8Peeutt+4OHjz4R5tL18ET5ubmzl22bNn2pqYmc0nd3NxcQkNDTyiVyt3p6eklrq6uzzo4BA5VPLsj25YtW1IuXbo0oq6ubvAPP/zg9/333/s9f/7cBStU586dXby8vOpkMtnV/v37X/f29v67QqEwvP/++zUOhTwPyur1+rmZmZnbAR9XV1cXk8nk0qVLF5fGxkaX1157zUUul3+rVqv3yOXyAzyIoyzaiYBdkK2iomL4gQMH5uzatWvO7du334ZKw72g1Ybf8R5ULiAeVDT4LTExcQ8Mo+Ry+cF2YuIwj8OcTavVFoHCgAXbw7148cJMOPjN09PzcVxcXJFKpdo9ZsyYvzhMATuYopKSrbS0NMFoNM45ePDgNC6ur7/+usuTJ0/MQyP2YgmHQyeoWJAOPkNDQ6umTZu297PPPvuNq6vr8w5mr58VR6fTaTIyMrbBj506dTKXH/ABkj179sz8HXs8xGfYsGE1SqWyZMaMGYbhw4df78j42FvZJCNbZmZmrl6vXwg9E7TKUCmwZUaiWQML0sJlqQfEYVRISEhlTk5O5pgxY/7d3kDnSx+9Xp+SmZm5FTCEC3syJB8QDDAFfAErHG7CfcBw/PjxlSqVqmTChAmlfn5+T/nSi/KxjIAkZPvoo4+OHDlyJByNjqTx8PBwefjwoVlTdpjITQctOHthJevevbvLo0ePzLfge1NTU6NOp0tLTU0t6YgVQKfTzc/IyCgEMkFP1tLFkhEJiUSNj483JiUl7ab5XUsotv2+qGSrqqoaGBISUtvU1OSKwxoc5kAR2DmYLRUIhk5AVC75sHdDWFauXJnzzTffLGs7TPb5pF6vT9VqtQUsiXCUACQCXLp27ery9Ok/d1pswwbPwwW9YO/evR9pNJrt0dHRu8eOHUvzOx5NLxrZsrKyPt2wYcPXJpPJLJMlBBAPSAcVhOsIwV4N08D/UImQYOyQEtIAAaHSIJkRq7CwsPKTJ09G8oid5Fnl5eWlabXafHZuxioFWOAwHb4D6bBxw3tsepwfI7YBAQH/mZCQsHv69OmGwMDAWskL7OAKiEK2kydPBoSFhf2Hm5ubK9fBgT0YtK7YGiNRuMa3hrW14RESF54DuevXr1+zevXq9Q5us5/UB7JlZGTko4MIGyLAlG2Q8AHEGokGxAOMcCjJDi1ZMsKQPDAw8HhycvLulJQUWL/r0I4noeqHKGR744036u/fv+/BNS77P7cnYgvMDi/hd5aMUKm4HjccOrF54vfDhw9PmTx58iGhABUzXyBbenp6vtAyWeLBiEQul+9RKpV7Z8+e/QehZXek/AUn29SpU/9YVlY2jZ2bsb0YgokGBWOi1wwm/ezcjtsKs8NR7jwNW2kgI+QNeaEOV65cGTpkyJD/cnRDikU2dgiPw1LArlevXg1KpXL77NmzDRMnTqT5XQsVSlCyrV+/fsXq1at/DcZConDd9UA8uGdpEu/l5VUfEBBwbuTIkeeHDh16+unTp/3Pnz8fUlFRMb6mpkYGkRJsT4ceTFxCQHLh8Al70pCQkLP79u2b3K9fv5euSwe9xCAb20giTOyIARoyuIYOHfrXpKQkAzhW3nvvPVq/s1CnBCNbVVXV26NHj76LhoEehu19wIjY46BeSIbFixdvSk5OLvrggw+s9j5Xr17t/9133ylWrly5EWRAz8XO3SAv+MNIClzkBVnwu0ajyd+2bVu6g/LMrDa6/sUoA3e+x8pkyQdrpMHBwadgGSElJaXY1dX1ZeAmXS6CkW358uVfbNq0aTWLMRvlgMZDJwbc8/DwaNi/f//UCRMmVNhqm9OnT4+ByPeampqh2KPBnA16PW4vyhLQ19f34dWrV99w5Mk+LGprtdqttmLVlnRc5xMSi/V04hof6w0GWUC8WbNm7YuLizPExMQ4fXymYGQbNGhQ3a1btwbA8BCMAEaD71xnB1aA+Pj43fv27UtqS4WAZ5YvX/5Vbm7uKnY4Cj0pEA5ICPLhO7v4W1BQkJaWllbYVplSPycG2bhlRPKxvRnYFP7HYb2lXs/Ly6shOjq6CDyao0aNOi81dlLIF4RsRUVFGo1G81PMHuta5vZ0cC86OvrE/v37J7YXAIPBEK1Sqb6DHgx6t8ePH5uzhO9AOFw/Qm/lpEmTKo4dOza+vXKleh4XtYWUb2l5AOThsgw0YFzHFXfJBed1uI7q7+9/OTExEeZ3pf7+/reE1N+e8haEbCEhIScrKyvHc4eNuLCKxoLK7+7u7tLQ0MCbHitWrNi4cePG5WyFYCNM2MgUqEg3btwY6OXl9Xd7Moqtuuj1+gVarTbP1vRtTccuteD8mF2rg3xxyM72eBhwYO0+pA0PDz8MC+cpKSmlbdXPUZ7jrZJjgU+ePPmLsLCwMywA7Lif68natGnToqVLl+byCVhwcPC58+fPj7YUqMyVk52dvW7t2rXZfMoXK6+CgoL0tLQ0vVjyhJCDdaNTp04m6O1gGSE6OvpPQsiSOk/eyVZSUqJKTk7eBQVj3cbsOhrMm6C3mTNnzs4dO3bM4RuEo0eP/iI8PPzMqxbKUWa3bt1cYKvJo0ePILrZrXPnzoCJW1NTU6dOnTq5NYeXwT4fiH5xc33ZXFvDzQSXq6sr5PXTn8lket78G2zUg/vmDXuQtlkP+PxZns1yzLfd3EAN83YZ0/Pnz02AX/fu3U21tbX979696843flLnN3DgwP+JiYnZFRsbC/GZVVLrw5d83sm2Zs2aVV988cVXqCAuiHLnbdCibdu2TaFWq7/lqzBsPoMHD667fv36gJbyflXAs6U1ppbyE/M+11Mopmy+ZCHGuAePO//z9/e/qFaroccr9fX1vcOXXCny4Z1sCxYsyM/Pz09DENkJNjcOEo488PX1FeQ4A7lc/ueDBw9GcncEcEHG3g8jVzB6BR0A1pw7YhkL9WPXuWCUYMnzJ5ZOQshh54WQP+u9xuifCRMmHJo3b57h448/3iGEDkLnyTvZIiIiysvLyydzh3Dsuhrc69at2536+vq+QhUwJSXlt0VFRYtamrdZi4K3FBUvlK625MvubmgeWv7T1iJb8rHXNNgowye7PGPJDh4eHs+io6MNSqVyz/Tp0/9sr2Xi6sU72by8vK7dvHnTBysERvlzh2RxcXEHjUbjTKGAys/P1yxYsMC8/NDSZWkfHTYWrEetpXyEuI9RMJA3uzfNUiyoEPKFztPankTuArmFdOb57jvvvHMzPj5+p1qt3jZq1Ki/Ca1ve/LnnWzu7u6mhoYGs07caHwMQIZ74AVcvXq1YF7AsrKyUTNmzDhv6zAQo0vQtQ2f+L09ALf3WbZlx8gYxLWlXru9ssV8nm2M2S1C3CAIdnMsOIxw8zB8Dw0N3R8bG7t3yZIlRjF1t1UW72Tr169fze3bt2Xs8WqoDC52AkBTp049VFZWNsVWRVubzta4QUsOEmutbWt14Cs9u16JIwZ2axFfcqTIBxsTNmwPh5HsPSAjp+E092wymeyviYmJO2fNmlUUFBR0V4oy2CqTd7JNnDjx0PHjxyPYSsyt0OBu79q16//ev3+/l62KtjbdwoULc7ds2bIQnmMdM+xxbzjEtbaZ0palg9bq1dr0lhxNrc1D6vTc+Sb3f+5mV7ZRZgmHzq4333zzXlxc3B6FQrHTkbb28E42jUaj2759u5Yd4lhzQly+fHl4QEDAJSEqw7hx445UVlaGQyvJkh29jGg49uQpHPrCfIgN7xJCP1vz5FZMbi9naz72kI6LPTvVwB4bvZBsD97cYJpmzpxpVKlUsP72b/ZQntbqwDvZsrOzV6xdu/bXlhSBig0XbofR6XSpqampgkStv/vuu7du3brlCfLYYSFbebnRLEAyjKdE/aV2kLCnHLOVk9tItNbwYqVn55xsj8WS6VUNSGho6ClwgCxevNgmZ5dY5WqLHN7JVlhYGJ+amvotes7YbS1cBceNG3e6oqJiXFsUf9UzxcXFMampqb/DIaOltOhq7tu3L2x8vNjY2AhhGi8aGxtNPXr0cHv27Jk5auTFixfmTwjkaP5EzNhIEvyOnxBpYo4+aZ7Ew/wCIkrg7A78xO/mSBMrUSUQLWLq2rWrOTIFvkPgSXMUyrPa2lrZjRs3+vGNH5/5WQsMgN+RZOxaKDR4Pj4+NbGxsSUxMTHFQUFBP/Cpj5R58U62U6dOjQ4LCzvHDiO5Dge2R8nKytrw5ZdfZvEJQu/evR88ePCgp6XTk1EvGK7AwvC6deuy1/3/xad8sfIqKSmZm5ycvF0see2R01I0Tp8+fZ5PmzatUK1Wl06aNOlce2TZ67O8kw0KOnbs2GOnT5+eyB5HgMet4fABFy+b15G68LWjNz4+vsRoNKq5ZGe9o6xD5Nq1a4N8fHz+214N9Cq9cnJykpcuXVrsSLoD9kg86NFmzZq1PzExsTQ2Nna/I5WjLboKQjadTjcnMzOzFA/bsXSQKtvSwZkglZWVoW0pAPvM1q1bY+bPn/876DmB6BjSxI1CQNnh4eHHjx49Oqm9cqV6vqCgQJ2WlmbXpz1znSJgi5EjR15UqVTbFi1alNccoC0VhKLKFYRsUAJvb++/wWuf2B6GDdnCdROs+ImJiTsMBoO6raX/9NNP1+fk5GQBwVjvJ+SH6zNsVAgYPTc3NzU9PV0QB01by9Ga5xyBbGgLPz+/+wqFYotCoSh1xtd7gV0FI9vnn3++ZsOGDdkINvfMEQxDYudzPXv2/IfRaJRHRkaetbXSweumli1bVlJVVTWCzROHjehNxEk4Rsr37dv33u3bt9+0VY49ptPr9WqtVtvuno27vIBl5QZBw+84SuB+wj022gNwhjNIEhMTi2JiYnZERkaeskcMxdRJMLJduHDBOzg4+Dqc688aj91Gzz1tCxa74cUYn3zyya9iY2N3jh49utoaGNXV1Z7l5eVxS5cu/Rc2DXoZ8XxDjEbgvhlHq9Vu0ev1mWKCzbcsPsjGXYMEErFeXNaZxWKIa5FgT25IWVhY2J9SU1NhHraP7zI7cn6CkQ1Ayc7O/uXatWs3cSME0O3Lnspk6egCMPSgQYOuBAYGXvX19b107969t6uqqobV1tYOq6+v74ln+uMZI3ioK8Y0cltfJHdYWNjZEydOjEV3u6MaUKfTJWdkZLTbQQI4scNttA8Ov4FQuJRjaQ8d2DcoKKgmKSkpNz4+vsjT0/NlcCxdP0NAULKBpMjIyIOHDh2ajkMQ1qjwHQmAUd7s+Y7QkrKv+OXajhtOxa7psWFOOLxEedXV1b5+fn7XHL0u8EU2tA3Oo3GebWmoCGkxINrHx8dFpVL9Si6X7/7www8vOzqeQusvONmgAO7u7g8bGhrckRxs9Dr0aNzYSUuvOQLDW9s0iS0xfLIvVIRj7VgHDRDbaDRGREVFHRYaWDHyh3dqa7Xadq2zWdpJz0ansLGJkLZHjx4uUVFRpRD8GxERcVSMcnYUGaKQraysLCQqKuos6ylE4llrPS0FoLKg41YLbpQIDHOAwDgEwsk/yIPF81WrVm3oKMbjs2eztOjMjg5mzJhRHhMTUzp37lxDR8FP7HKIQjYoFJxN8vXXX3+F5ABnCDcOEXo0IIm1nbrcuR/ky31JB1tpWAfMpEmTDh87dixCbICFlMcH2dhRBAzboUGExgpeliiTyWo1Gs1vp0+fXiyTyR4IWRZnyFs0sgGYZ86cGTZ+/PhLEDOIZ/BjD8S+3BCGftyhJTs/s7Sxkw1m5Qa/LlmyZPPmzZt/2dEMygfZABMWa5lM9kyhUGxSKBR7hNqR0dHsYGt5RCUbKPXjjz+6JyQk/P7UqVMR6LjA3oj7YgwM8bK2IxnTc93X+BzcLywsTIZ4O1sBcaR0SDZuQ4QNF4ZG4S4LPH6dO2SEYOyIiAg4GtwQHh5+zJEwcCRdRScbgpOenp6Tl5e3BP/nvhcaT1Rit2XgGh08gxXK0gQf7gcHB1du3rxZGxoaetGRDNIaXcFBsnDhwu3YGMEnHglnrYFivb/wsnqlUmlISEig9bDWAN/GtJKRDfTdu3evori4WFVeXj4DF0cxQBnuW9spzV0XgrT4Eo0RI0ZciIqK2p2VlbW5jZg4zGM6nU6TkZFh3ufFvoSedQrBMB0JBmn8/f3/olard8bFxRUPGDDg5csQ6BIFAUnJhiU8c+bMCKPRqDIYDKo7d+68y6043JArS8ioVCpDVFSUIT4+/o+iIGcHQuAtNsuWLdv65MkTszY4V0Vy4XDR29v7ulKp3BUXF7dj5MiRgpzTaQdw2L0KdkE2RMlkMr1WWFioPnfu3Ii6urpBdXV1PnV1dX5NTU2d0ZEC3jNPT8+bQ4YMuQKVaMCAAXWwk9cZ33aJr4zCnh4PAYLPPn36PJ45c+ZOpVK5c/LkyaftviY6gYJ2RTZreF+7dq1XfX29T48ePf4hk8nqnMAuNhURXhm1ZMmSAvZ05ClTphxISkralZSU9K82ZUKJREPAIcgmGhoOJgiP6wsKCjqr0Wh2y+VymofZsQ2JbHZsnJZUy8vLmzdmzJhjgYGBtS2lpfvSI0Bkk94GpIGTIEBkcxJDUzGlR4DIJr0NSAMnQYDI5iSGpmJKjwCRTXobkAZOggCRzUkMTcWUHgEim/Q2IA2cBAEim5MYmoopPQJENultQBo4CQJENicxNBVTegSIbNLbgDRwEgSIbE5iaCqm9AgQ2aS3AWngJAgQ2ZzE0FRM6REgsklvA9LASRAgsjmJoamY0iNAZJPeBqSBkyBAZHMSQ1MxpUeAyCa9DUgDJ0GAyOYkhqZiSo8AkU16G5AGToIAkc1JDE3FlB4BIpv0NiANnAQBIpuTGJqKKT0CRDbpbUAaOAkCRDYnMTQVU3oEiGzS24A0cBIEiGxOYmgqpvQIENmktwFp4CQI/B8z3f4EmFO1ZAAAAABJRU5ErkJggg==;rotation=-55;" parent="1" vertex="1">
          <mxGeometry x="154.77139453481684" y="444.9154601413545" width="60.45" height="30.08" as="geometry" />
        </mxCell>
        <mxCell id="5CNyuwmGFHUaitE3zNGx-2" value="" style="shape=image;verticalLabelPosition=bottom;labelBackgroundColor=default;verticalAlign=top;aspect=fixed;imageAspect=0;image=data:image/png,iVBORw0KGgoAAAANSUhEUgAAANsAAABtCAYAAAAoEBQoAAAAAXNSR0IArs4c6QAAFdJJREFUeF7tXQtUk1e2BrRaBbW2tVJRUQLLSqUKVpFBRaWCz4DIIyHUoEGQIL5GW23xQa1tZ3TJzMWEhyLgI1pzZ6pznWHEt6iMLq7Lq4s714ojl9Fa9c5SL+ID1Ny7I7vr9J9EAvyPhOx/LVZC/vOfvc+3z3ce++xzflcXuggBQkAUBFxFkUJCCAFCwIXIRpWAEBAJASKbSECTGEKAyEZ1gBAQCQEim0hAkxhCgMhGdYAQEAkBIptIQJMYQoDIRnWAEBAJASKbSECTGEKAyEZ1gBAQCQEim0hAkxhCgMhGdYAQEAkBIptIQJMYQoDIRnWAEBAJASKbSECTGEKAyEZ1gBAQCQEim0hAkxhCgMhGdYAQEAkBIptIQJMYQoDIRnWAEBAJASKbSECTGEKAyEZ1gBAQCQEim0hAkxhCgMhGdYAQEAkBIptIQJMYQoDIRnWAEBAJASKbSECTGEKAyEZ1gBAQCQEim0hACyEmLy9v3ogRIy6GhIRcECJ/ypNfBIhs/OIpam5bt26dO3/+/O0BAQGXExISdiUkJBj8/PxuiKoECbMZAYcgW3V1dZfHjx8Peeutt+4OHjz4R5tL18ET5ubmzl22bNn2pqYmc0nd3NxcQkNDTyiVyt3p6eklrq6uzzo4BA5VPLsj25YtW1IuXbo0oq6ubvAPP/zg9/333/s9f/7cBStU586dXby8vOpkMtnV/v37X/f29v67QqEwvP/++zUOhTwPyur1+rmZmZnbAR9XV1cXk8nk0qVLF5fGxkaX1157zUUul3+rVqv3yOXyAzyIoyzaiYBdkK2iomL4gQMH5uzatWvO7du334ZKw72g1Ybf8R5ULiAeVDT4LTExcQ8Mo+Ry+cF2YuIwj8OcTavVFoHCgAXbw7148cJMOPjN09PzcVxcXJFKpdo9ZsyYvzhMATuYopKSrbS0NMFoNM45ePDgNC6ur7/+usuTJ0/MQyP2YgmHQyeoWJAOPkNDQ6umTZu297PPPvuNq6vr8w5mr58VR6fTaTIyMrbBj506dTKXH/ABkj179sz8HXs8xGfYsGE1SqWyZMaMGYbhw4df78j42FvZJCNbZmZmrl6vXwg9E7TKUCmwZUaiWQML0sJlqQfEYVRISEhlTk5O5pgxY/7d3kDnSx+9Xp+SmZm5FTCEC3syJB8QDDAFfAErHG7CfcBw/PjxlSqVqmTChAmlfn5+T/nSi/KxjIAkZPvoo4+OHDlyJByNjqTx8PBwefjwoVlTdpjITQctOHthJevevbvLo0ePzLfge1NTU6NOp0tLTU0t6YgVQKfTzc/IyCgEMkFP1tLFkhEJiUSNj483JiUl7ab5XUsotv2+qGSrqqoaGBISUtvU1OSKwxoc5kAR2DmYLRUIhk5AVC75sHdDWFauXJnzzTffLGs7TPb5pF6vT9VqtQUsiXCUACQCXLp27ery9Ok/d1pswwbPwwW9YO/evR9pNJrt0dHRu8eOHUvzOx5NLxrZsrKyPt2wYcPXJpPJLJMlBBAPSAcVhOsIwV4N08D/UImQYOyQEtIAAaHSIJkRq7CwsPKTJ09G8oid5Fnl5eWlabXafHZuxioFWOAwHb4D6bBxw3tsepwfI7YBAQH/mZCQsHv69OmGwMDAWskL7OAKiEK2kydPBoSFhf2Hm5ubK9fBgT0YtK7YGiNRuMa3hrW14RESF54DuevXr1+zevXq9Q5us5/UB7JlZGTko4MIGyLAlG2Q8AHEGokGxAOMcCjJDi1ZMsKQPDAw8HhycvLulJQUWL/r0I4noeqHKGR744036u/fv+/BNS77P7cnYgvMDi/hd5aMUKm4HjccOrF54vfDhw9PmTx58iGhABUzXyBbenp6vtAyWeLBiEQul+9RKpV7Z8+e/QehZXek/AUn29SpU/9YVlY2jZ2bsb0YgokGBWOi1wwm/ezcjtsKs8NR7jwNW2kgI+QNeaEOV65cGTpkyJD/cnRDikU2dgiPw1LArlevXg1KpXL77NmzDRMnTqT5XQsVSlCyrV+/fsXq1at/DcZConDd9UA8uGdpEu/l5VUfEBBwbuTIkeeHDh16+unTp/3Pnz8fUlFRMb6mpkYGkRJsT4ceTFxCQHLh8Al70pCQkLP79u2b3K9fv5euSwe9xCAb20giTOyIARoyuIYOHfrXpKQkAzhW3nvvPVq/s1CnBCNbVVXV26NHj76LhoEehu19wIjY46BeSIbFixdvSk5OLvrggw+s9j5Xr17t/9133ylWrly5EWRAz8XO3SAv+MNIClzkBVnwu0ajyd+2bVu6g/LMrDa6/sUoA3e+x8pkyQdrpMHBwadgGSElJaXY1dX1ZeAmXS6CkW358uVfbNq0aTWLMRvlgMZDJwbc8/DwaNi/f//UCRMmVNhqm9OnT4+ByPeampqh2KPBnA16PW4vyhLQ19f34dWrV99w5Mk+LGprtdqttmLVlnRc5xMSi/V04hof6w0GWUC8WbNm7YuLizPExMQ4fXymYGQbNGhQ3a1btwbA8BCMAEaD71xnB1aA+Pj43fv27UtqS4WAZ5YvX/5Vbm7uKnY4Cj0pEA5ICPLhO7v4W1BQkJaWllbYVplSPycG2bhlRPKxvRnYFP7HYb2lXs/Ly6shOjq6CDyao0aNOi81dlLIF4RsRUVFGo1G81PMHuta5vZ0cC86OvrE/v37J7YXAIPBEK1Sqb6DHgx6t8ePH5uzhO9AOFw/Qm/lpEmTKo4dOza+vXKleh4XtYWUb2l5AOThsgw0YFzHFXfJBed1uI7q7+9/OTExEeZ3pf7+/reE1N+e8haEbCEhIScrKyvHc4eNuLCKxoLK7+7u7tLQ0MCbHitWrNi4cePG5WyFYCNM2MgUqEg3btwY6OXl9Xd7Moqtuuj1+gVarTbP1vRtTccuteD8mF2rg3xxyM72eBhwYO0+pA0PDz8MC+cpKSmlbdXPUZ7jrZJjgU+ePPmLsLCwMywA7Lif68natGnToqVLl+byCVhwcPC58+fPj7YUqMyVk52dvW7t2rXZfMoXK6+CgoL0tLQ0vVjyhJCDdaNTp04m6O1gGSE6OvpPQsiSOk/eyVZSUqJKTk7eBQVj3cbsOhrMm6C3mTNnzs4dO3bM4RuEo0eP/iI8PPzMqxbKUWa3bt1cYKvJo0ePILrZrXPnzoCJW1NTU6dOnTq5NYeXwT4fiH5xc33ZXFvDzQSXq6sr5PXTn8lket78G2zUg/vmDXuQtlkP+PxZns1yzLfd3EAN83YZ0/Pnz02AX/fu3U21tbX979696843flLnN3DgwP+JiYnZFRsbC/GZVVLrw5d83sm2Zs2aVV988cVXqCAuiHLnbdCibdu2TaFWq7/lqzBsPoMHD667fv36gJbyflXAs6U1ppbyE/M+11Mopmy+ZCHGuAePO//z9/e/qFaroccr9fX1vcOXXCny4Z1sCxYsyM/Pz09DENkJNjcOEo488PX1FeQ4A7lc/ueDBw9GcncEcEHG3g8jVzB6BR0A1pw7YhkL9WPXuWCUYMnzJ5ZOQshh54WQP+u9xuifCRMmHJo3b57h448/3iGEDkLnyTvZIiIiysvLyydzh3Dsuhrc69at2536+vq+QhUwJSXlt0VFRYtamrdZi4K3FBUvlK625MvubmgeWv7T1iJb8rHXNNgowye7PGPJDh4eHs+io6MNSqVyz/Tp0/9sr2Xi6sU72by8vK7dvHnTBysERvlzh2RxcXEHjUbjTKGAys/P1yxYsMC8/NDSZWkfHTYWrEetpXyEuI9RMJA3uzfNUiyoEPKFztPankTuArmFdOb57jvvvHMzPj5+p1qt3jZq1Ki/Ca1ve/LnnWzu7u6mhoYGs07caHwMQIZ74AVcvXq1YF7AsrKyUTNmzDhv6zAQo0vQtQ2f+L09ALf3WbZlx8gYxLWlXru9ssV8nm2M2S1C3CAIdnMsOIxw8zB8Dw0N3R8bG7t3yZIlRjF1t1UW72Tr169fze3bt2Xs8WqoDC52AkBTp049VFZWNsVWRVubzta4QUsOEmutbWt14Cs9u16JIwZ2axFfcqTIBxsTNmwPh5HsPSAjp+E092wymeyviYmJO2fNmlUUFBR0V4oy2CqTd7JNnDjx0PHjxyPYSsyt0OBu79q16//ev3+/l62KtjbdwoULc7ds2bIQnmMdM+xxbzjEtbaZ0palg9bq1dr0lhxNrc1D6vTc+Sb3f+5mV7ZRZgmHzq4333zzXlxc3B6FQrHTkbb28E42jUaj2759u5Yd4lhzQly+fHl4QEDAJSEqw7hx445UVlaGQyvJkh29jGg49uQpHPrCfIgN7xJCP1vz5FZMbi9naz72kI6LPTvVwB4bvZBsD97cYJpmzpxpVKlUsP72b/ZQntbqwDvZsrOzV6xdu/bXlhSBig0XbofR6XSpqampgkStv/vuu7du3brlCfLYYSFbebnRLEAyjKdE/aV2kLCnHLOVk9tItNbwYqVn55xsj8WS6VUNSGho6ClwgCxevNgmZ5dY5WqLHN7JVlhYGJ+amvotes7YbS1cBceNG3e6oqJiXFsUf9UzxcXFMampqb/DIaOltOhq7tu3L2x8vNjY2AhhGi8aGxtNPXr0cHv27Jk5auTFixfmTwjkaP5EzNhIEvyOnxBpYo4+aZ7Ew/wCIkrg7A78xO/mSBMrUSUQLWLq2rWrOTIFvkPgSXMUyrPa2lrZjRs3+vGNH5/5WQsMgN+RZOxaKDR4Pj4+NbGxsSUxMTHFQUFBP/Cpj5R58U62U6dOjQ4LCzvHDiO5Dge2R8nKytrw5ZdfZvEJQu/evR88ePCgp6XTk1EvGK7AwvC6deuy1/3/xad8sfIqKSmZm5ycvF0see2R01I0Tp8+fZ5PmzatUK1Wl06aNOlce2TZ67O8kw0KOnbs2GOnT5+eyB5HgMet4fABFy+b15G68LWjNz4+vsRoNKq5ZGe9o6xD5Nq1a4N8fHz+214N9Cq9cnJykpcuXVrsSLoD9kg86NFmzZq1PzExsTQ2Nna/I5WjLboKQjadTjcnMzOzFA/bsXSQKtvSwZkglZWVoW0pAPvM1q1bY+bPn/876DmB6BjSxI1CQNnh4eHHjx49Oqm9cqV6vqCgQJ2WlmbXpz1znSJgi5EjR15UqVTbFi1alNccoC0VhKLKFYRsUAJvb++/wWuf2B6GDdnCdROs+ImJiTsMBoO6raX/9NNP1+fk5GQBwVjvJ+SH6zNsVAgYPTc3NzU9PV0QB01by9Ga5xyBbGgLPz+/+wqFYotCoSh1xtd7gV0FI9vnn3++ZsOGDdkINvfMEQxDYudzPXv2/IfRaJRHRkaetbXSweumli1bVlJVVTWCzROHjehNxEk4Rsr37dv33u3bt9+0VY49ptPr9WqtVtvuno27vIBl5QZBw+84SuB+wj022gNwhjNIEhMTi2JiYnZERkaeskcMxdRJMLJduHDBOzg4+Dqc688aj91Gzz1tCxa74cUYn3zyya9iY2N3jh49utoaGNXV1Z7l5eVxS5cu/Rc2DXoZ8XxDjEbgvhlHq9Vu0ev1mWKCzbcsPsjGXYMEErFeXNaZxWKIa5FgT25IWVhY2J9SU1NhHraP7zI7cn6CkQ1Ayc7O/uXatWs3cSME0O3Lnspk6egCMPSgQYOuBAYGXvX19b107969t6uqqobV1tYOq6+v74ln+uMZI3ioK8Y0cltfJHdYWNjZEydOjEV3u6MaUKfTJWdkZLTbQQI4scNttA8Ov4FQuJRjaQ8d2DcoKKgmKSkpNz4+vsjT0/NlcCxdP0NAULKBpMjIyIOHDh2ajkMQ1qjwHQmAUd7s+Y7QkrKv+OXajhtOxa7psWFOOLxEedXV1b5+fn7XHL0u8EU2tA3Oo3GebWmoCGkxINrHx8dFpVL9Si6X7/7www8vOzqeQusvONmgAO7u7g8bGhrckRxs9Dr0aNzYSUuvOQLDW9s0iS0xfLIvVIRj7VgHDRDbaDRGREVFHRYaWDHyh3dqa7Xadq2zWdpJz0ansLGJkLZHjx4uUVFRpRD8GxERcVSMcnYUGaKQraysLCQqKuos6ylE4llrPS0FoLKg41YLbpQIDHOAwDgEwsk/yIPF81WrVm3oKMbjs2eztOjMjg5mzJhRHhMTUzp37lxDR8FP7HKIQjYoFJxN8vXXX3+F5ABnCDcOEXo0IIm1nbrcuR/ky31JB1tpWAfMpEmTDh87dixCbICFlMcH2dhRBAzboUGExgpeliiTyWo1Gs1vp0+fXiyTyR4IWRZnyFs0sgGYZ86cGTZ+/PhLEDOIZ/BjD8S+3BCGftyhJTs/s7Sxkw1m5Qa/LlmyZPPmzZt/2dEMygfZABMWa5lM9kyhUGxSKBR7hNqR0dHsYGt5RCUbKPXjjz+6JyQk/P7UqVMR6LjA3oj7YgwM8bK2IxnTc93X+BzcLywsTIZ4O1sBcaR0SDZuQ4QNF4ZG4S4LPH6dO2SEYOyIiAg4GtwQHh5+zJEwcCRdRScbgpOenp6Tl5e3BP/nvhcaT1Rit2XgGh08gxXK0gQf7gcHB1du3rxZGxoaetGRDNIaXcFBsnDhwu3YGMEnHglnrYFivb/wsnqlUmlISEig9bDWAN/GtJKRDfTdu3evori4WFVeXj4DF0cxQBnuW9spzV0XgrT4Eo0RI0ZciIqK2p2VlbW5jZg4zGM6nU6TkZFh3ufFvoSedQrBMB0JBmn8/f3/olard8bFxRUPGDDg5csQ6BIFAUnJhiU8c+bMCKPRqDIYDKo7d+68y6043JArS8ioVCpDVFSUIT4+/o+iIGcHQuAtNsuWLdv65MkTszY4V0Vy4XDR29v7ulKp3BUXF7dj5MiRgpzTaQdw2L0KdkE2RMlkMr1WWFioPnfu3Ii6urpBdXV1PnV1dX5NTU2d0ZEC3jNPT8+bQ4YMuQKVaMCAAXWwk9cZ33aJr4zCnh4PAYLPPn36PJ45c+ZOpVK5c/LkyaftviY6gYJ2RTZreF+7dq1XfX29T48ePf4hk8nqnMAuNhURXhm1ZMmSAvZ05ClTphxISkralZSU9K82ZUKJREPAIcgmGhoOJgiP6wsKCjqr0Wh2y+VymofZsQ2JbHZsnJZUy8vLmzdmzJhjgYGBtS2lpfvSI0Bkk94GpIGTIEBkcxJDUzGlR4DIJr0NSAMnQYDI5iSGpmJKjwCRTXobkAZOggCRzUkMTcWUHgEim/Q2IA2cBAEim5MYmoopPQJENultQBo4CQJENicxNBVTegSIbNLbgDRwEgSIbE5iaCqm9AgQ2aS3AWngJAgQ2ZzE0FRM6REgsklvA9LASRAgsjmJoamY0iNAZJPeBqSBkyBAZHMSQ1MxpUeAyCa9DUgDJ0GAyOYkhqZiSo8AkU16G5AGToIAkc1JDE3FlB4BIpv0NiANnAQBIpuTGJqKKT0CRDbpbUAaOAkCRDYnMTQVU3oEiGzS24A0cBIEiGxOYmgqpvQIENmktwFp4CQI/B8z3f4EmFO1ZAAAAABJRU5ErkJggg==;rotation=-225;" vertex="1" parent="1">
          <mxGeometry x="281.1513945348168" y="239.35546014135457" width="60.45" height="30.08" as="geometry" />
        </mxCell>
        <mxCell id="5CNyuwmGFHUaitE3zNGx-5" value="" style="shape=image;verticalLabelPosition=bottom;labelBackgroundColor=default;verticalAlign=top;aspect=fixed;imageAspect=0;image=data:image/png,iVBORw0KGgoAAAANSUhEUgAAANsAAABtCAYAAAAoEBQoAAAAAXNSR0IArs4c6QAAFdJJREFUeF7tXQtUk1e2BrRaBbW2tVJRUQLLSqUKVpFBRaWCz4DIIyHUoEGQIL5GW23xQa1tZ3TJzMWEhyLgI1pzZ6pznWHEt6iMLq7Lq4s714ojl9Fa9c5SL+ID1Ny7I7vr9J9EAvyPhOx/LVZC/vOfvc+3z3ce++xzflcXuggBQkAUBFxFkUJCCAFCwIXIRpWAEBAJASKbSECTGEKAyEZ1gBAQCQEim0hAkxhCgMhGdYAQEAkBIptIQJMYQoDIRnWAEBAJASKbSECTGEKAyEZ1gBAQCQEim0hAkxhCgMhGdYAQEAkBIptIQJMYQoDIRnWAEBAJASKbSECTGEKAyEZ1gBAQCQEim0hAkxhCgMhGdYAQEAkBIptIQJMYQoDIRnWAEBAJASKbSECTGEKAyEZ1gBAQCQEim0hAkxhCgMhGdYAQEAkBIptIQJMYQoDIRnWAEBAJASKbSECTGEKAyEZ1gBAQCQEim0hACyEmLy9v3ogRIy6GhIRcECJ/ypNfBIhs/OIpam5bt26dO3/+/O0BAQGXExISdiUkJBj8/PxuiKoECbMZAYcgW3V1dZfHjx8Peeutt+4OHjz4R5tL18ET5ubmzl22bNn2pqYmc0nd3NxcQkNDTyiVyt3p6eklrq6uzzo4BA5VPLsj25YtW1IuXbo0oq6ubvAPP/zg9/333/s9f/7cBStU586dXby8vOpkMtnV/v37X/f29v67QqEwvP/++zUOhTwPyur1+rmZmZnbAR9XV1cXk8nk0qVLF5fGxkaX1157zUUul3+rVqv3yOXyAzyIoyzaiYBdkK2iomL4gQMH5uzatWvO7du334ZKw72g1Ybf8R5ULiAeVDT4LTExcQ8Mo+Ry+cF2YuIwj8OcTavVFoHCgAXbw7148cJMOPjN09PzcVxcXJFKpdo9ZsyYvzhMATuYopKSrbS0NMFoNM45ePDgNC6ur7/+usuTJ0/MQyP2YgmHQyeoWJAOPkNDQ6umTZu297PPPvuNq6vr8w5mr58VR6fTaTIyMrbBj506dTKXH/ABkj179sz8HXs8xGfYsGE1SqWyZMaMGYbhw4df78j42FvZJCNbZmZmrl6vXwg9E7TKUCmwZUaiWQML0sJlqQfEYVRISEhlTk5O5pgxY/7d3kDnSx+9Xp+SmZm5FTCEC3syJB8QDDAFfAErHG7CfcBw/PjxlSqVqmTChAmlfn5+T/nSi/KxjIAkZPvoo4+OHDlyJByNjqTx8PBwefjwoVlTdpjITQctOHthJevevbvLo0ePzLfge1NTU6NOp0tLTU0t6YgVQKfTzc/IyCgEMkFP1tLFkhEJiUSNj483JiUl7ab5XUsotv2+qGSrqqoaGBISUtvU1OSKwxoc5kAR2DmYLRUIhk5AVC75sHdDWFauXJnzzTffLGs7TPb5pF6vT9VqtQUsiXCUACQCXLp27ery9Ok/d1pswwbPwwW9YO/evR9pNJrt0dHRu8eOHUvzOx5NLxrZsrKyPt2wYcPXJpPJLJMlBBAPSAcVhOsIwV4N08D/UImQYOyQEtIAAaHSIJkRq7CwsPKTJ09G8oid5Fnl5eWlabXafHZuxioFWOAwHb4D6bBxw3tsepwfI7YBAQH/mZCQsHv69OmGwMDAWskL7OAKiEK2kydPBoSFhf2Hm5ubK9fBgT0YtK7YGiNRuMa3hrW14RESF54DuevXr1+zevXq9Q5us5/UB7JlZGTko4MIGyLAlG2Q8AHEGokGxAOMcCjJDi1ZMsKQPDAw8HhycvLulJQUWL/r0I4noeqHKGR744036u/fv+/BNS77P7cnYgvMDi/hd5aMUKm4HjccOrF54vfDhw9PmTx58iGhABUzXyBbenp6vtAyWeLBiEQul+9RKpV7Z8+e/QehZXek/AUn29SpU/9YVlY2jZ2bsb0YgokGBWOi1wwm/ezcjtsKs8NR7jwNW2kgI+QNeaEOV65cGTpkyJD/cnRDikU2dgiPw1LArlevXg1KpXL77NmzDRMnTqT5XQsVSlCyrV+/fsXq1at/DcZConDd9UA8uGdpEu/l5VUfEBBwbuTIkeeHDh16+unTp/3Pnz8fUlFRMb6mpkYGkRJsT4ceTFxCQHLh8Al70pCQkLP79u2b3K9fv5euSwe9xCAb20giTOyIARoyuIYOHfrXpKQkAzhW3nvvPVq/s1CnBCNbVVXV26NHj76LhoEehu19wIjY46BeSIbFixdvSk5OLvrggw+s9j5Xr17t/9133ylWrly5EWRAz8XO3SAv+MNIClzkBVnwu0ajyd+2bVu6g/LMrDa6/sUoA3e+x8pkyQdrpMHBwadgGSElJaXY1dX1ZeAmXS6CkW358uVfbNq0aTWLMRvlgMZDJwbc8/DwaNi/f//UCRMmVNhqm9OnT4+ByPeampqh2KPBnA16PW4vyhLQ19f34dWrV99w5Mk+LGprtdqttmLVlnRc5xMSi/V04hof6w0GWUC8WbNm7YuLizPExMQ4fXymYGQbNGhQ3a1btwbA8BCMAEaD71xnB1aA+Pj43fv27UtqS4WAZ5YvX/5Vbm7uKnY4Cj0pEA5ICPLhO7v4W1BQkJaWllbYVplSPycG2bhlRPKxvRnYFP7HYb2lXs/Ly6shOjq6CDyao0aNOi81dlLIF4RsRUVFGo1G81PMHuta5vZ0cC86OvrE/v37J7YXAIPBEK1Sqb6DHgx6t8ePH5uzhO9AOFw/Qm/lpEmTKo4dOza+vXKleh4XtYWUb2l5AOThsgw0YFzHFXfJBed1uI7q7+9/OTExEeZ3pf7+/reE1N+e8haEbCEhIScrKyvHc4eNuLCKxoLK7+7u7tLQ0MCbHitWrNi4cePG5WyFYCNM2MgUqEg3btwY6OXl9Xd7Moqtuuj1+gVarTbP1vRtTccuteD8mF2rg3xxyM72eBhwYO0+pA0PDz8MC+cpKSmlbdXPUZ7jrZJjgU+ePPmLsLCwMywA7Lif68natGnToqVLl+byCVhwcPC58+fPj7YUqMyVk52dvW7t2rXZfMoXK6+CgoL0tLQ0vVjyhJCDdaNTp04m6O1gGSE6OvpPQsiSOk/eyVZSUqJKTk7eBQVj3cbsOhrMm6C3mTNnzs4dO3bM4RuEo0eP/iI8PPzMqxbKUWa3bt1cYKvJo0ePILrZrXPnzoCJW1NTU6dOnTq5NYeXwT4fiH5xc33ZXFvDzQSXq6sr5PXTn8lket78G2zUg/vmDXuQtlkP+PxZns1yzLfd3EAN83YZ0/Pnz02AX/fu3U21tbX979696843flLnN3DgwP+JiYnZFRsbC/GZVVLrw5d83sm2Zs2aVV988cVXqCAuiHLnbdCibdu2TaFWq7/lqzBsPoMHD667fv36gJbyflXAs6U1ppbyE/M+11Mopmy+ZCHGuAePO//z9/e/qFaroccr9fX1vcOXXCny4Z1sCxYsyM/Pz09DENkJNjcOEo488PX1FeQ4A7lc/ueDBw9GcncEcEHG3g8jVzB6BR0A1pw7YhkL9WPXuWCUYMnzJ5ZOQshh54WQP+u9xuifCRMmHJo3b57h448/3iGEDkLnyTvZIiIiysvLyydzh3Dsuhrc69at2536+vq+QhUwJSXlt0VFRYtamrdZi4K3FBUvlK625MvubmgeWv7T1iJb8rHXNNgowye7PGPJDh4eHs+io6MNSqVyz/Tp0/9sr2Xi6sU72by8vK7dvHnTBysERvlzh2RxcXEHjUbjTKGAys/P1yxYsMC8/NDSZWkfHTYWrEetpXyEuI9RMJA3uzfNUiyoEPKFztPankTuArmFdOb57jvvvHMzPj5+p1qt3jZq1Ki/Ca1ve/LnnWzu7u6mhoYGs07caHwMQIZ74AVcvXq1YF7AsrKyUTNmzDhv6zAQo0vQtQ2f+L09ALf3WbZlx8gYxLWlXru9ssV8nm2M2S1C3CAIdnMsOIxw8zB8Dw0N3R8bG7t3yZIlRjF1t1UW72Tr169fze3bt2Xs8WqoDC52AkBTp049VFZWNsVWRVubzta4QUsOEmutbWt14Cs9u16JIwZ2axFfcqTIBxsTNmwPh5HsPSAjp+E092wymeyviYmJO2fNmlUUFBR0V4oy2CqTd7JNnDjx0PHjxyPYSsyt0OBu79q16//ev3+/l62KtjbdwoULc7ds2bIQnmMdM+xxbzjEtbaZ0palg9bq1dr0lhxNrc1D6vTc+Sb3f+5mV7ZRZgmHzq4333zzXlxc3B6FQrHTkbb28E42jUaj2759u5Yd4lhzQly+fHl4QEDAJSEqw7hx445UVlaGQyvJkh29jGg49uQpHPrCfIgN7xJCP1vz5FZMbi9naz72kI6LPTvVwB4bvZBsD97cYJpmzpxpVKlUsP72b/ZQntbqwDvZsrOzV6xdu/bXlhSBig0XbofR6XSpqampgkStv/vuu7du3brlCfLYYSFbebnRLEAyjKdE/aV2kLCnHLOVk9tItNbwYqVn55xsj8WS6VUNSGho6ClwgCxevNgmZ5dY5WqLHN7JVlhYGJ+amvotes7YbS1cBceNG3e6oqJiXFsUf9UzxcXFMampqb/DIaOltOhq7tu3L2x8vNjY2AhhGi8aGxtNPXr0cHv27Jk5auTFixfmTwjkaP5EzNhIEvyOnxBpYo4+aZ7Ew/wCIkrg7A78xO/mSBMrUSUQLWLq2rWrOTIFvkPgSXMUyrPa2lrZjRs3+vGNH5/5WQsMgN+RZOxaKDR4Pj4+NbGxsSUxMTHFQUFBP/Cpj5R58U62U6dOjQ4LCzvHDiO5Dge2R8nKytrw5ZdfZvEJQu/evR88ePCgp6XTk1EvGK7AwvC6deuy1/3/xad8sfIqKSmZm5ycvF0see2R01I0Tp8+fZ5PmzatUK1Wl06aNOlce2TZ67O8kw0KOnbs2GOnT5+eyB5HgMet4fABFy+b15G68LWjNz4+vsRoNKq5ZGe9o6xD5Nq1a4N8fHz+214N9Cq9cnJykpcuXVrsSLoD9kg86NFmzZq1PzExsTQ2Nna/I5WjLboKQjadTjcnMzOzFA/bsXSQKtvSwZkglZWVoW0pAPvM1q1bY+bPn/876DmB6BjSxI1CQNnh4eHHjx49Oqm9cqV6vqCgQJ2WlmbXpz1znSJgi5EjR15UqVTbFi1alNccoC0VhKLKFYRsUAJvb++/wWuf2B6GDdnCdROs+ImJiTsMBoO6raX/9NNP1+fk5GQBwVjvJ+SH6zNsVAgYPTc3NzU9PV0QB01by9Ga5xyBbGgLPz+/+wqFYotCoSh1xtd7gV0FI9vnn3++ZsOGDdkINvfMEQxDYudzPXv2/IfRaJRHRkaetbXSweumli1bVlJVVTWCzROHjehNxEk4Rsr37dv33u3bt9+0VY49ptPr9WqtVtvuno27vIBl5QZBw+84SuB+wj022gNwhjNIEhMTi2JiYnZERkaeskcMxdRJMLJduHDBOzg4+Dqc688aj91Gzz1tCxa74cUYn3zyya9iY2N3jh49utoaGNXV1Z7l5eVxS5cu/Rc2DXoZ8XxDjEbgvhlHq9Vu0ev1mWKCzbcsPsjGXYMEErFeXNaZxWKIa5FgT25IWVhY2J9SU1NhHraP7zI7cn6CkQ1Ayc7O/uXatWs3cSME0O3Lnspk6egCMPSgQYOuBAYGXvX19b107969t6uqqobV1tYOq6+v74ln+uMZI3ioK8Y0cltfJHdYWNjZEydOjEV3u6MaUKfTJWdkZLTbQQI4scNttA8Ov4FQuJRjaQ8d2DcoKKgmKSkpNz4+vsjT0/NlcCxdP0NAULKBpMjIyIOHDh2ajkMQ1qjwHQmAUd7s+Y7QkrKv+OXajhtOxa7psWFOOLxEedXV1b5+fn7XHL0u8EU2tA3Oo3GebWmoCGkxINrHx8dFpVL9Si6X7/7www8vOzqeQusvONmgAO7u7g8bGhrckRxs9Dr0aNzYSUuvOQLDW9s0iS0xfLIvVIRj7VgHDRDbaDRGREVFHRYaWDHyh3dqa7Xadq2zWdpJz0ansLGJkLZHjx4uUVFRpRD8GxERcVSMcnYUGaKQraysLCQqKuos6ylE4llrPS0FoLKg41YLbpQIDHOAwDgEwsk/yIPF81WrVm3oKMbjs2eztOjMjg5mzJhRHhMTUzp37lxDR8FP7HKIQjYoFJxN8vXXX3+F5ABnCDcOEXo0IIm1nbrcuR/ky31JB1tpWAfMpEmTDh87dixCbICFlMcH2dhRBAzboUGExgpeliiTyWo1Gs1vp0+fXiyTyR4IWRZnyFs0sgGYZ86cGTZ+/PhLEDOIZ/BjD8S+3BCGftyhJTs/s7Sxkw1m5Qa/LlmyZPPmzZt/2dEMygfZABMWa5lM9kyhUGxSKBR7hNqR0dHsYGt5RCUbKPXjjz+6JyQk/P7UqVMR6LjA3oj7YgwM8bK2IxnTc93X+BzcLywsTIZ4O1sBcaR0SDZuQ4QNF4ZG4S4LPH6dO2SEYOyIiAg4GtwQHh5+zJEwcCRdRScbgpOenp6Tl5e3BP/nvhcaT1Rit2XgGh08gxXK0gQf7gcHB1du3rxZGxoaetGRDNIaXcFBsnDhwu3YGMEnHglnrYFivb/wsnqlUmlISEig9bDWAN/GtJKRDfTdu3evori4WFVeXj4DF0cxQBnuW9spzV0XgrT4Eo0RI0ZciIqK2p2VlbW5jZg4zGM6nU6TkZFh3ufFvoSedQrBMB0JBmn8/f3/olard8bFxRUPGDDg5csQ6BIFAUnJhiU8c+bMCKPRqDIYDKo7d+68y6043JArS8ioVCpDVFSUIT4+/o+iIGcHQuAtNsuWLdv65MkTszY4V0Vy4XDR29v7ulKp3BUXF7dj5MiRgpzTaQdw2L0KdkE2RMlkMr1WWFioPnfu3Ii6urpBdXV1PnV1dX5NTU2d0ZEC3jNPT8+bQ4YMuQKVaMCAAXWwk9cZ33aJr4zCnh4PAYLPPn36PJ45c+ZOpVK5c/LkyaftviY6gYJ2RTZreF+7dq1XfX29T48ePf4hk8nqnMAuNhURXhm1ZMmSAvZ05ClTphxISkralZSU9K82ZUKJREPAIcgmGhoOJgiP6wsKCjqr0Wh2y+VymofZsQ2JbHZsnJZUy8vLmzdmzJhjgYGBtS2lpfvSI0Bkk94GpIGTIEBkcxJDUzGlR4DIJr0NSAMnQYDI5iSGpmJKjwCRTXobkAZOggCRzUkMTcWUHgEim/Q2IA2cBAEim5MYmoopPQJENultQBo4CQJENicxNBVTegSIbNLbgDRwEgSIbE5iaCqm9AgQ2aS3AWngJAgQ2ZzE0FRM6REgsklvA9LASRAgsjmJoamY0iNAZJPeBqSBkyBAZHMSQ1MxpUeAyCa9DUgDJ0GAyOYkhqZiSo8AkU16G5AGToIAkc1JDE3FlB4BIpv0NiANnAQBIpuTGJqKKT0CRDbpbUAaOAkCRDYnMTQVU3oEiGzS24A0cBIEiGxOYmgqpvQIENmktwFp4CQI/B8z3f4EmFO1ZAAAAABJRU5ErkJggg==;rotation=-95;" vertex="1" parent="1">
          <mxGeometry x="260.0013945348168" y="500.0054601413545" width="60.45" height="30.08" as="geometry" />
        </mxCell>
        <mxCell id="5CNyuwmGFHUaitE3zNGx-8" value="" style="shape=image;verticalLabelPosition=bottom;labelBackgroundColor=default;verticalAlign=top;aspect=fixed;imageAspect=0;image=data:image/png,iVBORw0KGgoAAAANSUhEUgAAAQIAAABkCAYAAABtlT6jAAAAAXNSR0IArs4c6QAAFGZJREFUeF7tXXtQVEe6nycIEpPadUXqaiIJEaLrGhOJdcX1FQy4oTZms0p4hGcgavZq1GvVdVO38sfNFhVjNFmjUWSQx8AAo4AgAWQk6LKzRrgqItZFhEFNCcRXiTyd161vlnY7JwfmzHBmOMx8UzU1j9P9dffv+/rXX3/dp49YhC9EABFwewTEbo8AAoAIIAIiJAI0AkQAEUAiQBtABBABERIBGgEigAggEaANIAKIgAiJAI0AEUAEkAjQBhABRAAQwFUDtANEABFAIkAbQAQQAfQI0AYQAUQApwZoA4gAIoAxArQBRAARsCCAwUI0BEQAEUAiQBtABBAB9AjQBhABRACnBmgDiAAigDECtAFEABHAYCHaACKACPwTAVw1QEtABBABJAK0AUQAEUCPAG0AEUAEcGqANoAIIAIYI0AbQAQQAQwWog0gAogArhqgDSACiMAIArh8iKaACCACuHyINoAIIAK4fIg2gAggArh8iDaACCACuHyINoAIIAK4fIg2gAggArh8iDaACCACuHyINoAIIAIEAdxHgLaACCACuI8AbQARQARwHwHaACKACOA+AmHYwO3bt73VanXy8ePH3zl79uxKYdQKa+FOCGCMYAK1XVFREZ6ZmZlQXV29oa+vT7x06dIGrVb72gRWya2K7unp8a2vr1/S0dExp7Oz84Xu7u7nr1+/7n/jxo3nZDKZyM/P70ZAQED7s88+2+7v798RFBSkCwwMPO3v7z/kakAhEThZoy0tLQFZWVnJxcXFCe3t7TPB4AwGg2jKlCmil156qenixYsvO7lKblfc+fPngzMyMhILCwvfe/jwoY9IJDKDdywWi0VmM3z950sqlYqMRiNcsPyGa97e3qLw8PCCDz74IDMsLKzGVcBDInCCJs1ms0SpVMbv378/6cKFCyEGg8GCu0QiEZlMpic1WLhwYUtTU9OvnVAltywiPz9/Q0FBQUJZWVk4W8dnA4UmB0IMkA4IYcaMGTcSEhJyIyIi8hYvXvx/kxlUJAIHaq+mpmaZSqVKKioqerevr8/rqaeeEj169MhSIngAQ0M/9TAXLFhwrbm5OdCBVXJL0V1dXb9KSUnJrKioeNNsNlts3sfHR9TX12cVD7rzMxPL5XKRXq8XPf300w8///zznampqUesChRoAiQCnhXT0dHhW1hYmJSenh5/+/btucPDwz9zOUmRTI9g3rx5HVevXn2B5yq5tbhz5869un79+mPd3d1zoNMy3X8u4DDz0HqDqR14dfCOiYnJzcvLi+MiU2hpkAh40khhYeEGpVKZUFVVFQ4GJ5VKxTC/ZL48PDxEjx8/tvxNf4ffgYGBN1tbW5/jqUpuL6akpGTd22+/XQzTABjZoUNDPAZe8B06NJuOmMAx08JvQg4kpkA8vICAgA6tVrtwxowZ1t0NAWkIiWAcytBqtYtUKlVydnZ2TG9v79Nk3kkMjcz/weCg0w8PD1sCTmBE4FYSQiBG5e/vf1un0/3bOKqEWUcQiI2NzVUqlTEymcxi44QA4Ds9inMBjHR8Op4D+UCv8CL/k3QSicR85syZV0JCQi5xkS+ENEgENmrhxx9/9CkoKEgqKSlJ/O67714mowV0cDAMYnAwAoGBMEcdMjIRd5IYFPyeNWvWjz/88IOvjVXC5AwEtm/f/tf9+/f/B+iCXgWgvTDQC62v0UCkpwGjEQJZ+aF1CWRw//79Xz7zzDMPJoOCkAg4aqmsrGxtZmZmYmVl5R9hZIfR39PT0+Ja0u4mGB4diCLBJviEN/EC2IzHz8/vfldX1y85VgmTsSCg0WjWhIaGnqIvQWcGvYC+IEDLnJKNBSSTCIgspndAiJ8mixdffPHatWvXJkXwF4lgDCu4evXqi3l5eUkKhSLuzp07fhBxBgNgCziRjk0bDiEB2oWk16SJHJLH19f3UU9PzzTs4fYjMH369Nv37t3zA31ArIYZkKUxB3JgegxsJdM6Y14nxEDLIWWA/uPi4o4ePXo0yf4WOScnEgEDZ7PZLFepVLEHDx6Mr6+vX+6sbdhgUD4+PkO9vb1ezlG965Wybt26vIqKimgyJRhr6c9ZrQdC2rJly2d79+79L2eVaU85SAQjqNXV1f0WmLu0tDTq4cOHnvA37b7bA64teWAUmTp16uO+vj5L2fiyDQHw2lJTU7NBZyNTN9sEOCg18Q5qa2uXrV69+u8OKmbcYt2aCHQ63UylUplYUlISf+HChbkw+hNXDxTInAeOG20rAry9vQ0DAwNyR5fjivKXL19ed/bs2RXQNtAd7Pzr7+8XRFPBM0lOTk5PT0//QBAVYqmEWxIBrPlnZGTE19bWrjUajU8woD0AWwJK41EuHW/w9PQ0DQ8PS8cjzx3zgjf3+uuvnyExHIKBPZuH+MYP6gBBSk9Pz6GWlpZZs2bNusd3GXzIcxsiaGxsfOXgwYOw7Pdeb2/vNBjtIcDjTPefTWG0scrlcpNer0cisNGyo6Ojs/Pz8y07+giBA64wEtP7B2wUy2tysLPPPvts644dO/7Kq2CehLk0EZA1f9jxd/78+UXM4BEd6ScRZEgD30dbHeAJ9ydi6Ij0SP1cWid84wdbugMDA7v0er1lWkemc2z3cvBdNhd54A3AkjHYVHBw8IWGhoZXueRzdhqXNLra2trfHTp0KFGtVr8D7iLdudnIgN7cM9rdZo5UDClzJC4hEYvF/7oX1pEFu4DsXbt2/SUtLe3PhFDpdX7m0uFENZdeRtZoNCtXr159ZqLqMlq5LkMETU1NgXl5edD543Q6nR8JGpFNJEwArMUAnDm/JAYLBGAymTzFYrFeaIbCd33g1mxYmOns7JRMnTpVJpPJpAMDA7LHjx/LTCaTh8lkkhuNRtnw8LDcZDKR/6V6vV5mMBgsb5PJJP7oo48Ot7a2/uRGLVvuI+C7XUx5tNcJ1w4fPpyUkpJy1NHl2ip/UhOB2WyWwbJRTk5OQn19/W9pd14oo4E1hdD19PDwMJ86dWqJl5cX3JUEHUEyODgoE4vFcjB86BjQUeATOofRaJQODw/LYO8DxBbgf0g30lmk0JlGOpYlrV6vt/w2GAzQuaSA3+DgoBw+RzqW5brRaLSUB/+DfJAL+YlsuA6/4frQ0JAlncFggOtP6gm/TSaTZGhoSAJlwRkMkIcOzo6TbInXJGgbZrZx165dn6alpf23Nbtw9nVBgzgaGKdPn16uUCiSjx07FgdzL7KDDEAnd5NZG/GdDfRY5TGnIyRGQbwa+BxtB9xYu94gH5kW0TKYu+DGkm8tvzUcSX6uu/isyZuM12n9xsXFqXJycqKF1o5JQwSw5p+bm5uUm5ub2NbWFsAEkrmNdyL2AdirXGIoMI2BzTB0zICWSTo9+YRrbLfR0te5bKEdqwyueynY6kYTMymDrttYBGQvlkLMR3t9ixcv/t/GxsbFQqun4IkgKytrg0qlggM+1wJ45FQYMtqRZUDa0IjxT/TSIFdl0/X08vKyeDiw7MWl/iQ4RpdFd35CkOQ6GzGMRRZ8dVymHHchAWgnTQTTp09/ePfu3We42oaz0gmSCBoaGhbBnX4qlSq+v79/GlkLJgbLDAbBNABeZIow2kjpLFBtLQfcZ3hBu+h1b7ZOTtKRMpgjtr0dl5mP/GbzCNg8Dlvy24rPZE9PEwHseBwYGBBcvxNMhdra2qadOHEiHs74a2lpeZl5np8th0lAWiANLqfPCMnI6CkBH1Ob0YJxXKcObPltIZpxBgOFpBre6jJz5sy73d3dv+JNIE+CJpwI4Gz/I0eOJFRWVkYybxaBkRJG+8HBwSfNJaMn/EGfDEMfRUWfDMR1jssTnjaLgdGCBNTAG6CnPvToby1YOJrrb63jWgs2WuvM1vKzAcKViGwGU8AZCI6LFi26evHixflCq+qEEgHc75+bmxt18uTJDc3NzfNpo2IeCEHuLycAUmvvP4uogxw+RlRnKYv2BCZy27Oj5/HWSMVZeDuzHNJmYq+hoaF1Go1mlTPrwKWsCSUCuoLwYA+lUhlbXFwcqdPpZrGNhvQ+ctJhyK5AZtxgrMbTOw25gOToNDRxsR2kAeXbGv0ndbbmETijbcwybGkLl/qzeSVCIR0myUdFRalUKhUuH3IxvHPnzi3LysqKLikpiezp6fkF5GFG0JlMSxs+vWpApgZs69hCOLiCxoPsj7fXo7FnRCdTLYIZ85NedWBeg7pb22dgbRpA56cJj5RFB0zZCIRMpcggwXZiEBebc2Qaerq3devWfV999dV2R5Znj2zBeASjVb68vPyNoqKiGCAFcmgHGTUJwLD+Dh0eVg2IcY61vk4b2UTHEOh96CN1MY+QnBjax3YApz2KHi0PlA94AtFCeXAHpFwu18tkMr1EIjFIpVKjVCrVw9vDw8Mgl8uNcF0ulxvEYrFBIpEYYUs0/Ofh4QH5LNdJHkgP16n8BplMBm+SBs58J3lBvuUN10E+lAmfJI+Hh4cR/oO6yeXyxwcOHNh08uTJd6B9bMfE8YmVPbJobwUwVigUKfHx8Rn2yHJkHsETAd14tVr9B7VaHQ1PDR5tRYD2HEgno91EcsikLe6pIxXAkG3+5JNP/jJ79uxr0AGhY4Hhjxg9dBzoEEboFNCxoMNAR4SOAZ3Jy8vLch3SwTWDwWCcMmWKEf6H73q93ujn5wfPWLN0Lie2y2FF1dTUvBkWFnaS7ajxiSZ52ksFkjUajUaDweAhFov/9Zw7hyFjm+BJRQSkabC3PScn510ghW+//day0YjN9SduLXwCcbAdMGkbXPynZkwDzN9///1rS5YsaeS/JNeVOH/+/PM3b94MhsfJkd2Z0FouG7KcicrGjRszDh06lOLMMrmWNSmJgG7cnTt3nlKr1VH5+fnRjY2NK2D/Ab2USNLSW5DHmj5wBY7PdDQZ1NXVLV25cuU/+JTv6rIOHDjwpw8//HA/tFMoQUIac/AGwDvRaDTBq1atEiTJT3oioAHv7Oz0y8/PjyooKIhpbW19BfYl0CMEfSOSUAKFzFFLo9EsDw0N/Zurd14+2wcH0CxcuLC9u7t7Bnh9tqwg8VkPNlkkbrFy5crTdXV1oY4uz175LkUENAjNzc0vwNShqKgo+vr160HMvftCIQIygpH61NTUrFqzZk2dvQp113w7duzY88UXX+ygSYC5OWuisAHdZmRkxCUmJuZOVB2sleuyREA3XKvVLiguLo4pLS2NIXsUIGZAOh8ZlZlBRToNLQ/SkbzjDTrSZcL38vLyNRERERprisPrP0Xg8uXLQStWrKh/8OCB5UlRxBNkI/zRlp7twZSM+GxBaiIvJSXlyJEjR1Ltke+sPG5BBDSYGo3m32H6oNFoom/evPnk8WJk/RmmD7AMSW9fJjEF+kgzvhTEJILS0tK1b731VhVf8t1JDmzUiY6OzmMeWgoY0ztT+T6rgiYWKJvc/AY2NWfOnI62trZ5YrHY8pw8ob7cjghoRVRWVr5eWFgYBTc7PXjwQEZfIwEeepmSBBzJ2jAfNzUxiaCkpOT369atKxeqwQi9Xtu2bdu7b9++bSPLdT97NsXI3X+WPRN87dEgG8HY9jE0NDQsCA4OviJ03NyaCGjllJWVvaVUKqNPnDixATonrD7QIwnbbj8+jkNjEkFBQcHbkZGRpUI3HCHXb+nSpWe0Wu1yQtjE22OeTM23Z8A8WOabb77ZuGnTpsNCxorUDYmAoSWz2SzNzs6GPQpRVVVVb7KN+jCaQGyAjzPzmUSQm5u7PjY29thkMB4h19Hb2/vR0NCQD1lFABIgT6nm814T+vZ4Ok6wdu3a6srKynAhY0TXDYlgDE3du3dvWnFx8buwHAnnJNJBKPjOx4YVJhFkZ2dHxcXFFUwWAxJyPcPCwr4lJ1uxHWPP55kVxBbAy0hNTd3z9ddf7xQyNsy6IRFw1BY8SKOkpCQqJycn9vLly6+CEfG9BAkubEZGxntJSUlKjtXCZFYQyMzMjEpOTs4n0wS+tx1DxwdbgACht7e3ac+ePfGbN2+edPpDIrCjK7W1tb0AQUbwFK5cuRJkhwjWLEAE6enpCe+//342XzJRjkik1WoXbd68+XBzc3Mwmerx4c3R2IaEhJzbvXv3ppCQkEuTEXMkgnFq7dKlS/Nh2Qo2Lul0ujkgjnb3SUCRGVikA1X0NYVC8X5ycrJinNXC7AwEdDrdlN27d+/Oz89P7O3ttcQOngTKxOKf3IdC38pMdMm2WxHSBQUFXUlOTs7evn37l5P5Ri4kAh67TENDw2vZ2dlwd+S7XV1dvmRnG/kkxgRGCC4quSeCfIfRau/evRvh6T08VgtFUQh0d3dPVSgUG4uKihKampp+TZ+XAMlogqCfW0iDCPoMDw+viIyMzHKVwC4SgYO6SVVV1arCwsLosrKyqPv3708FA6MPz4Bi6U1LxAD37dv3p23bth1wULVQLIVAdXX1UoVCsbm9vf03HR0dM/v7+y2HisJqEB1LmD17dk9AQECbr6+vbu7cuTffeOON0mXLlgny5iF7FYxEYC9yNuRTq9URx48fh41L6+FxYfB0XCAFMDb6HghwNb/88sutW7ZsEeSjs21o8qRN2tbW5mkymaYPDQ35ymSyu/PmzftBiOcH8A0wEgHfiFqRl5mZGQleQnl5+e/hOYDk6HVwUYEU0tLS/nPXrl1fOLlaWJybI4BEMEEGcOvWLa/q6uqooqKiqFOnTlluT4U56c6dO//86aefpk1QtbBYN0UAiUAAir9169Yvjh07BqQQExERUfnxxx//jwCqhVVwIwSQCASm7I6Ojueef/75GwKrFlbHxRFAInBxBWPzEAEuCCARcEEJ0yACLo4AEoGLKxibhwhwQQCJgAtKmAYRcHEEkAhcXMHYPESACwJIBFxQwjSIgIsjgETg4grG5iECXBBAIuCCEqZBBFwcASQCF1cwNg8R4IIAEgEXlDANIuDiCCARuLiCsXmIABcEkAi4oIRpEAEXR+D/Aba+sfvzItDUAAAAAElFTkSuQmCC;rotation=-195;" vertex="1" parent="1">
          <mxGeometry x="341.6020533059882" y="320.00394953317806" width="51.6" height="20" as="geometry" />
        </mxCell>
        <mxCell id="5CNyuwmGFHUaitE3zNGx-9" value="SmartLight false" style="text;strokeColor=none;align=center;fillColor=none;html=1;verticalAlign=middle;whiteSpace=wrap;rounded=0;" vertex="1" parent="1">
          <mxGeometry x="367.6" y="322.52" width="90" height="30" as="geometry" />
        </mxCell>
        <mxCell id="5CNyuwmGFHUaitE3zNGx-14" value="SmartLight = true" style="text;strokeColor=none;align=center;fillColor=none;html=1;verticalAlign=middle;whiteSpace=wrap;rounded=0;" vertex="1" parent="1">
          <mxGeometry x="100.44999999999999" y="385.52" width="70" height="30" as="geometry" />
        </mxCell>
        <mxCell id="5CNyuwmGFHUaitE3zNGx-15" value="SmartLight = true" style="text;strokeColor=none;align=center;fillColor=none;html=1;verticalAlign=middle;whiteSpace=wrap;rounded=0;" vertex="1" parent="1">
          <mxGeometry x="190.6" y="410" width="70" height="30" as="geometry" />
        </mxCell>
        <mxCell id="5CNyuwmGFHUaitE3zNGx-16" value="" style="shape=image;verticalLabelPosition=bottom;labelBackgroundColor=default;verticalAlign=top;aspect=fixed;imageAspect=0;image=data:image/png,iVBORw0KGgoAAAANSUhEUgAAAQIAAABkCAYAAABtlT6jAAAAAXNSR0IArs4c6QAAFGZJREFUeF7tXXtQVEe6nycIEpPadUXqaiIJEaLrGhOJdcX1FQy4oTZms0p4hGcgavZq1GvVdVO38sfNFhVjNFmjUWSQx8AAo4AgAWQk6LKzRrgqItZFhEFNCcRXiTyd161vlnY7JwfmzHBmOMx8UzU1j9P9dffv+/rXX3/dp49YhC9EABFwewTEbo8AAoAIIAIiJAI0AkQAEUAiQBtABBABERIBGgEigAggEaANIAKIgAiJAI0AEUAEkAjQBhABRAAQwFUDtANEABFAIkAbQAQQAfQI0AYQAUQApwZoA4gAIoAxArQBRAARsCCAwUI0BEQAEUAiQBtABBAB9AjQBhABRACnBmgDiAAigDECtAFEABHAYCHaACKACPwTAVw1QEtABBABJAK0AUQAEUCPAG0AEUAEcGqANoAIIAIYI0AbQAQQAQwWog0gAogArhqgDSACiMAIArh8iKaACCACuHyINoAIIAK4fIg2gAggArh8iDaACCACuHyINoAIIAK4fIg2gAggArh8iDaACCACuHyINoAIIAIEAdxHgLaACCACuI8AbQARQARwHwHaACKACOA+AmHYwO3bt73VanXy8ePH3zl79uxKYdQKa+FOCGCMYAK1XVFREZ6ZmZlQXV29oa+vT7x06dIGrVb72gRWya2K7unp8a2vr1/S0dExp7Oz84Xu7u7nr1+/7n/jxo3nZDKZyM/P70ZAQED7s88+2+7v798RFBSkCwwMPO3v7z/kakAhEThZoy0tLQFZWVnJxcXFCe3t7TPB4AwGg2jKlCmil156qenixYsvO7lKblfc+fPngzMyMhILCwvfe/jwoY9IJDKDdywWi0VmM3z950sqlYqMRiNcsPyGa97e3qLw8PCCDz74IDMsLKzGVcBDInCCJs1ms0SpVMbv378/6cKFCyEGg8GCu0QiEZlMpic1WLhwYUtTU9OvnVAltywiPz9/Q0FBQUJZWVk4W8dnA4UmB0IMkA4IYcaMGTcSEhJyIyIi8hYvXvx/kxlUJAIHaq+mpmaZSqVKKioqerevr8/rqaeeEj169MhSIngAQ0M/9TAXLFhwrbm5OdCBVXJL0V1dXb9KSUnJrKioeNNsNlts3sfHR9TX12cVD7rzMxPL5XKRXq8XPf300w8///zznampqUesChRoAiQCnhXT0dHhW1hYmJSenh5/+/btucPDwz9zOUmRTI9g3rx5HVevXn2B5yq5tbhz5869un79+mPd3d1zoNMy3X8u4DDz0HqDqR14dfCOiYnJzcvLi+MiU2hpkAh40khhYeEGpVKZUFVVFQ4GJ5VKxTC/ZL48PDxEjx8/tvxNf4ffgYGBN1tbW5/jqUpuL6akpGTd22+/XQzTABjZoUNDPAZe8B06NJuOmMAx08JvQg4kpkA8vICAgA6tVrtwxowZ1t0NAWkIiWAcytBqtYtUKlVydnZ2TG9v79Nk3kkMjcz/weCg0w8PD1sCTmBE4FYSQiBG5e/vf1un0/3bOKqEWUcQiI2NzVUqlTEymcxi44QA4Ds9inMBjHR8Op4D+UCv8CL/k3QSicR85syZV0JCQi5xkS+ENEgENmrhxx9/9CkoKEgqKSlJ/O67714mowV0cDAMYnAwAoGBMEcdMjIRd5IYFPyeNWvWjz/88IOvjVXC5AwEtm/f/tf9+/f/B+iCXgWgvTDQC62v0UCkpwGjEQJZ+aF1CWRw//79Xz7zzDMPJoOCkAg4aqmsrGxtZmZmYmVl5R9hZIfR39PT0+Ja0u4mGB4diCLBJviEN/EC2IzHz8/vfldX1y85VgmTsSCg0WjWhIaGnqIvQWcGvYC+IEDLnJKNBSSTCIgspndAiJ8mixdffPHatWvXJkXwF4lgDCu4evXqi3l5eUkKhSLuzp07fhBxBgNgCziRjk0bDiEB2oWk16SJHJLH19f3UU9PzzTs4fYjMH369Nv37t3zA31ArIYZkKUxB3JgegxsJdM6Y14nxEDLIWWA/uPi4o4ePXo0yf4WOScnEgEDZ7PZLFepVLEHDx6Mr6+vX+6sbdhgUD4+PkO9vb1ezlG965Wybt26vIqKimgyJRhr6c9ZrQdC2rJly2d79+79L2eVaU85SAQjqNXV1f0WmLu0tDTq4cOHnvA37b7bA64teWAUmTp16uO+vj5L2fiyDQHw2lJTU7NBZyNTN9sEOCg18Q5qa2uXrV69+u8OKmbcYt2aCHQ63UylUplYUlISf+HChbkw+hNXDxTInAeOG20rAry9vQ0DAwNyR5fjivKXL19ed/bs2RXQNtAd7Pzr7+8XRFPBM0lOTk5PT0//QBAVYqmEWxIBrPlnZGTE19bWrjUajU8woD0AWwJK41EuHW/w9PQ0DQ8PS8cjzx3zgjf3+uuvnyExHIKBPZuH+MYP6gBBSk9Pz6GWlpZZs2bNusd3GXzIcxsiaGxsfOXgwYOw7Pdeb2/vNBjtIcDjTPefTWG0scrlcpNer0cisNGyo6Ojs/Pz8y07+giBA64wEtP7B2wUy2tysLPPPvts644dO/7Kq2CehLk0EZA1f9jxd/78+UXM4BEd6ScRZEgD30dbHeAJ9ydi6Ij0SP1cWid84wdbugMDA7v0er1lWkemc2z3cvBdNhd54A3AkjHYVHBw8IWGhoZXueRzdhqXNLra2trfHTp0KFGtVr8D7iLdudnIgN7cM9rdZo5UDClzJC4hEYvF/7oX1pEFu4DsXbt2/SUtLe3PhFDpdX7m0uFENZdeRtZoNCtXr159ZqLqMlq5LkMETU1NgXl5edD543Q6nR8JGpFNJEwArMUAnDm/JAYLBGAymTzFYrFeaIbCd33g1mxYmOns7JRMnTpVJpPJpAMDA7LHjx/LTCaTh8lkkhuNRtnw8LDcZDKR/6V6vV5mMBgsb5PJJP7oo48Ot7a2/uRGLVvuI+C7XUx5tNcJ1w4fPpyUkpJy1NHl2ip/UhOB2WyWwbJRTk5OQn19/W9pd14oo4E1hdD19PDwMJ86dWqJl5cX3JUEHUEyODgoE4vFcjB86BjQUeATOofRaJQODw/LYO8DxBbgf0g30lmk0JlGOpYlrV6vt/w2GAzQuaSA3+DgoBw+RzqW5brRaLSUB/+DfJAL+YlsuA6/4frQ0JAlncFggOtP6gm/TSaTZGhoSAJlwRkMkIcOzo6TbInXJGgbZrZx165dn6alpf23Nbtw9nVBgzgaGKdPn16uUCiSjx07FgdzL7KDDEAnd5NZG/GdDfRY5TGnIyRGQbwa+BxtB9xYu94gH5kW0TKYu+DGkm8tvzUcSX6uu/isyZuM12n9xsXFqXJycqKF1o5JQwSw5p+bm5uUm5ub2NbWFsAEkrmNdyL2AdirXGIoMI2BzTB0zICWSTo9+YRrbLfR0te5bKEdqwyueynY6kYTMymDrttYBGQvlkLMR3t9ixcv/t/GxsbFQqun4IkgKytrg0qlggM+1wJ45FQYMtqRZUDa0IjxT/TSIFdl0/X08vKyeDiw7MWl/iQ4RpdFd35CkOQ6GzGMRRZ8dVymHHchAWgnTQTTp09/ePfu3We42oaz0gmSCBoaGhbBnX4qlSq+v79/GlkLJgbLDAbBNABeZIow2kjpLFBtLQfcZ3hBu+h1b7ZOTtKRMpgjtr0dl5mP/GbzCNg8Dlvy24rPZE9PEwHseBwYGBBcvxNMhdra2qadOHEiHs74a2lpeZl5np8th0lAWiANLqfPCMnI6CkBH1Ob0YJxXKcObPltIZpxBgOFpBre6jJz5sy73d3dv+JNIE+CJpwI4Gz/I0eOJFRWVkYybxaBkRJG+8HBwSfNJaMn/EGfDEMfRUWfDMR1jssTnjaLgdGCBNTAG6CnPvToby1YOJrrb63jWgs2WuvM1vKzAcKViGwGU8AZCI6LFi26evHixflCq+qEEgHc75+bmxt18uTJDc3NzfNpo2IeCEHuLycAUmvvP4uogxw+RlRnKYv2BCZy27Oj5/HWSMVZeDuzHNJmYq+hoaF1Go1mlTPrwKWsCSUCuoLwYA+lUhlbXFwcqdPpZrGNhvQ+ctJhyK5AZtxgrMbTOw25gOToNDRxsR2kAeXbGv0ndbbmETijbcwybGkLl/qzeSVCIR0myUdFRalUKhUuH3IxvHPnzi3LysqKLikpiezp6fkF5GFG0JlMSxs+vWpApgZs69hCOLiCxoPsj7fXo7FnRCdTLYIZ85NedWBeg7pb22dgbRpA56cJj5RFB0zZCIRMpcggwXZiEBebc2Qaerq3devWfV999dV2R5Znj2zBeASjVb68vPyNoqKiGCAFcmgHGTUJwLD+Dh0eVg2IcY61vk4b2UTHEOh96CN1MY+QnBjax3YApz2KHi0PlA94AtFCeXAHpFwu18tkMr1EIjFIpVKjVCrVw9vDw8Mgl8uNcF0ulxvEYrFBIpEYYUs0/Ofh4QH5LNdJHkgP16n8BplMBm+SBs58J3lBvuUN10E+lAmfJI+Hh4cR/oO6yeXyxwcOHNh08uTJd6B9bMfE8YmVPbJobwUwVigUKfHx8Rn2yHJkHsETAd14tVr9B7VaHQ1PDR5tRYD2HEgno91EcsikLe6pIxXAkG3+5JNP/jJ79uxr0AGhY4Hhjxg9dBzoEEboFNCxoMNAR4SOAZ3Jy8vLch3SwTWDwWCcMmWKEf6H73q93ujn5wfPWLN0Lie2y2FF1dTUvBkWFnaS7ajxiSZ52ksFkjUajUaDweAhFov/9Zw7hyFjm+BJRQSkabC3PScn510ghW+//day0YjN9SduLXwCcbAdMGkbXPynZkwDzN9///1rS5YsaeS/JNeVOH/+/PM3b94MhsfJkd2Z0FouG7KcicrGjRszDh06lOLMMrmWNSmJgG7cnTt3nlKr1VH5+fnRjY2NK2D/Ab2USNLSW5DHmj5wBY7PdDQZ1NXVLV25cuU/+JTv6rIOHDjwpw8//HA/tFMoQUIac/AGwDvRaDTBq1atEiTJT3oioAHv7Oz0y8/PjyooKIhpbW19BfYl0CMEfSOSUAKFzFFLo9EsDw0N/Zurd14+2wcH0CxcuLC9u7t7Bnh9tqwg8VkPNlkkbrFy5crTdXV1oY4uz175LkUENAjNzc0vwNShqKgo+vr160HMvftCIQIygpH61NTUrFqzZk2dvQp113w7duzY88UXX+ygSYC5OWuisAHdZmRkxCUmJuZOVB2sleuyREA3XKvVLiguLo4pLS2NIXsUIGZAOh8ZlZlBRToNLQ/SkbzjDTrSZcL38vLyNRERERprisPrP0Xg8uXLQStWrKh/8OCB5UlRxBNkI/zRlp7twZSM+GxBaiIvJSXlyJEjR1Ltke+sPG5BBDSYGo3m32H6oNFoom/evPnk8WJk/RmmD7AMSW9fJjEF+kgzvhTEJILS0tK1b731VhVf8t1JDmzUiY6OzmMeWgoY0ztT+T6rgiYWKJvc/AY2NWfOnI62trZ5YrHY8pw8ob7cjghoRVRWVr5eWFgYBTc7PXjwQEZfIwEeepmSBBzJ2jAfNzUxiaCkpOT369atKxeqwQi9Xtu2bdu7b9++bSPLdT97NsXI3X+WPRN87dEgG8HY9jE0NDQsCA4OviJ03NyaCGjllJWVvaVUKqNPnDixATonrD7QIwnbbj8+jkNjEkFBQcHbkZGRpUI3HCHXb+nSpWe0Wu1yQtjE22OeTM23Z8A8WOabb77ZuGnTpsNCxorUDYmAoSWz2SzNzs6GPQpRVVVVb7KN+jCaQGyAjzPzmUSQm5u7PjY29thkMB4h19Hb2/vR0NCQD1lFABIgT6nm814T+vZ4Ok6wdu3a6srKynAhY0TXDYlgDE3du3dvWnFx8buwHAnnJNJBKPjOx4YVJhFkZ2dHxcXFFUwWAxJyPcPCwr4lJ1uxHWPP55kVxBbAy0hNTd3z9ddf7xQyNsy6IRFw1BY8SKOkpCQqJycn9vLly6+CEfG9BAkubEZGxntJSUlKjtXCZFYQyMzMjEpOTs4n0wS+tx1DxwdbgACht7e3ac+ePfGbN2+edPpDIrCjK7W1tb0AQUbwFK5cuRJkhwjWLEAE6enpCe+//342XzJRjkik1WoXbd68+XBzc3Mwmerx4c3R2IaEhJzbvXv3ppCQkEuTEXMkgnFq7dKlS/Nh2Qo2Lul0ujkgjnb3SUCRGVikA1X0NYVC8X5ycrJinNXC7AwEdDrdlN27d+/Oz89P7O3ttcQOngTKxOKf3IdC38pMdMm2WxHSBQUFXUlOTs7evn37l5P5Ri4kAh67TENDw2vZ2dlwd+S7XV1dvmRnG/kkxgRGCC4quSeCfIfRau/evRvh6T08VgtFUQh0d3dPVSgUG4uKihKampp+TZ+XAMlogqCfW0iDCPoMDw+viIyMzHKVwC4SgYO6SVVV1arCwsLosrKyqPv3708FA6MPz4Bi6U1LxAD37dv3p23bth1wULVQLIVAdXX1UoVCsbm9vf03HR0dM/v7+y2HisJqEB1LmD17dk9AQECbr6+vbu7cuTffeOON0mXLlgny5iF7FYxEYC9yNuRTq9URx48fh41L6+FxYfB0XCAFMDb6HghwNb/88sutW7ZsEeSjs21o8qRN2tbW5mkymaYPDQ35ymSyu/PmzftBiOcH8A0wEgHfiFqRl5mZGQleQnl5+e/hOYDk6HVwUYEU0tLS/nPXrl1fOLlaWJybI4BEMEEGcOvWLa/q6uqooqKiqFOnTlluT4U56c6dO//86aefpk1QtbBYN0UAiUAAir9169Yvjh07BqQQExERUfnxxx//jwCqhVVwIwSQCASm7I6Ojueef/75GwKrFlbHxRFAInBxBWPzEAEuCCARcEEJ0yACLo4AEoGLKxibhwhwQQCJgAtKmAYRcHEEkAhcXMHYPESACwJIBFxQwjSIgIsjgETg4grG5iECXBBAIuCCEqZBBFwcASQCF1cwNg8R4IIAEgEXlDANIuDiCCARuLiCsXmIABcEkAi4oIRpEAEXR+D/Aba+sfvzItDUAAAAAElFTkSuQmCC;rotation=-45;" vertex="1" parent="1">
          <mxGeometry x="138.4044227664784" y="415.5244227664784" width="51.6" height="20" as="geometry" />
        </mxCell>
        <mxCell id="5CNyuwmGFHUaitE3zNGx-17" value="" style="shape=image;verticalLabelPosition=bottom;labelBackgroundColor=default;verticalAlign=top;aspect=fixed;imageAspect=0;image=data:image/png,iVBORw0KGgoAAAANSUhEUgAAAQIAAABkCAYAAABtlT6jAAAAAXNSR0IArs4c6QAAFGZJREFUeF7tXXtQVEe6nycIEpPadUXqaiIJEaLrGhOJdcX1FQy4oTZms0p4hGcgavZq1GvVdVO38sfNFhVjNFmjUWSQx8AAo4AgAWQk6LKzRrgqItZFhEFNCcRXiTyd161vlnY7JwfmzHBmOMx8UzU1j9P9dffv+/rXX3/dp49YhC9EABFwewTEbo8AAoAIIAIiJAI0AkQAEUAiQBtABBABERIBGgEigAggEaANIAKIgAiJAI0AEUAEkAjQBhABRAAQwFUDtANEABFAIkAbQAQQAfQI0AYQAUQApwZoA4gAIoAxArQBRAARsCCAwUI0BEQAEUAiQBtABBAB9AjQBhABRACnBmgDiAAigDECtAFEABHAYCHaACKACPwTAVw1QEtABBABJAK0AUQAEUCPAG0AEUAEcGqANoAIIAIYI0AbQAQQAQwWog0gAogArhqgDSACiMAIArh8iKaACCACuHyINoAIIAK4fIg2gAggArh8iDaACCACuHyINoAIIAK4fIg2gAggArh8iDaACCACuHyINoAIIAIEAdxHgLaACCACuI8AbQARQARwHwHaACKACOA+AmHYwO3bt73VanXy8ePH3zl79uxKYdQKa+FOCGCMYAK1XVFREZ6ZmZlQXV29oa+vT7x06dIGrVb72gRWya2K7unp8a2vr1/S0dExp7Oz84Xu7u7nr1+/7n/jxo3nZDKZyM/P70ZAQED7s88+2+7v798RFBSkCwwMPO3v7z/kakAhEThZoy0tLQFZWVnJxcXFCe3t7TPB4AwGg2jKlCmil156qenixYsvO7lKblfc+fPngzMyMhILCwvfe/jwoY9IJDKDdywWi0VmM3z950sqlYqMRiNcsPyGa97e3qLw8PCCDz74IDMsLKzGVcBDInCCJs1ms0SpVMbv378/6cKFCyEGg8GCu0QiEZlMpic1WLhwYUtTU9OvnVAltywiPz9/Q0FBQUJZWVk4W8dnA4UmB0IMkA4IYcaMGTcSEhJyIyIi8hYvXvx/kxlUJAIHaq+mpmaZSqVKKioqerevr8/rqaeeEj169MhSIngAQ0M/9TAXLFhwrbm5OdCBVXJL0V1dXb9KSUnJrKioeNNsNlts3sfHR9TX12cVD7rzMxPL5XKRXq8XPf300w8///zznampqUesChRoAiQCnhXT0dHhW1hYmJSenh5/+/btucPDwz9zOUmRTI9g3rx5HVevXn2B5yq5tbhz5869un79+mPd3d1zoNMy3X8u4DDz0HqDqR14dfCOiYnJzcvLi+MiU2hpkAh40khhYeEGpVKZUFVVFQ4GJ5VKxTC/ZL48PDxEjx8/tvxNf4ffgYGBN1tbW5/jqUpuL6akpGTd22+/XQzTABjZoUNDPAZe8B06NJuOmMAx08JvQg4kpkA8vICAgA6tVrtwxowZ1t0NAWkIiWAcytBqtYtUKlVydnZ2TG9v79Nk3kkMjcz/weCg0w8PD1sCTmBE4FYSQiBG5e/vf1un0/3bOKqEWUcQiI2NzVUqlTEymcxi44QA4Ds9inMBjHR8Op4D+UCv8CL/k3QSicR85syZV0JCQi5xkS+ENEgENmrhxx9/9CkoKEgqKSlJ/O67714mowV0cDAMYnAwAoGBMEcdMjIRd5IYFPyeNWvWjz/88IOvjVXC5AwEtm/f/tf9+/f/B+iCXgWgvTDQC62v0UCkpwGjEQJZ+aF1CWRw//79Xz7zzDMPJoOCkAg4aqmsrGxtZmZmYmVl5R9hZIfR39PT0+Ja0u4mGB4diCLBJviEN/EC2IzHz8/vfldX1y85VgmTsSCg0WjWhIaGnqIvQWcGvYC+IEDLnJKNBSSTCIgspndAiJ8mixdffPHatWvXJkXwF4lgDCu4evXqi3l5eUkKhSLuzp07fhBxBgNgCziRjk0bDiEB2oWk16SJHJLH19f3UU9PzzTs4fYjMH369Nv37t3zA31ArIYZkKUxB3JgegxsJdM6Y14nxEDLIWWA/uPi4o4ePXo0yf4WOScnEgEDZ7PZLFepVLEHDx6Mr6+vX+6sbdhgUD4+PkO9vb1ezlG965Wybt26vIqKimgyJRhr6c9ZrQdC2rJly2d79+79L2eVaU85SAQjqNXV1f0WmLu0tDTq4cOHnvA37b7bA64teWAUmTp16uO+vj5L2fiyDQHw2lJTU7NBZyNTN9sEOCg18Q5qa2uXrV69+u8OKmbcYt2aCHQ63UylUplYUlISf+HChbkw+hNXDxTInAeOG20rAry9vQ0DAwNyR5fjivKXL19ed/bs2RXQNtAd7Pzr7+8XRFPBM0lOTk5PT0//QBAVYqmEWxIBrPlnZGTE19bWrjUajU8woD0AWwJK41EuHW/w9PQ0DQ8PS8cjzx3zgjf3+uuvnyExHIKBPZuH+MYP6gBBSk9Pz6GWlpZZs2bNusd3GXzIcxsiaGxsfOXgwYOw7Pdeb2/vNBjtIcDjTPefTWG0scrlcpNer0cisNGyo6Ojs/Pz8y07+giBA64wEtP7B2wUy2tysLPPPvts644dO/7Kq2CehLk0EZA1f9jxd/78+UXM4BEd6ScRZEgD30dbHeAJ9ydi6Ij0SP1cWid84wdbugMDA7v0er1lWkemc2z3cvBdNhd54A3AkjHYVHBw8IWGhoZXueRzdhqXNLra2trfHTp0KFGtVr8D7iLdudnIgN7cM9rdZo5UDClzJC4hEYvF/7oX1pEFu4DsXbt2/SUtLe3PhFDpdX7m0uFENZdeRtZoNCtXr159ZqLqMlq5LkMETU1NgXl5edD543Q6nR8JGpFNJEwArMUAnDm/JAYLBGAymTzFYrFeaIbCd33g1mxYmOns7JRMnTpVJpPJpAMDA7LHjx/LTCaTh8lkkhuNRtnw8LDcZDKR/6V6vV5mMBgsb5PJJP7oo48Ot7a2/uRGLVvuI+C7XUx5tNcJ1w4fPpyUkpJy1NHl2ip/UhOB2WyWwbJRTk5OQn19/W9pd14oo4E1hdD19PDwMJ86dWqJl5cX3JUEHUEyODgoE4vFcjB86BjQUeATOofRaJQODw/LYO8DxBbgf0g30lmk0JlGOpYlrV6vt/w2GAzQuaSA3+DgoBw+RzqW5brRaLSUB/+DfJAL+YlsuA6/4frQ0JAlncFggOtP6gm/TSaTZGhoSAJlwRkMkIcOzo6TbInXJGgbZrZx165dn6alpf23Nbtw9nVBgzgaGKdPn16uUCiSjx07FgdzL7KDDEAnd5NZG/GdDfRY5TGnIyRGQbwa+BxtB9xYu94gH5kW0TKYu+DGkm8tvzUcSX6uu/isyZuM12n9xsXFqXJycqKF1o5JQwSw5p+bm5uUm5ub2NbWFsAEkrmNdyL2AdirXGIoMI2BzTB0zICWSTo9+YRrbLfR0te5bKEdqwyueynY6kYTMymDrttYBGQvlkLMR3t9ixcv/t/GxsbFQqun4IkgKytrg0qlggM+1wJ45FQYMtqRZUDa0IjxT/TSIFdl0/X08vKyeDiw7MWl/iQ4RpdFd35CkOQ6GzGMRRZ8dVymHHchAWgnTQTTp09/ePfu3We42oaz0gmSCBoaGhbBnX4qlSq+v79/GlkLJgbLDAbBNABeZIow2kjpLFBtLQfcZ3hBu+h1b7ZOTtKRMpgjtr0dl5mP/GbzCNg8Dlvy24rPZE9PEwHseBwYGBBcvxNMhdra2qadOHEiHs74a2lpeZl5np8th0lAWiANLqfPCMnI6CkBH1Ob0YJxXKcObPltIZpxBgOFpBre6jJz5sy73d3dv+JNIE+CJpwI4Gz/I0eOJFRWVkYybxaBkRJG+8HBwSfNJaMn/EGfDEMfRUWfDMR1jssTnjaLgdGCBNTAG6CnPvToby1YOJrrb63jWgs2WuvM1vKzAcKViGwGU8AZCI6LFi26evHixflCq+qEEgHc75+bmxt18uTJDc3NzfNpo2IeCEHuLycAUmvvP4uogxw+RlRnKYv2BCZy27Oj5/HWSMVZeDuzHNJmYq+hoaF1Go1mlTPrwKWsCSUCuoLwYA+lUhlbXFwcqdPpZrGNhvQ+ctJhyK5AZtxgrMbTOw25gOToNDRxsR2kAeXbGv0ndbbmETijbcwybGkLl/qzeSVCIR0myUdFRalUKhUuH3IxvHPnzi3LysqKLikpiezp6fkF5GFG0JlMSxs+vWpApgZs69hCOLiCxoPsj7fXo7FnRCdTLYIZ85NedWBeg7pb22dgbRpA56cJj5RFB0zZCIRMpcggwXZiEBebc2Qaerq3devWfV999dV2R5Znj2zBeASjVb68vPyNoqKiGCAFcmgHGTUJwLD+Dh0eVg2IcY61vk4b2UTHEOh96CN1MY+QnBjax3YApz2KHi0PlA94AtFCeXAHpFwu18tkMr1EIjFIpVKjVCrVw9vDw8Mgl8uNcF0ulxvEYrFBIpEYYUs0/Ofh4QH5LNdJHkgP16n8BplMBm+SBs58J3lBvuUN10E+lAmfJI+Hh4cR/oO6yeXyxwcOHNh08uTJd6B9bMfE8YmVPbJobwUwVigUKfHx8Rn2yHJkHsETAd14tVr9B7VaHQ1PDR5tRYD2HEgno91EcsikLe6pIxXAkG3+5JNP/jJ79uxr0AGhY4Hhjxg9dBzoEEboFNCxoMNAR4SOAZ3Jy8vLch3SwTWDwWCcMmWKEf6H73q93ujn5wfPWLN0Lie2y2FF1dTUvBkWFnaS7ajxiSZ52ksFkjUajUaDweAhFov/9Zw7hyFjm+BJRQSkabC3PScn510ghW+//day0YjN9SduLXwCcbAdMGkbXPynZkwDzN9///1rS5YsaeS/JNeVOH/+/PM3b94MhsfJkd2Z0FouG7KcicrGjRszDh06lOLMMrmWNSmJgG7cnTt3nlKr1VH5+fnRjY2NK2D/Ab2USNLSW5DHmj5wBY7PdDQZ1NXVLV25cuU/+JTv6rIOHDjwpw8//HA/tFMoQUIac/AGwDvRaDTBq1atEiTJT3oioAHv7Oz0y8/PjyooKIhpbW19BfYl0CMEfSOSUAKFzFFLo9EsDw0N/Zurd14+2wcH0CxcuLC9u7t7Bnh9tqwg8VkPNlkkbrFy5crTdXV1oY4uz175LkUENAjNzc0vwNShqKgo+vr160HMvftCIQIygpH61NTUrFqzZk2dvQp113w7duzY88UXX+ygSYC5OWuisAHdZmRkxCUmJuZOVB2sleuyREA3XKvVLiguLo4pLS2NIXsUIGZAOh8ZlZlBRToNLQ/SkbzjDTrSZcL38vLyNRERERprisPrP0Xg8uXLQStWrKh/8OCB5UlRxBNkI/zRlp7twZSM+GxBaiIvJSXlyJEjR1Ltke+sPG5BBDSYGo3m32H6oNFoom/evPnk8WJk/RmmD7AMSW9fJjEF+kgzvhTEJILS0tK1b731VhVf8t1JDmzUiY6OzmMeWgoY0ztT+T6rgiYWKJvc/AY2NWfOnI62trZ5YrHY8pw8ob7cjghoRVRWVr5eWFgYBTc7PXjwQEZfIwEeepmSBBzJ2jAfNzUxiaCkpOT369atKxeqwQi9Xtu2bdu7b9++bSPLdT97NsXI3X+WPRN87dEgG8HY9jE0NDQsCA4OviJ03NyaCGjllJWVvaVUKqNPnDixATonrD7QIwnbbj8+jkNjEkFBQcHbkZGRpUI3HCHXb+nSpWe0Wu1yQtjE22OeTM23Z8A8WOabb77ZuGnTpsNCxorUDYmAoSWz2SzNzs6GPQpRVVVVb7KN+jCaQGyAjzPzmUSQm5u7PjY29thkMB4h19Hb2/vR0NCQD1lFABIgT6nm814T+vZ4Ok6wdu3a6srKynAhY0TXDYlgDE3du3dvWnFx8buwHAnnJNJBKPjOx4YVJhFkZ2dHxcXFFUwWAxJyPcPCwr4lJ1uxHWPP55kVxBbAy0hNTd3z9ddf7xQyNsy6IRFw1BY8SKOkpCQqJycn9vLly6+CEfG9BAkubEZGxntJSUlKjtXCZFYQyMzMjEpOTs4n0wS+tx1DxwdbgACht7e3ac+ePfGbN2+edPpDIrCjK7W1tb0AQUbwFK5cuRJkhwjWLEAE6enpCe+//342XzJRjkik1WoXbd68+XBzc3Mwmerx4c3R2IaEhJzbvXv3ppCQkEuTEXMkgnFq7dKlS/Nh2Qo2Lul0ujkgjnb3SUCRGVikA1X0NYVC8X5ycrJinNXC7AwEdDrdlN27d+/Oz89P7O3ttcQOngTKxOKf3IdC38pMdMm2WxHSBQUFXUlOTs7evn37l5P5Ri4kAh67TENDw2vZ2dlwd+S7XV1dvmRnG/kkxgRGCC4quSeCfIfRau/evRvh6T08VgtFUQh0d3dPVSgUG4uKihKampp+TZ+XAMlogqCfW0iDCPoMDw+viIyMzHKVwC4SgYO6SVVV1arCwsLosrKyqPv3708FA6MPz4Bi6U1LxAD37dv3p23bth1wULVQLIVAdXX1UoVCsbm9vf03HR0dM/v7+y2HisJqEB1LmD17dk9AQECbr6+vbu7cuTffeOON0mXLlgny5iF7FYxEYC9yNuRTq9URx48fh41L6+FxYfB0XCAFMDb6HghwNb/88sutW7ZsEeSjs21o8qRN2tbW5mkymaYPDQ35ymSyu/PmzftBiOcH8A0wEgHfiFqRl5mZGQleQnl5+e/hOYDk6HVwUYEU0tLS/nPXrl1fOLlaWJybI4BEMEEGcOvWLa/q6uqooqKiqFOnTlluT4U56c6dO//86aefpk1QtbBYN0UAiUAAir9169Yvjh07BqQQExERUfnxxx//jwCqhVVwIwSQCASm7I6Ojueef/75GwKrFlbHxRFAInBxBWPzEAEuCCARcEEJ0yACLo4AEoGLKxibhwhwQQCJgAtKmAYRcHEEkAhcXMHYPESACwJIBFxQwjSIgIsjgETg4grG5iECXBBAIuCCEqZBBFwcASQCF1cwNg8R4IIAEgEXlDANIuDiCCARuLiCsXmIABcEkAi4oIRpEAEXR+D/Aba+sfvzItDUAAAAAElFTkSuQmCC;rotation=-90;" vertex="1" parent="1">
          <mxGeometry x="227.89442276647839" y="424.9144227664784" width="51.6" height="20" as="geometry" />
        </mxCell>
      </root>
    </mxGraphModel>
  </diagram>
</mxfile>
